<mxfile host="app.diagrams.net" agent="Mozilla/5.0 (Windows NT 10.0; Win64; x64) AppleWebKit/537.36 (KHTML, like Gecko) Chrome/137.0.0.0 Safari/537.36" version="27.1.6">
  <diagram name="페이지-1" id="AEZU30VOSUNR5OxxOs5h">
    <mxGraphModel dx="2022" dy="1142" grid="1" gridSize="10" guides="1" tooltips="1" connect="1" arrows="1" fold="1" page="1" pageScale="1" pageWidth="827" pageHeight="1169" math="0" shadow="0">
      <root>
        <mxCell id="0" />
        <mxCell id="1" parent="0" />
        <mxCell id="-l2Gk0cze2jdlK-yijKB-205" value="&lt;font style=&quot;font-size: 15px;&quot;&gt;Ligand-only embedder&lt;/font&gt;" style="rounded=1;whiteSpace=wrap;html=1;fillColor=#EDEDED;" vertex="1" parent="1">
          <mxGeometry x="478.08" y="506" width="192.51" height="22.66" as="geometry" />
        </mxCell>
        <mxCell id="-l2Gk0cze2jdlK-yijKB-216" value="" style="group" vertex="1" connectable="0" parent="1">
          <mxGeometry x="260" y="490" width="140" height="135" as="geometry" />
        </mxCell>
        <mxCell id="-l2Gk0cze2jdlK-yijKB-207" value="" style="endArrow=none;html=1;rounded=0;curved=1;" edge="1" parent="-l2Gk0cze2jdlK-yijKB-216">
          <mxGeometry width="50" height="50" relative="1" as="geometry">
            <mxPoint x="42" y="116" as="sourcePoint" />
            <mxPoint x="42" y="117" as="targetPoint" />
            <Array as="points">
              <mxPoint x="41" y="57" />
              <mxPoint x="69" y="36" />
              <mxPoint x="104" y="52" />
              <mxPoint x="91" y="132" />
              <mxPoint x="135" y="135" />
              <mxPoint x="140" y="84" />
              <mxPoint x="138" y="48" />
              <mxPoint x="116" y="9" />
              <mxPoint x="70" />
              <mxPoint x="19" y="14" />
              <mxPoint y="76" />
              <mxPoint y="127" />
              <mxPoint x="33" y="135" />
            </Array>
          </mxGeometry>
        </mxCell>
        <mxCell id="-l2Gk0cze2jdlK-yijKB-210" value="Residue" style="ellipse;whiteSpace=wrap;html=1;aspect=fixed;fillColor=none;fontSize=7;" vertex="1" parent="-l2Gk0cze2jdlK-yijKB-216">
          <mxGeometry x="2" y="92" width="40" height="40" as="geometry" />
        </mxCell>
        <mxCell id="-l2Gk0cze2jdlK-yijKB-211" value="Residue" style="ellipse;whiteSpace=wrap;html=1;aspect=fixed;fillColor=none;fontSize=7;" vertex="1" parent="-l2Gk0cze2jdlK-yijKB-216">
          <mxGeometry x="5" y="46" width="40" height="40" as="geometry" />
        </mxCell>
        <mxCell id="-l2Gk0cze2jdlK-yijKB-212" value="Residue" style="ellipse;whiteSpace=wrap;html=1;aspect=fixed;fillColor=none;fontSize=7;" vertex="1" parent="-l2Gk0cze2jdlK-yijKB-216">
          <mxGeometry x="30" y="6" width="40" height="40" as="geometry" />
        </mxCell>
        <mxCell id="-l2Gk0cze2jdlK-yijKB-213" value="Residue" style="ellipse;whiteSpace=wrap;html=1;aspect=fixed;fillColor=none;fontSize=7;" vertex="1" parent="-l2Gk0cze2jdlK-yijKB-216">
          <mxGeometry x="77" y="7" width="40" height="40" as="geometry" />
        </mxCell>
        <mxCell id="-l2Gk0cze2jdlK-yijKB-214" value="Residue" style="ellipse;whiteSpace=wrap;html=1;aspect=fixed;fillColor=none;fontSize=7;" vertex="1" parent="-l2Gk0cze2jdlK-yijKB-216">
          <mxGeometry x="99" y="48" width="40" height="40" as="geometry" />
        </mxCell>
        <mxCell id="-l2Gk0cze2jdlK-yijKB-215" value="Residue" style="ellipse;whiteSpace=wrap;html=1;aspect=fixed;fillColor=none;fontSize=7;" vertex="1" parent="-l2Gk0cze2jdlK-yijKB-216">
          <mxGeometry x="96" y="94" width="40" height="40" as="geometry" />
        </mxCell>
        <mxCell id="-l2Gk0cze2jdlK-yijKB-292" value="Target Ligand" style="text;html=1;align=center;verticalAlign=middle;whiteSpace=wrap;rounded=0;fontSize=7;" vertex="1" parent="-l2Gk0cze2jdlK-yijKB-216">
          <mxGeometry x="42" y="61" width="60" height="13" as="geometry" />
        </mxCell>
        <mxCell id="-l2Gk0cze2jdlK-yijKB-259" value="" style="endArrow=none;html=1;rounded=0;dashed=1;startFill=0;" edge="1" parent="1">
          <mxGeometry width="50" height="50" relative="1" as="geometry">
            <mxPoint x="262" y="600" as="sourcePoint" />
            <mxPoint x="252" y="600" as="targetPoint" />
          </mxGeometry>
        </mxCell>
        <mxCell id="-l2Gk0cze2jdlK-yijKB-260" value="" style="endArrow=none;html=1;rounded=0;dashed=1;startFill=0;exitX=0.5;exitY=0;exitDx=0;exitDy=0;" edge="1" parent="1" source="-l2Gk0cze2jdlK-yijKB-212">
          <mxGeometry width="50" height="50" relative="1" as="geometry">
            <mxPoint x="310" y="497" as="sourcePoint" />
            <mxPoint x="310" y="483" as="targetPoint" />
          </mxGeometry>
        </mxCell>
        <mxCell id="-l2Gk0cze2jdlK-yijKB-261" value="" style="endArrow=none;html=1;rounded=0;dashed=1;startFill=0;exitX=0.032;exitY=0.353;exitDx=0;exitDy=0;exitPerimeter=0;" edge="1" parent="1" source="-l2Gk0cze2jdlK-yijKB-211">
          <mxGeometry width="50" height="50" relative="1" as="geometry">
            <mxPoint x="260" y="550" as="sourcePoint" />
            <mxPoint x="252" y="550" as="targetPoint" />
          </mxGeometry>
        </mxCell>
        <mxCell id="-l2Gk0cze2jdlK-yijKB-262" value="" style="endArrow=none;html=1;rounded=0;dashed=1;startFill=0;" edge="1" parent="1">
          <mxGeometry width="50" height="50" relative="1" as="geometry">
            <mxPoint x="410" y="605" as="sourcePoint" />
            <mxPoint x="410" y="483" as="targetPoint" />
          </mxGeometry>
        </mxCell>
        <mxCell id="-l2Gk0cze2jdlK-yijKB-263" value="" style="endArrow=classic;html=1;rounded=0;dashed=1;" edge="1" parent="1">
          <mxGeometry width="50" height="50" relative="1" as="geometry">
            <mxPoint x="410" y="540" as="sourcePoint" />
            <mxPoint x="470" y="540" as="targetPoint" />
          </mxGeometry>
        </mxCell>
        <mxCell id="-l2Gk0cze2jdlK-yijKB-278" value="" style="endArrow=none;html=1;rounded=0;dashed=1;startFill=0;" edge="1" parent="1">
          <mxGeometry width="50" height="50" relative="1" as="geometry">
            <mxPoint x="252" y="600" as="sourcePoint" />
            <mxPoint x="252" y="484" as="targetPoint" />
          </mxGeometry>
        </mxCell>
        <mxCell id="-l2Gk0cze2jdlK-yijKB-279" value="" style="endArrow=none;html=1;rounded=0;dashed=1;startFill=0;" edge="1" parent="1">
          <mxGeometry width="50" height="50" relative="1" as="geometry">
            <mxPoint x="408.95" y="483" as="sourcePoint" />
            <mxPoint x="252" y="483" as="targetPoint" />
          </mxGeometry>
        </mxCell>
        <mxCell id="-l2Gk0cze2jdlK-yijKB-280" value="" style="endArrow=none;html=1;rounded=0;dashed=1;startFill=0;exitX=0.5;exitY=0;exitDx=0;exitDy=0;" edge="1" parent="1">
          <mxGeometry width="50" height="50" relative="1" as="geometry">
            <mxPoint x="360" y="496" as="sourcePoint" />
            <mxPoint x="360" y="483" as="targetPoint" />
          </mxGeometry>
        </mxCell>
        <mxCell id="-l2Gk0cze2jdlK-yijKB-281" value="" style="endArrow=none;html=1;rounded=0;dashed=1;startFill=0;dashPattern=1 2;strokeWidth=2;" edge="1" parent="1">
          <mxGeometry width="50" height="50" relative="1" as="geometry">
            <mxPoint x="574.12" y="544" as="sourcePoint" />
            <mxPoint x="574.3199999999999" y="528.66" as="targetPoint" />
          </mxGeometry>
        </mxCell>
        <mxCell id="-l2Gk0cze2jdlK-yijKB-282" value="" style="endArrow=none;html=1;rounded=0;dashed=1;startFill=0;" edge="1" parent="1">
          <mxGeometry width="50" height="50" relative="1" as="geometry">
            <mxPoint x="410" y="605" as="sourcePoint" />
            <mxPoint x="396" y="605" as="targetPoint" />
          </mxGeometry>
        </mxCell>
        <mxCell id="-l2Gk0cze2jdlK-yijKB-283" value="" style="endArrow=none;html=1;rounded=0;dashed=1;startFill=0;" edge="1" parent="1">
          <mxGeometry width="50" height="50" relative="1" as="geometry">
            <mxPoint x="409" y="556" as="sourcePoint" />
            <mxPoint x="399" y="556" as="targetPoint" />
          </mxGeometry>
        </mxCell>
        <mxCell id="-l2Gk0cze2jdlK-yijKB-285" value="&lt;font style=&quot;font-size: 15px;&quot;&gt;Ligand-only embedder&lt;/font&gt;" style="rounded=1;whiteSpace=wrap;html=1;fillColor=#EDEDED;" vertex="1" parent="1">
          <mxGeometry x="478.12" y="546" width="192.51" height="22.66" as="geometry" />
        </mxCell>
        <mxCell id="-l2Gk0cze2jdlK-yijKB-286" value="&lt;font style=&quot;font-size: 15px;&quot;&gt;Ligand-only embedder&lt;/font&gt;" style="rounded=1;whiteSpace=wrap;html=1;fillColor=#EDEDED;" vertex="1" parent="1">
          <mxGeometry x="478.12" y="483.34000000000003" width="192.51" height="22.66" as="geometry" />
        </mxCell>
        <mxCell id="-l2Gk0cze2jdlK-yijKB-287" value="&lt;font style=&quot;font-size: 15px;&quot;&gt;Ligand-only embedder&lt;/font&gt;" style="rounded=1;whiteSpace=wrap;html=1;fillColor=#EDEDED;" vertex="1" parent="1">
          <mxGeometry x="478.12" y="620" width="192.51" height="22.66" as="geometry" />
        </mxCell>
        <mxCell id="-l2Gk0cze2jdlK-yijKB-289" value="" style="shape=image;verticalLabelPosition=bottom;labelBackgroundColor=default;verticalAlign=top;aspect=fixed;imageAspect=0;image=data:image/png,iVBORw0KGgoAAAANSUhEUgAAA2oAAALiCAYAAACovyUKAAAAAXNSR0IArs4c6QAAAARnQU1BAACxjwv8YQUAAAAJcEhZcwAADsMAAA7DAcdvqGQAAOGWSURBVHhe7L15kFzXeZ99ZsdCkARAgOACruAG7vu+i5s2S7LiyNL32UmVo7icVDnlSpykUkm5KklVvj/8xXFcScWJl9ifJUeSLVuStZCiuIEkuC8gCBLgToAASJDgAgKY/TvP231GzWYDxMz0DO7MPE/Vre7p7rl9uvuee9/f+b3nPR2jmSQiIiIiIiKVobN+KyIiIiIiIhVBoSYiIiIiIlIxFGoiIiIiIiIVQ6EmIiIiIiJSMRRqIiIiIiIiFUOhJiIiIiIiUjEUaiIiIiIiIhVDoSYiIiIiIlIxFGoiIiIiIiIVQ6EmIiIiIiJSMRRqIiIiIiIiFUOhJiIiIiIiUjEUaiIiIiIiIhVDoSYiIiIiIlIxFGoiIiIiIiIVQ6EmIiIiIiJSMRRqIiIiIiIiFUOhJiIiIiIiUjEUaiIiIiIiIhVDoSYiIiIiIlIxFGoiIiIiIiIVo2M0U78vIiIiIlPM8PBwGhoaGrsdGRlJhGMlJOvo6Iitq6srdXd3j208Nh7YH/suG7CPzs7OsW2yNO6/tJ92s+/yOURkYijURERERKaBIpy2bt2atmzZkl5++eW0efPmtGPHjrR3794xMYXIOfTQQ9ORRx6ZTj755HTiiSemlStXpr6+vhBBB8ru3bvTe++9l9599930wQcfxGO9vb3p8MMPj+2www6blJBCaLL/8h6Dg4Px+NKlS2NbsGBBvJ+ITAyFmoiIiMgUgoD58MMP0zvvvJPefPPN9Morr6QXX3wxPf/88yHWEG6Iqkahtnjx4nTsscem1atXp9NPPz2deuqp6aijjkrLly9PCxcuDNH2SfBeL730UnrhhRfSa6+9Fo8hzk455ZR00kknxTYZV21gYCDaz2fZtGlTfEY466yzYlu2bFlatGhRPCYi40ehJiIiIjJFIL5wmxBla9asSXfccUc4aO+//36Isz179qT+/v6PpA7icpHqOG/evBBluGs4YDfccEO6/vrr02mnnRZu2yeJLN7z/vvvTz/72c/S2rVr4zGcOfZzzTXXpCuvvDLeZ6IgzB544IF07733pjvvvDOEIXzpS19Kn//850NcIixFZGJYTERERESkzZAWiJB59tlnQyj94Ac/CJH20EMPpXXr1oULhZOGYOO1iC5EU09PT6Q34lbhwOGEbdiwIT322GMhhr7//e+HMGK/u3btGhN3rUAAkpZImiXvx/bqq6+mt99+O0TiZMfq+X8+41tvvTXmErIh2BCgfC4RmTgKNREREZE2Q5GQnTt3hrj60z/90/S///f/DoHFXDGeKyDKmMuFa0a6Y5k7Vuaj4a4heJjD9sgjj6Q/+7M/S9/85jfTXXfdFYKrpEuKyOxDoSYiIiLSJhBVOFmPP/54+va3vx2Cav369SGqcMkQXhQIueWWW9I/+kf/KP2rf/WvYvvt3/7t9C/+xb+Ijfv/5t/8m7j9tV/7tXTdddeFiON/cdFwrLZv3x6umK6VyOxFoSYiIiLSJhBjpBuS4vitb30r5nCRFoh4Y84Zguvcc89Nn/vc59Kv//qvhzD75//8n6ff+q3fSr/5m78Z2z/7Z/8sRBqPf/3rX0+33nprFP6gkiJOGymHFCgpJf4nm8IoItVEoSYiIiLSJnC6EGdPPPFEzNci1ZH5ZwgsBNpv/MZvpK997WvpxhtvTMcff3yIt1ZFQXDPKCRywgknpJtvvjlE21e+8pUoAvKFL3whHLkVK1ZE+XteKyKzD4WaiIiIyCRhrhgFNCj+QXVHin1QZIO5ZQiuVatWpcsvvzyctKuvvjpK7uOQUTykldDiMUTYEUccEaXuP/3pT6fbbrst3XTTTZEKed5558V8tvGsqyYiMwuFmoiIiMgkIeWReWhUaKTKI+uLAYIL54ty9QgtBBvFQsYD1SDnz5+fLrjggnDTEHmsTzaZ0voiUn0UaiIiIiKThDL1GzduDKFGCXzK7iOkjj766HTmmWemyy67LBavRqThlI0HxB77WrJkSayDxj725cSJyOxBoSYiIiIyCSjmQQGRJ598Mj333HMh2ij0gSDD/br00ktDrOGsfdIi1SIiBc8WIiIiIhMEkUZFRxanpnjIG2+8EZUYcbsoIEKqI04a66Q5n0xExoNCTURERGSCINQoIsL8NFIeWeOMwiKIMoqIUFb/lFNOiUWtRUTGg0JNREREZIIgypiPRoVHNsrxI96YT0ZpfeaUUbmROWUiIuNBoSYiIiIyQRBqzE/bsWNH3FKOH6FGquMxxxyTli1bZtqjiEwIhZqIiIjIBEGo7dy5M4Qac9UQaUDaI04at7hpFhERkfHiWUNERERkgiDUdu/enXbt2hWVHhuFGgtas/5ZlUQajh8FT1hGYO3atenBBx+c8Pbwww+n559/Pm3fvj3WkROR9tKRTyi1M4qIiIiIjAtK8d9xxx3pxz/+cfr+978fIghuvvnm9JnPfCbddNNN6YwzzojHppunn3463Xnnnel73/teuvvuu+Mx0jCZO3f88cfHNpmUTMQZBVTYWOAbwQq/+qu/mr72ta+ls846Kx111FHxmIiMH4WaiIiIyASheMh3v/vd9MMf/jDdddddUfURvvCFL6Qvf/nL6fLLL4/KjweDVkKNtd0Qa2wsnD2ZRbNZhoBCKmUbHByMxxVqIu1BoSYiIiIyQRAof/7nf55+8IMfRCog66nBV7/61RAr5557bhQVORi0EmrTgUJNpD04R01ERESkzTAvjbTCyThWIjK3UaiJiIiITALEWNkKFBZhDhfpgVWir68vrVixIubNXXbZZZGaOdHtkksuSaeddlo68sgjXSdOZAow9VFERERkgpD6+I1vfCNSH6mi+Pbbb8fjn/vc59KXvvSldNVVV6VVq1bFY9NNq9THo48+Ol1zzTVjQqu7uzsenwgUD3nkkUfSAw88kO69995YogBMfRRpDzpqIiIiIhMEF40S/JTjb6ygSGENhEwVHTUcsFNOOSVdeOGF6aKLLprwdsEFF6STTz45FvXWURNpPwo1ERERkQnCXDQqKB5++OEfcacQaKQ/ss6aiMhEUKiJiIiITBCEGmXuFy9e/BGhRtn+bdu2haumWNs/uI98X1u2bEnPPfdcevbZZ2Mh7ddeey2qaPK836HMRRRqIiIiIhOk0VEj/a8UFHnvvfdi8etdu3aFyJhLJQH4vDiK+/vMvIZiK3xP27dvj0Wz169fnx599NFY5oDbdevWpRdeeCEE77vvvpv27t1buVRSkalEoSYiIiIyQRBqixYtCkdtwYIFY64awmLz5s1RXOTDDz+cUwKDz8vn7u/vrz/yURBpCDSE2J/+6Z+m//Sf/lP6d//u36Xf/d3fTf/zf/7P9Ed/9EfpD//wD9Pv/d7vpf/wH/5D+u3f/u14HQKuFCwRmQso1EREREQmSBFqS5cuHRNruGo4aVu3bg23CNHGfLW5As4Xn5+UxWZ4DJFGeiOVKL///e+nn/zkJ+nBBx9ML730UlTRJF2U7+zFF1+Mx//6r/86XnfXXXfFY7xGZ03mAgo1ERERkQmCKEOoLV++PB1zzDFpyZIlId4QG7hKr7/+esy9Is1vrkDK475SHxFZiK1vf/vb6c///M/DVcOFvPTSS6Ok/7/+1/86/dt/+2/Tb/3Wb6Uvf/nLUeKfapq87m//9m9jCYSXX345xKDIbEehJiIiIjJBEGrz5s0LgUapetYNQ6ghVEgB3LhxY8y9mkuuGgJtX/PTEGV8XziPfFcXX3xx+tSnPpU++9nPxu2VV16ZrrjiinT11Venm266Kd14443xN8sfINCeeuqptGHDhrG5fyKzGYWaiIiIyARBqFFEhLTH008/PR133HEh1IA5Wog0FoV+88034+/9FdiYC+A+8h1dd9116atf/Wr6p//0n6Zf//VfT7/8y78cC3Aj3o444oh0/PHHp2uvvTZ94QtfCKdt9erV8f1RFZKFvE1/lLmAQk1ERERkkhxyyCHptNNOi23FihXhACEkmKOGA/TAAw/ELSmQExVriBMKlDCXi5TKmZj+h4hlgXC+JxbNRoCRMorD1tvbG8+zke7I31TTXLlyZQhhHsdJ27lzZ9qzZ49CTWY9CjURERGRSYLQWLVqVQiQE044IdZWIzUPUUGJ+fvuuy89+eSTkQI5XmcNQcL/UJyEIhyk/+EsUZSjVcGOqoMDiWN2xhlnhLuGGMOZbEVJK0X4It74Hpj/h+Dle5nrDqXMbhRqIiIiIpMEEYFYO+WUU9KnP/3pdOqpp46JDwQV6Y+33357+t73vhcii/lqBzrHiqIkiDyqH/7+7/9++m//7b+lb3zjG+HS4azNZmeJ7wgxWr6vvr6+MfeN73xfAk9kNqBQExEREZkkpOUhHkjToxDGueeeG/dxgkjTY0FnFnGmFP0999wT9zdt2hSLOX/wwQeRxohLxMZ9nDeqRTLHjUqHd955Z7rjjjvST3/60yhrz5piVE985513Zq2rxOeiIAvpo3xH/I1TyVIIOG0INZHZjEJNREREpE0wl4qUvmuuuSbdeuutMf+qgCgjBfKP//iP03/8j/8xXLH7778/5py99dZb4bwh0LjPfDZE2X//7/89/df/+l/Tn/zJn4SrhrtUnDhuES+zUajxmfh8FGFB1L7xxhshzI4++uhIm2ROYFlcXGS20vU7mfp9EREREZkEiAnS8xARiAnSEknbY14VGw5REWMUB+GWAiG4a4gz1gtjDhripGw8x/w03DYKcSAEL7vssnT55ZenE088cazQRjM4UZS0f/7559Mrr7wSj/Fa5tExn+6kk06alCtFexCZzMHjPSj0Aeyb1E/2TwXHTwJBxvfE/nAfcQlfe+21EKYI2zVr1sS+ly1bFtUiKemPW4mrJjKb6RidjcMwIiIiIgcRxBnpeqQokrb4ne98J8QHgoR5VWyIOYRSqXTYSBEvZW4WGwIQsUK5+ltuuSWdffbZIbz2JbYoY897My+OdElA2H3+85+P/2fdMgp7TBTEE67fj3/843gPxCTgJJZ10RCFnwSfkSIhpHzynZEmimCl7YhX/j7nnHNiPbUvfvGL6cILLzT1UeYEpj6KiIiItJniqLG2GqKItcJ+5Vd+JVIicYMQZggUHCRcNgRK48ZjCBfEGq4ULtJXvvKV9Ju/+Zvp5ptvDseKNclmg1ghvZFiK9/85jfT7/7u76b/9b/+Vwg/xBpCEhcN4UeRFlw6RForB1FktmHqo4iIiMgUgIgq64CdddZZsZgzwoN5ZggxBAcbThlb+ZuNIiRsZX22q666KpywL33pS+nkk0+O/X7SHC2qRTK3i410QvZHG1i7jPRE5npNRujxOSh4wv6Lm8Z7kJpJm3HvKK3/SeCY4TzizH3/+9+PJQh4jDl7lO+//vrrw0274IILxj63Qk3mAqY+ioiIiEwhpC0ialhTjXljzEvbsWNHiDXECCKquGcIEIQIguTQQw8N14wqh0ceeWQU0li+fHm85kCECnPheD+EFLeA8GM/CDb2ORnBgyPIfhFpCDbcQWDfvAcLf9P+T4L2McftmWeeiaUL+G4ovMLSA6SIUukRZ5JKmrhrCEEEoamPMttRqImIiIhMI2XuGXO8EGo4X4icRqGGOGP+GWINt20ygqrq8D0gVhGwbEWksfwA8/ootoIoIwX0F3/xF9O1114briKiczZ/LyIKNREREZFphOqGFM/gFrcNYYZzREhWCo2QIsnj5Tm22QoCFceRje+EDYeRKplUlKT6I2vPsabc+eefH0INwUbqJiJWZLaiUBMRERGZBnDRECO4RWykDSJIcM2o5ki6IK4RTprU1lIjLRKx9pd/+Zfp7/7u72J5AlIgf+3Xfi1u+d501WS2YjERERERkWkAF42106hwSOGMv/mbv0k//OEP42/S/UjvY04X89AkhYtIYRXEGN8P8+CYD8f3SKESRK1CTWYzHtkiIiIi0wApfQg11ga7//77Y7FoStNT4ZBFral2SCEN+Tmkfi5YsCAKk5DqiKPGfD7msjG/z8Qwmc0o1ERERESmAdIeWSMNgca8K0Qa87CoBolbhFijqIb8nFJchSqYiDWEGimkiDSKkCjUZDajUBMRERGZBopQw1lrplSBbPXcbAJhRQEVCohweyBCi9fwvSFsmdOHeKOISG9v76wusiKiUBMRERGZBhAnzK9ClDWzv+dmE6wdxzwz0j9ZMw03cX/itIhbCq9Qph+hxrw1HDbK84vMZhRqIiIiIjItkOL54IMPpj/5kz+JjUWuWZh7X84aIo05fBs3bozUUMQsC2Afd9xxUUzEQiIym/HoFhEREZFpAeGFWFu3bl2sjfbd7343fe9730t33XVXzNtj/t7LL7+cnn/++aiGeeedd8ZrHn/88SjEctRRR6UzzzwzCouwjIGpjzKbUaiJiIiIyJSDa0YqI+mPFE156qmn0h/+4R+m//Jf/kv6oz/6o/SjH/0oPfroo+mxxx5La9asCYGG6/b7v//7ae3atbGPs88+O11xxRVRnh9nTaEmsxnXURMRERGZBnCEKCv/xBNPpPXr19cfrcH6aUuXLk0XXnhhOuecc+qPzi4QVWzlsy5ZsiTmpyHc+F5Y3PrFF18Mt42N5QpYGJwiK2eccUa67rrr0o033hjfERUgKSgiMpvRURMRERGRaeHYY48NR+wrX/lK+upXv5ouvfTSmGtGUREKjOCksZH2iGhjThrpjldeeWX6e3/v74VQW716dVq4cGF9jyKzl47RA6mLKiIiIiKTgqqFuESk+X3rW9+qP1oDMXLKKaekr3/96+lrX/ta/dHZCaEni1YjzigUwiLfFBQhLbJUvcR5o1AIFR4RZcccc0xszEtjLTVTHmUuoFATERERmQYUaq1BnCHSSINsFGpdXV2xVhpiTWEmcxFTH0VERETkoIEgY74Zztmhhx4aG/PY+JvHFWkyV1GoiYiIiMhBo6Q5dnd3p56enrGNv10nTeYyHv0iIiIiIiIVQ6EmIiIiIiJSMRRqIiIiIiIiFUOhJiIiIiIiUjEUaiIiIiIiIhVDoSYiIiIiIlIxFGoiIiIiIiIVQ6EmIiIiIiJSMRRqIiIiIiIiFUOhJiIiIiIiUjEUaiIiIiIiIhVDoSYiIiIiIlIxFGoiIiIiIiIVQ6EmIiIiIiJSMRRqIiIiIiIiFUOhJiIiIiIiUjEUaiIiIiIiIhVDoSYiIiIiIlIxFGoiIiIiIiIVQ6EmIiIiIiJSMRRqIiIiIiIiFUOhJiIiIiIiUjEUaiIiIiIiIhVDoSYiIiIiIlIxFGoiIiIiIiIVQ6EmIiIiIiJSMRRqIiIiIiIiFUOhJiIiIiIiUjEUaiIiIiIiIhVDoSYiIiIiIlIxFGoiIiIiIiIVQ6EmIiIiIiJSMRRqIiIiIiIiFUOhJiIiIiIiUjEUaiIiIiIiIhVDoSYiIiIiIlIxFGoiIiIiIiIVQ6EmIiIiIiJSMRRqIiIiIiIiFUOhJiIiIiIiUjEUaiIiIiIiIhVDoSYiIiIiIlIxFGoiIiIiIiIVQ6EmIiIiIiJSMRRqIiIiIiIiFUOhJiIiIiIiUjEUaiIiIiIiIhVDoSYiIiIiIlIxFGoiIiIiIiIVQ6EmIiIiIiJSMRRqIiIiIiIiFUOhJiIiIiIiUjEUaiIiIiIiIhVDoSYiIiIiIlIxFGoiIiIiIiIVQ6EmIiIiIiJSMRRqIiIiIiIiFUOhJiIiIiIiUjEUaiIiIiIiIhVDoSYiIiIiIlIxFGoiIiIiIiIVQ6EmIiIiIiJSMRRqIiIiIiIiFUOhJiIiIiIiUjEUaiIiIiIiIhVDoSYiIiIiIlIxFGoiIiIiIiIVQ6EmIiIiIiJSMRRqIiIiIiIiFUOhJiIiIiIiUjEUaiIiIiIiIhVDoSYiIiIiIlIxFGoiIiIiIiIVQ6EmIiIiIiJSMRRqIiIiIiIiFUOhJiIiIiIiUjEUaiIiIiIVoaOjo35PROY6CjURERGRCqBIE5FGFGoiIiIiIiIVQ6EmIiIiIiJSMRRqIiIiIiIiFUOhJiIiIiIiUjEUaiIiIiIiIhVDoSYiIiIyTYyOjtbviYjsH4WaiIiIiIhIxVCoiYiIiIiIVAyFmoiIiIiISMVQqImIiIiIiFQMhZqIiIiIiEjFUKiJiIiIiIhUDIWaiIiIiIhIxVCoiYiIiIiIVAyFmoiIiMhBhoWwh4eH02uvvZYefvjh9MQTT6QXX3wx7dmzp/4KEZlrKNREREREDjKItP7+/rRx48Z09913p/vvvz899dRTadu2bemDDz6I53iNiMwdun4nU78vIiIiIlPE+++/n956661wy9avX19/tEZHR0caGhpKb775Zoi1devWpU2bNsXr33vvvRBp3d3daeHChfX/EJHZjkJNREREZBrYn1Aj9XFwcDDt2LEjbdmyJb3xxhtjIg1HjRTIkZGR1NXVFbcIu87OzrgVkdmJQk1ERERkGvgkoYZr1pjeiMP27rvvpq1bt8Z8tXfeeSd9+OGHIc76+vrSvHnzwmUTkdmJQk1ERERkGtifUAPEWiM4Z8xN2717d/wvztrbb78d9xFsPMdrent7w11jE5HZgz1aREREpMIMDAyEOHv22WfTHXfckb7zne+kb33rW3EfwYeAI21SRGYXOmoiIiIi08D+HLX58+enJUuWpOXLl8eG8MIxa6SkR5ISiTjbvn177A+XjRRJ/gd3jZRIEZn5KNREREREpoH9CbVDDz00rVixIp188snppJNOSnv37o2tpDOS4giINR7fuXNnev3110OsUSmSVEhes2DBghB9JY3SdEiRmYtCTURERGQa2J9QW7RoUTryyCPTddddl2677bZw1xBvVHnERaPqY/McNijuGgVHXn755XDXqBTJ4/wv5fytDCkyM1GoiYiIiEwDlN5/9dVXQ6g9//zz9UdrHHLIISHOrr/++nTzzTeHSGMrlR0Ra7hjuGYItiLaEGS4aVSExF1DDLIh7HiO/+V/+N9S0l9EZgYKNREREZFpgFRFRNrTTz+dXnnllfqjNSi3z3bJJZekSy+9NC1evDgdffTR6bjjjos5a2Wh6127doUAY2sGMYdIw1177bXXIiUStw1Iiezp6YlNRGYGCjURERGRKQAnC6GEYGIdtIcffjjdd999adOmTZGi2AjOFyLq8ssvD6GGaEOckRJ52GGHpSOOOCLu8xhz0HDGqAbZuO4aLhuP4abxvog2nDbuI/BK+iTvRVqk7ppItVGoiYiIiEwBuF7btm1Lzz33XLr33nvTXXfdldasWRPCrVFgAcKJ7YorrgihVh5DlCHSVq1alY466qjYSIdk34g9Cos0z11DIFIxEpHGvDUctjfeeCOEGvskxZL9uli2SLVRqImIiIi0CRwt5oy99NJLkeaIg4ZIe+SRR8JJY54aZfSbxRWpiThn11xzTbrooovqj6axeWUILBy3Uh2StEgE1+GHHx6Psz+EWCM8hmhD1OGoIRARjgg4yvnTVvbLe4tI9VCoiYiIiEyS4mIhgBBDjz/++JhIe+ihh9LGjRtDpOGkNYs0hBgiDfF15ZVXpnPPPbf+zEfBSWPu2sqVK9Oxxx6bli5dGkVI+H/EHwKxVHhsfA/aRSXILVu2xIYTRzokAo4US/bB6/nfsonIwUehJiIiIjIJEDkIISo5Mg/tZz/7WbrnnnviPgVEeK6ViwYlvZH105ifdvHFF8c6ap8E/1dK+p944okh2hB7pUIk4qw5vRJ4DHeNZQJw/Uo5/+KulSqTInLwUaiJiIiITABSDRE5OGiItPvvvz898MADIdCeffbZqOyIy9Us0hBmpDAisk444YR0xhlnRLVH5qedcsopMSftk0BM4YThsJEKiUhja557VsRaeX/+3r17dyyYzdw1Co7gAjLXjXYWNw2XrmwicnDoyB3348M7IiIiIrJfKIFPNcd169alp556Kj366KMh2hBCOFRsrSBtERfszDPPTGeffXY655xzokgIQqtUdTxQCONIuyyVHlmnjTRL5sfRrmeeeWZsXbVGSooj74Uzd8wxx4RIvOCCC6I9tI35b4hBETk4KNREREREDgDmdCHCKMZB6uD69etDCCGMEGyIJBy0ZhBEOFO9vb0hjM4666x03nnnhYuGUEO0IYgmOzcMtwyHj4WvqfaIq4dgQ1Bu3rw55siR9tgMbcPhW7ZsWbRl9erVIda4z3w4HkfMTbZ9IjI+FGoiIiIiBwAijTL3CLTHHnssKjnipBXHipCqVViFEKIyIw4Vi1eT4njVVVelyy67LMQQz7dLBJU24LIhzlgagLbi9lHgBNHWCt6/CErcPdy1Cy+8MObMccvC28xhU6yJTB/OURMRERHZB6QvklJIaX2EDlUcWQsNkYZrRTEOCncgjBpB1JS5Yo3iif0h6nDlEH5sOHUIIAp5TFYINQou2oBThyOG0GI+G2KR94EiLguljWUeGw4cxVCYz8Y8Nl7PvinnP9l2isgno1ATERERaQKxUsrt46IhzBBoVHPEoaJ4CM8hshrFDuKIkveIGdIc2U95TSmhj7ijTD4CEEEEiLoyN62IrcmKIdqBMGP+GZUkWXeNFEbaSJtIgyzv0fgZaCcuIZ8bMYqoJKWSz0I7SZPk9eV/J9tOEWmNQk1ERESkCeagMcdr7dq1UW7/rrvuCkcNgYWIQei0goqNp59+elq1alU6/vjjQ4zx+mb4fx5nPhmCiPdDOOFoIdgaHbnJUkQf4pHUS+adUXGS4iXMm0OY0Z5WnwlBhpOGu0baJMVSSpVI0jnZ2IeItB+FmoiIiMx5ECS4W4gQxAgVE3HQWKwaNw3RxpyvkqpYKAII0YP4oVoi66Exx4u5XjhRZXHpkh7Je/E3woy0QkQQ78tWSvnjXrFvhFA75rCxDypKlnlypEGylXXTEIa8L23klg24RajxOd58882xdvIYn4HnaRv7L5uItAeFmoiIiMx5EB24ZQgy5qHdcccd6cc//nEU40C4kbJYhFYjiBwE2WmnnRYFQm6++eZ06623xpww0gwRXsxLQ5CRStkMQofHSS+kaiQOGxvvh+hBALZj7lqBfSL+2C/LBNB2UiOZy8ZziEfai1BshHbyGM/jALIGG8K1iNBDsgjEWWPf7WqryFxHoSYiIiJzEgQJwgOBxpwz0hwffPDBcNCo7Mj8LIQIr2sUaYgRXLSjjz46nXrqqVFmHxft0ksvjbL2zAdDpOFgMZ8LF6uU5kfYsS/2CUUA8TfiDKcKx4p5bEXckWaIGEJIMe9sMhT3i/bQPj4H7WP+Gg5bmVtHO2kb713gb4QnriIbLhttfD+3dyC3ezBv+cPU2lmfbyciE0ehJiIiInMSRBpzw1hrjDlouGj33XdfiDbS/JpdpQJiBmFz7rnnpmuvvTbddNNNccv6aKQ/FlHGayi/z8Z9HitCB5HTijIf7IUXXkgvvfRS3Of1CCeEFWKqneDWsc8TTjgh2kn7EZnA94NgbAXCks9AVcjXX3klvbd9e+p///3Uk59biDg94ojaC0VkwijUREREZE6AI4QzhQvEItVUb6SKI3PRuE/qYXGxmtMcmcNFuiBFQlhX7JprrokNFw2BQxGRUgQEcK6Ke4UDR2rh0qVLI80Q0cbfCDrehzY1vh/t5G+EIiINsUSaIemRJTWx7Le830RpbCf7QoTyWSiEQjv5zDwGvO9HxGtuZ2duZw9b/s6G8ne3Kwu3gXw78sEHaZD0zfyy7r6+1DnJdorMRRRqIiIiMutBDJHGR1rhK6+8EkVCEGh33313evLJJ0O4UYWxFPMo4GThOpHCSLVEhBlz0a6//voQbGecccZYaiNipxlEEM8hepgPhgDCwUKolVTCItSaxSHPIRyZI0ebuY9Q4/8QaaRB8p5sRXBNBvaJMFuxYkU6+eSTx4QajyPQ+P64Hft+8m1ffs++/FgHAvLNN9N7L72UhvN3PJq3rvy5erJA68tCD6FG66KNk2ynyFxBoSYiIiKzHuahMe+MOWiU27/zzjujsiNFMUpBjFYgrii3zxy0T33qU1Es5LzzzgtnrIiYA6W4YIg+5rchiKjASKohzyHCWgk2oH3MYUO0sVFwhHYjnEiJxA1DVLaD4rDhELJYNm1l4/MiDnEced+hLCQX5tcdml9/aH7/uM1/L8ht7cyicjS3kS0r4NQ5MJB6smDtQLDlWxH5ZBRqIiIiMutASJA2iAuFGGMeGiINJ400R6o7InhKmfkCggeBguuFkGIeGi4aQo2iIWeffXaIFsTReEQaFKGGMCMNkvfgFgGEa0ebcd+gpD4CDhb3EWqkP+IKlkWocbkQVnwGbtsh2NgPW/kecNZKO0t6Z09+j67croX59QvzLbPaEGmL+D9EWRaR3bhq+fuP+/l77kOA5s9R9o9oy3d02ET2gUJNREREZh0IMMrI45oxD+32228PJ40UR9woBE5jimMBIYJAYz005qDhoOGkkeKIu8Z8LQTXZEGoNBbyQPxRyKOkRCLK2FrBXDEEKAtQ8xkRnLhxwP+XYiDtoohLXETaSVn/JYcemhbmx7vy99yVBTEC7ZC8LUKs5Q3RtjCLsgX5e+59663U8+abqTcL5pRFWweOW/6eO/J3OSbWRORjKNRERERkVkBKHoKFSoQ4ZrhnlNx/+OGH04YNG0LYlGIcjSINIYLAQYAgyEq5/csuuywEG/PKSFdEWLVDpAFCDWeKVELeG4eulMkn3ZD34jnaRltpcwF3jb+LmMNZo+AIFSwRoHwPPM97sA9uJwr/W5xARCpbtDMLzOW5nYfzd94Oy+1FrM3L70sKJPdDvOW2HpLbMx/BlkUaaZCjpEVmgZcbm0b5LfL7INwUbCIfpSN3/o8PJ4mIiIjMMEgJxC179NFHxzaKcFBqvxTsaAVuEZUOL7rootguvvjiWAsNB400wnaJs/1BOEb7EFgUNUFcsp4baZosF8DnKKmQjRQhhehD8NH28jkQnVSp5Ll2QTtLW/fu3p1eevrp9PKTT6YtTzyR3lu/Pu3ObT0sP784t2lJ3rhdjGDLbViQ73fkLavQ1HP66al79erUc+65qeess1JPvp8bWn8XEQEdNREREZmRFMGAk4SYQdzce++9Uc2ROWk4aIg3HKZW49LMuzrttNNC3JDmyFpoVHIspenb6aB9Eo2Cq7hXiEfEIreISeavUQmycf4alO+Bx3DUyrw81mCj4AifH8HJvts1f620tbevLx3KHLbczqXLlqVDDzssHZ4FI2mQh+Q24aiRCsky3SHD8mMdeRvlN8mCdDi3c/Ttt+P+KKme+bN05DZ25O9AZK6jUBMREZEZRQiToaHUv2dP2pUD/Bc3bUprH3wwBNq9992XHn/88VgsmjRHhE0BgYEIQoDhPuE2kd5Iuf3rrrsuXKhTTjkl0hwRRbx+uuE9EVOlmAnpmEWo8Ryiq4iyZvHJY6RB4iqS/olQw53j9aRAFhGIyGJfk/187GdBbtfhy5enZVnccntIFmqH5O+uN7eFOWpsh+TX9fBepb0Itd2700gWaCObN6eR3M5RFgDnt8qvzY2sVYZEtPF/k2ynyExFoSYiIiIzipEc/L+VA/yXn302PYFAu/PO9LM77kgbnn8+bdm2LeZttUoTRACVeWiIMwqF3HbbbWn16tXhXCGGJus4tRNECsKqlPOn2EhpJ6KLqpbFYWsEAUeqJ0IVZ43UT4qOlHXiKJiCEGUfbSG3E9HWkwXwgmXL0iEsOUBlzHo1y578W3Tm9ozm7WMg3vgMO3emkbfeCodtJLczK9JIhQx3DdGmWJM5iEJNREREKs9IDuaH9u5NeyhPv2VLzIt6/pFH0lNr16anH388Pbt+fXqTVL89ez4i0hBeCBNSGRFp559/fpTbv+KKK6JoyDnnnBOOFamGVRJpEOInCzUKjdBGinhwS5l82osgQ2zxuiLOgPt8Bwi5Us6fYiO4bTyGAOR5BF55j8kQ7lzeT3cWZfNyG/sQaLmdfTiTue28R6yfVn99bmj9Tia3taRBxkYaZBaYkQaJ88Zr2T9b+X0UbTJHUKiJiIhI5RnIwfvurVvTG08/nV5csyY9fccd6dkHHkivbNqUdrz5ZtqbhdxgDvpJdCTBriQFkuKIE8Ui1cxBw0VjPhquGo8frBTHiUD6ImKNOXSU9GexbNw22s/cNIRYK3DReG7z5s0xb4/USP5GqJW10toJgqorC7Tu/P12H3103HbmdmclHE4Z7lkrsTWaxSPVIMNZe+ON2oLZ9ZRIXLXOLACz6lOoyZxBoSYiIiLVA6clB+jD77+f+rPA+GDDhvT2Y4+lNx59NL2eb7ci0HIwv+uDD0KkDeEi5X8bzkF8Jy7UokVp5cqV6ayzzopiIWXBagQa64EhcCZbun66ieIdWbDgsCFASYFEZFHOH4eN59igscolt4g13DQ2CoxQcIQiLKw3x3PMfYMyh20y4K4h1jopxpLb1ZnbilDrzsKyg/XTEMf1cvz8xjhnQf4NE2KNtuR2hbOGoGQOW/47DQykkXzLL9aRf7sQbSKzGIWaiIiIVA+CduZgIcaeeCLtWLMmbbnzzvRGvv9WFmkf5gB+oFGg5Y2EupEcvHdlgbDsqKNCoFEk5NZbb410R9ZEQ9ggZiYrRg42CCqqViJGTz/99LGCI4gyxBjz00oqZCOIMkQa7hpry5WUSAQr7hr7KGKvHVC9sZM5dUcfnbpOPTV1ZVHZkUUbqZAhyLJoZC21j0HbP/wwjWzfngY3bgyxFk4coo7fj320sZ0iVUShJiIiIpViZNu2NJSD84HHH0/9a9emPXn78Nln04dbt6a9FMTIgT0CDRmCg8Yt2+IVK9Lxp52WzssC7eprr03XXX99pDwed9xxMa+LwhYx12kGuWj7onyOMscMkYVYIx2SlM7iGJbFvRvn7fE3gg4hh5PGPDYKjrBRcITH2Cf7n+z8tYDvG5etXhwEkdWZBVtsuZ2x2DXCnA2HrcDfCDM2nLbctuHcxpG8xXy2LEjjl2TfijaZhSjURERE5KAySiCeRcPo3r0RfA9u2JAGHn00DTz0UOp/+OG09+mn094tW1L/hx+mwfy64p4h0kazkOii9PyCBen41avTmaQ5Xn11uvyqq9LFl1wS87lIE2ynS1QlEGoUQUGIUhmSqpAINT5zqQzZWGikpEMWsUYa5LYsjKkOydw1/kbUlTXkeuuCrWyTpSP/Tl1Ll6au3M4u5q4tWlQTWbQPMdks1OrE3DXK+ed2Duf2juZ2lsqQzH0jFTLaVzaRWYBCTURERA4qHVmgjbzxRhp69tk0uHZt6r/77jSwZk0afuWVKCzRyfNZVCAxSpojG07MwhzwH5UF2qlXXpkuvvnmdNENN6QTTz01HZkfX7BwYYiVuQJCBdFG+iKCjXXYuEXE8Tjz0RBurUCcsawBrloRbh+8+24azsKpLwspHLuYe9YuEZT3FXPYliwJZ43UyEhnzI+Fe5ZFGAtjN4q1EGD8nds0StvyscFxM0LBEeau1Z21qA6Z74vMdBRqIiIiMu3EvKS6SzL82mtp8Omn0+Djj6eBRx6J+0ObNkV6G65JZz1YR6iNEIRn0dCVA/xDjj8+LTv77HTcxRenUy6/PJ1ywQXpxCzaDs/Pzce5mUMiDRBRpCpSWIT5a8zHK2X9SYUslGUIGuewcR8hRxokc9je3rEj7c4CaHDXrsSrWbCaqozItK66yzZh8v9GGmRfX6Q+dmQh2ZnbGe7aIYeES4boCrFVF2ZjFKHG3LZ8fEShEdIgKTyCI1cXd7QvnLrJtFPkIKNQExERkWknguxt29LgU0+l/gceSP333JMGnngiDb34Ys0hIehuAKkWIXcO5KkeeFgWaEdecUU68cYb08os1I46/fS0iJS6yYqIWQTpnrhpFBw55ZRTxkQbApaiIqyvRgpkMyNZtH2YhdD7W7emHS+9lPZmMT2QX9uZfxP2uTALwBBSbQIHjJRInLXu3FZEG0IcoYWgH8niMQRaMzhvuK2I/c2bw33lPtUhs2INty7a6fEgMxSFmoiIiEw9OB1ZAIyQspaD6khzfPLJmIuGgzaSBQGpbFT6+4hII8jOgXxXFhjdxx6bes84Iy04//x0eBZni/Pt4ixAFh11VJq3aFHqVqR9hJhjlsUODhuOGre4bCz+TXok7hvPl/lqpeBIZ77flX+r7iyCOvPvwW3K4jmqLua/eW4Ep5PvOr9HZ92hmzB5HyHWSIVcuDBEG5UhO7PwxmGjcmSU9Ud00cZyfOR2x4LYFEwhpTNviPyyaHY4bzyeP0/sf7LtFJlmFGoiIiIy9eB+kOr42mtp4LHH0sD994eLhqPGXLQIrAm6m4gUuSwmelauTPMuvDAtuPLKdNj116fDL7ooHZpFWi9VAxVonwguGiLt2Cx2V61aFfPXSjokpfxZMLuspdaXv8uFeTs0C6NDshjq+uCDNLBtW9qdxfQgcwbz36Sj9mVB1Z03lkNoGwi/LCI7jzwy9eR2dmYR3omDl48B0mBHs1CMNdXqjP3uWYzxXCyW/eKLaXjr1poTh7uW/5e13BCAIjMJhZqIiIhMGTgeUSjk+edrc9AefDANPPBAGn7hhTS8ffuY89EM7kdXFhPdiLELLki9V1yR+q66KvWedlrqzsF7F8F8DsBjLpIi7YDgeypVIks5fzZEWyxf0NcXv1dfFj3z84ZQY1uU/29R/v+FPJ6FT/fOnakri6CuumjroPBHfl2I6rzlN6q94UThN837i7lqiHDE+JIlqTu3szO3kzmK8Xxuz8eOHVIkEW35c3BskQo5mo+zcNpw14aHa21F+HncSMVRqImIiEh7IYAmUN67N+aiDa1fX3PR1q5NAw8/nIaefjrWwwpnpKSxAQF0PQWO4Lzn9NNTz/nnh0jrveSS1JMFW5R0Jz3ONLYJUdZdw02jnD+l/KkMGQtd5+90OIuunvybLMiC59AsZHDUiljj/jxSH7NA69mxI3Xl37Cb1Mj8W3dSHp/fjt8FoYVgmyzsJx8LXcxZy+2kpH+4bfXKkLGR3og4y9tHBHv+HDhqrLk2tHlzpGzG8ZY/C6maFDKJ/Zf/afxfkYqgUBMREZG2MpLF2fCWLWnwmWfCQdt7110h0CLFMQfPCLhWMB+pc8WK1HPmmanv8stT33XXpb7LLkvdJ52UOpcvrwXoBtRthZRI1lxDsK089th0VP7+VyxZkg7L3/WCLIRwzIqzdlhdsIVwy/+7MP+O83DWcEazeKNkPgIJtwpB1dbfKu8r1kpj7lo+FnBbcdkSoj6LNNyyItga4bkQc8yxy20cwV3DZcuijdYx9y0GCNohLEXajEJNREREJgfBMA4ac4SowJcF2eC6dWmIVMdHH03DWbANIdIoo54D+TEI5HE3mOeUg+6uE09M3atX11IdL7449ZxzTupCpOXgPNbXUqS1nZIGSYERSvpzuyR/34sPOywtyOKlL4u1w7NAOiR/94vy7xxCjfsjI2nhwEDqzb9pJ9UjSS2kkme+DXGU90vFxhBDiKAshiZDpFXWBSDHQ8xbIyUyb6RHhqPGsZRfO1amH4q7u2tXTazRVo5Dtvx4CEBez7HF/0+ynSLtJPclepOIiIjIBMnBcFRzLHPR1q+vVXLctm3MvRhlLlFzyJGD4gi8cdHOOCNEWs9ZZ6WuY44J1yTEGXOUDJ6nBao+9u/dmwby77Uni+7NTz6Z3sjbrg0b0sBLL6XOLVvSoiy0F2dRszj/JjhsrK+GK4eIinTC/Jv1nH126s0iu/v001P3qlWpa+XK9hbyyMcbx1M4s3mLYy63cfDZZ+M+SzwwaPAxcntLai3tZP5j92mnpd4zz0xdpNnmv2MdN5GKoKMmIiIi44dgGacCB40FqxFnTzwRC1YzJ2345ZdrIo2AGceigHORA+aupUtT93HHRTAfDtoll0Rwj4PWtWxZCLgIqnm9TAsxfy0Lrr7589Mhhx6a5mVxdcjhh6dFS5akRfnvhVncLMrPI2UW5N9lfv5dKdEfDhrHQhZNURyG+WE4bMW9ovJiFlZRxCNvOFeTgvesC64o35/bS5ERUiHDfcV5I02S96JtDBIA93ObcXWjeiTtxQUkHZe20k6ey6+Jtub9iBxMdNRERERk3IRDlgPbcDGefjrK7A8+91wafv31NEKwTspZqxCD4DlvzEPrPe+81HPuuSHWSHukhDrP8V8KtIPPKE5pFmD9WcTsfvXV9MGTT6ah/DuPrluX+t56K/Xmx1tShFQW213HHpt68u/cm3/nSGU96qjUkQVVW8nHWaQ75uNxmEXUczvjeMzbUG4389JawjGGIMttxcHtPf/8OB5pZ8yLzG0VOZjoqImIiMgBQxojhUKGSTd79NE0sGZNVHMceumlqLA3goPG3J8monpfDnx7SDW76KLUd801qffKK2upcStWRFBPwBxBviKtEvA74LJRJbF7/vzUu3hxmrd0aZqHqDnssFg/LeZ3tUprLeIJh6ruWsXxgdNGyiICqaS1Tvb35phhf2WfFKXBXaNCKHPZSLvkfTgumwcQuM9jOIIsmE07SdllTlt+LFw7Co6IHAQUaiIiIrJ/SBcjyEWk5WAbFy3WRLv//kh1pHBIpI/l5yPoLVBEAreCYiHLlsU8tN4LLwyBFqmO552XOo84IgJpq+5VFMQaQm3hwjQvC58+RFq+7c7CmvmDsaA0Gy8toqfAcZOPiai2mLehLIBGP/ggXh+CinltdZEVx8pkQaj19YVI68rtxM2LYiMItdwuXOCOItQa2wn5uZGdO2sLZm/enEY4lvPrOD67stgLoTdZQSkyThRqIiIisl8oFMKi1ZFO9uCDqf+ee9LAE0+k4Vdf/fncnhZQlY/FqaO4BAtWX3ttrIvWffLJEUxH8QmZWVA4ZP78WNuse+XKEDLhWs2bF6mSibTXRseqwHN794YYwpFlbiP3w13L+4yFrNsohMocsw6cP9ZfW7Ys2sygAbN+EIzxbk1t5bEoVMIctvya7iz44ljNn68tYlJkHCjURERE5CMQcHcMDUX6V5Tbf+GFcM1i0eq8sT7aSA62WS/tIyKNQLu7O3UsXFgL5LMg66GS40UXpZ4LLwzBRgGRKPigSJuRRJn8LFqieAfCh5RVfk/mF5K6ivOKoMEpQ5wV5yrfcqxEGuSOHSGCIg0SYUeKYU9PLdUwC6e2OGwItbxP5j0iJKOkP+089NDUmQVcOMQ4gtDUzvgM/f3hslEZkiqk/B/7E5lOLCYiIiIiHyEC6hxA45hRIGQoCzPSHSnUMEp6GIsLM/8oB7WN88lijtmCBSHGuk47LUrtI9QiBY05Q6SgEYATiMvMB2eKOWgcD1l4DWVBP0Ahjw0b4v4oc72yMCsQcsbxgoijKiMuVT4melatSt0U8aCoDCXzcepw2NoF7WQeHW3duzcqkg48/XQa4timnD8VSt95p/7iejtzu3DiFv7f/3fqvfba1H388c5Vk2lHR01EREQimGVOEXPQWLCaEvsxD41y+wTeLFhNqloOykOg1f8tAu8svkgtI5jtPuOM1HPBBanvsstCpHWfeGIt5QzHpe60yCwBwYU4Z15Y/n1jriHOFemGeYtCHDwPOFWI+8LQUIi8KNqxZ0+tjD8OWxZ8kQ6JqwV1d61xQGDc0E72gThcuLCWukn7cAVx2xBgtJP34P3yfY7lqEzKwusnnVT7P45fkWlER01ERETCISNApvw6i1VHifONG8N9iKCaQHtfIUNvb638etlwRlatqqVBEvgqzuYGHB/5OCmVE8Ndo0Q+2xtvxFzHlsdQXSCFwKNQyTnnxHHEMRVubBb6bT2Gchs4nkMg7tyZBmjfE0+k/kceibRMUh57L798rOhN9wkneAzLQUGhJiIiMochNY3glEp3rIHGmmhDmzaloe3ba2mOpK4h0ppgblKkMx59dOpaubIm0E47LdajiscPP9wUxzkKgp9iHFHp8bXXYimHoRdfTIN5o5AIZfpDsDWHoFnwkx7LMcQx1X3qqTHPsStv3cccE65tzBNr13FVd/XCRc7HP8c9zh7OX3c+lnn/zhUronKkyMFAoSZSAWLiPqPZ5NBTbYrbVqPXpF2QvsGFKm+RUuJotciMofT1kXpfj0CxnuI11ovpz2y4UfRxKte1ua/He5KGNjAQgTPz0AbXr490R+btMBetJeUclNvUjUBbtSrSw7qZi5Zvu/JjIo3EXEdE0MaNaYDjC/dqw4YQcyMlxbFFKBoFaY46KuasRUGac8+NtNpOUhCZ61jc2jYRywjgpjE/M7eHdF3SOCdM3kf0s9LP2S/9v+mzjubPQP+OPl6u6/Qzr+uSUaiJHGzyiTvy9Bl5fOWVmLzPqHas4cIJvoGoVrV0aW2iPqONOShikdix3HoRqS4EbgSnORgcyn2cSoqM5FNVsTwfELRlIcQ6ULhV3SedFAIoFoRuQ9W5SHHEKdu+PYooROGHdetCnNGemCPE+aeZHFBGpT9S0044IXWffnoUCwlHDdeBOT8WW5AmotR9vdgIVR5j7uMzz8QC6VzvhrZsibL9H4N+kI+ncG7zsdXNfMcs1FggneOPa2BbjzcGUHI7olJlJgqdTLS/0de5rr/zTm2+J9d1lrIg1TI/3gj9GgeaFM+4trOUAAKR9/a6PudRqIkcDLgQcFEgWKL0NQts5sCN1BC2sRP6wEfXJorywpS8PvHEmOjcxUk9B0mkicSkaESbJ3aRShFpYDlQjYV0szjCwWLe1+Dzz8c8nihVXg8OIUbXSQHDTSCl8JRTUid9PQukWAuK/p6fjwGacUKgHOtYESBzvnn22XA6BrNoTATTTeec4uJFoQjmDzFAlIVjNy4aTkcOmkNAEtSKHADDpEJmkcb8x6goumFD9ItYtwzB1jRAWaASZBfFaqgKWQYJcp8oxUGiTxxMCKdzP47rOgKN/k5fz30rRGneolpqC6GGexefjcI79LEs2jpyX4/16ehfbXQOZWahUBM5GOQLESfswbVro6IaZYJHtm4du1BxImfUuzlFIgKznp7USVBUH2kkj773ssti0jUjjiHUFGsi1SD34eHctxlV77/77ijQQQCHYAoXAbeBLb9urNfSf0mHIvDMG2leBGwMzFDYYN6NN8aATaxbNU5wMgYefzzK7SPQYr4QlfZoC2KxQTACDh6V8qJkej04jnlDuS0xOISjQZqWgaQcIHF9I83w3XdjgDIKeeCyMXBRnxfZEgYvEGT5uMd96jnvvFpV0XwNjAFLCo4cRMrUhcF8Te9/6KFaEZUsSqNKKtf1ffSx0fp0hriu543relcWbFHM5Pzzo8+ZNTN3sTy/yDQSAVm+QLG+TIi0Bx+MxWOHCZi4QJFyxIg2Aq0+DyRSnQiE8hb57pzwEXSUMs4XNPL/Y+PxvP8YjediVh8JF5GDQO7DCCCcq8FHH00Da9bEbYijbdtq/ZfADeizbIiiEpARzDGnhb7NaxFTiLsc9FHOHEc+So3Xg7xPojh6A7TlgQdq89Bw7t955+cBZMPAEPuOcvs5YGTuWV8WiD2XXpp6SD07/vjaQsfME+Lc5HlGxkEc66VMft4inZa0frb63LM4pvIxHsdkOS7z3zHPC1eKjetl6RtkoHB9zMdxJ/8/jdc/3pf3D5c8C7T+3L8Qa3Fdf+ONWjtx0XLborw/AzC0kY3+mx+P6zefqXye/D+J6zyfi+t6/izMzYvPZH+bUyjURKYTRhKzuOq/6660+y/+Ig088UQaIVgiUCoXo3rgFXn5pDwguubNiwtbvIaLERBYkT5JMMhinYzS531HCsWKFbULgqPcItNPPbgkxWtg7drU/5OfpD1/93c11zwHXtF360TfLutPlRSu3P9HCcZ4XenvBK0UZciBH/PJIIod5P+N9ck+AVKso5jD/fenwbzRlqjmyH5bQLpVL+uhXXRRmnfddan3qqtSb75P+mW0k/OLyETJxzfHEOIj5jwec0w4xszDDgGTr4kjWahEGmRDfwmKsCG1MPcHBhxSfZCzCMBwoqfrGEU85msvAyBc10Okvfhirf1N1/UQpvkzRn8v1/VMiMz6eSMEKX2dFFHmje7YEdMecBHDabfvzSlMfRSZDhBUjLht2pT6c5A08PDDsWbLMCPjjJbliwoTiEktIj+dcsBxwWHkDeon8EgZySd/JiZTBICc99F3342TfMwfyfuYd/31kTLRffbZtfQoxZrItMJoOIMn/bmfD9xzTxrM/Z6qd0BwVopxsNZYB3NQEGoEX/W+StpzVIljECYHozGPjMEY1qDKQSqv5VxBWlTvDTek3vPO+3nxgX0wRNW99evT3h/8IPXffnutWFERgXWiGMiSJbWg+aSTospezJvhfLR0aTwvMhXEta3u+sZgBHPXcr+J6xzLRuTHPibYMpF1Qp+i8E4+TulTzGHj+O3iOM5biKSpuA7WBSNFwBgA4bqOSBtBNObHaRuuNC50J/PrKAjUIM6Ccl3Pnz2WMeDajsij+mTun+Ey5r7Xd+21qffqq1NPvq5znXcQdu6gUBOZDvKJmJGx/jVr0u5vfjPmqzDZOC4g+cTdRYrROefE3BPKXHOhiZGz5pMxqZP5AoATRwoT+2Pkrog19heLzl56aZr/uc/FvJK4MHhSF5kWSFMayUEl89H6s0jrv/femmOewS1DpJFKyLzSeTn46iCFEBehmXxp5hyBwEJYkSZNQYLo6wzuEJzm/13w9/5e6r3uujhnxH72kRYVJfgRan/zN2nvj340liYW5xkcjBxUMu+MNasY5Im5aKtXRzU6R/BlWsnH9yAVkJkiwNy1+uLr0Y9wr8qx20RkojB3jaqQlPNn0ezzzqs5wIijfJy39VjO7WTKAinNXNcjnRiBRZ+iLVzXs3Dsy9d1BlWY28njHxNZ+fPQp5nTxlSIcL3zvmJqQ/68nAvoj70XX5zmffaz8bmYy2a/nBuY+igy1eQLCimJA0wuXrs20pbIQ+dxRsG5qPR95jMh0qKKFSODOaCL1JDmoKuki5DulC8CUcY3n7Bj8VBO6JzwsyhEGEZKVL5AdS1eHAJORKYYUpYQV88/n/rvuCMN5r4eRUNyoEWgSNDYd801af5NN0XgFn0999+W/ZO+TmBJH87ijnTmEGE5oIu5arhuvB/pXvmWc0E4c4iu5vMG5PMNAzZRZTZvnCeYG4O4C3ePtl15ZbQvRu2Zh4bDtq/9iUwV+XjrzP2FAjoMHjC4gasUlUfz0yFeuM61gv5BkZLNm6MwSSx9QeZK7oP0NQY42gFVWsluQaSRJcN1Pd4rX4NJ36Td8267Lc279dbUm4VV9M99zR3nbz4zRYPo65wX8meln6a6813m5kUpf9In6Zsl40ZmNQo1kamEUfF8cuWiERXfSHdkzZgcWHGSRaT1MEr2qU/VgqN8guZkzkn7YyINeCwHdZHnThW4JUviMYRgjDbWUy44qUd1LKpHkW7RahRPRNpH7uv0O9K1Bh9/PEbFqWhH4BhV3HKgxjyveQihLIqiXxJo7W8Qhb6eA0v6eZTp5jHc+frATAzKUGwgvzfzV6IoQz43tOrrnE9Gs+giuKRNvHcX814QafncE8VCcruoohcDQIo0OVjkY46BjZinvWxZbX4Wx2M+thuFVlwj87E/5q5xn36RhRmiiTmYiLYovoPg4fW5byCWQjBN4poYaZpZCOKak+7Iuogx+JH7DK507wUXpL58Xe+78MLadZ05abxfq/7E56VNCLX8WcPFztfsSHXmfSgskvfN/Na4rjN4Qx8lVpjEZ5CZgUJNZCpBqG3dGgvK9v/sZzGZP0YC80mYUTdSIth68omdOWZxEWl1Im8BJ3ZG4Ai4EHcx+fiVV8YuXDHSzgn9pJNqI3mOvolMGTGvLAdVMVeFqoqkJNdH8kMMEbhdd10tFQtnYDwuN4EcwuqII6JvR4VYBmTy/iM45HkCvHwOiZH7Vvvm3JL30UlKVn5trIVGelgOJCkSwjy3EI8Ewwo0qRDhri1dGsd2LHLNgASpjPWUQQZDWx2tXAOH33mndg2m4AiZLPWBk7gmMoA5weOcLBYGZQYYgCVLJreBgRUGSnClcdNIdWSAJQZjxnFdj+kKeYtsGYQa13Wu6ZxjcOxyP6Yaa3wOruv21VmNQk1kqsgBGrn0Q1mkMcIeOfZvvRUpE6Q8cRKP0XVSoBgtzyfcAxVpAa/lApCDKi46pEmM1N26SIPMG+kTLBIaI5Ot5sGISHv48MNwuvrvuy/6e6RB5b5OwEWa4zwKAZx1Vi2FMffb8fZ1xBf7ivk5e2prUDGiH24CgzYlVSwHcCG08mMfob6PCCY5H+RzEMKMhXVpE4FwFDDiNeNpm8hUw7HPsYm4ysduV76WcayHUMnCiMEHjlmEWcBgJSBucKLINmFQg4GTLHxijdL8NA5WDGDQXw6U+r5jkXiu6w1ZMswZ7WYqQ+7rvZdeWruuIygn0tfph/T3LC6p/oggjes6bnh+PK7r+XtAtI7rXCIzDoWayFSRT+gd+aTaz3ppeYs1i7hQZJj433fFFVH6Oty0yYxg5/9lhDzmxrB4LRckUj4Yac8XtkgdWbIkRiNFZGqg8Ad9PKo8PvNMrf/hYOVAioptfbfcEn0xRssn0tf5n/p5Aic9XAIceiB4ZGAmB4akLsZ7ELy2IALeHOBFOiXzfvK5g/PEx4SdSMXgOkm6H6mEVHPsPvrosUHOWF+0zN1k8KJO9DUEW+4fVFJkMIV0yBiwICWxLgDHRX6PmJtGMa+XX669b4a5nrFI9cUX1yq6TsKxi8+a+ykVZClOxEAQgzORKZM/LwXIwmXEBbfvzmr8dUWmiEi7YNSbdVByUBUpj/nkyyge80l6GV3PJ9oIkCZ4MocYeSOdKQsxKj5GehT7y8EbOfpR6pc5LaSJNFzARKR9RIXGl16K2xjZz30tCnWsWlVbcoN5J4yuT5IoEIQLlrdu0hxzkBlBKEIx93PSImNOzr7I54YI7MrGuWIS5x+RaYVjNR+3MQhJOX7mV958c5r3uc/VKiJeckkUwmGw4iMwmIFgy8KHa2Isl1Hvp+Mh+lreR/SzLKBKymO0J/fHUhBsstf1+Ixc18m+OeecKDJS9hdL9FAVk7gCh93r+qwmH0kiMiWQcsE6SDl4Ym2YMtGY+SmRa58DuJiXNlnyyZv9kr4U5bQRavlvHueEzry1GEUkZcITukj7yUEgpbRj4XlG60lTwlHP/Rv3nPTCSFNi5H+y4CiQqnj00bXRdNK3hodrhRNwDHLwVpx7kdlKiBhSfUk1vOKKqJpMhUVSjBkEjUqRpEYyOMJgZp0QWlyP6y7YeOE6HmnH9LX6XNFIVWQAJb9nz6mn1gZgJwuiLO8X54zlPEL81a/rUaCsvhg2n8cB2NmNQk1kimBBWUa5I12BSmvkxeeLBo5XpByV/PU2EQLwmGNq+yZ4yyd5LiLMlYnKV/XcfBFpI4zSI5RyHwuRRHU5YEScFEOK+eS+XkbDJ0s46Pm8ESnNlC7PAeKYW5AFGvNlYvkPkTkE6xF2Z0HTd9NNad4v/mKa/4UvxFwxiuaQflzA+cLh7qLvkIrMtXI8IPS4nlJpmWqMDMqQ4kwqMfs7/PDon+0iBCALdxM3UIQIsZbfM5bYoA3EFrRBZi0KNZEpgoAtRBInc/LnEUn5BB4L3JIGlU/A+5pHMhFiDZYiABlJrJ/QY74agZsndJH2w2g2wVvuYzjXUQa8pC0h1HC98m3bIKUq9+1wE449Ns4jAa4e5xxG+XXUZI6BiCFThSJdVDFlXmjvNddEUQ8cKYrsxJafpwIrTjf9crwudwx+7thRc7Bzf4vCJAg1rr2INa69bbyuk8IZ8ULu75xPmOYQhUVyH4825Nv4W2YtCjWRKSLSDgma8m2kJpAKlU+6MQmYCfxcIAi62gWBISNu+WQ+dkLPF5G4mOQ2kFfvCV2kzeBkkQ713nu1EW5SnHG95s+v9cXicLeZqNy4YsVHCiGEi5+DyJg3g8smMtfI11QctHDXrrsuzfvSl9K8z38+9d12W2zzP/3pNC9vPeeeW1tsfpzX4CiXXx8MGbuu52st6Y5c18NNo/+3i7yvWOAaUZk/F+/FFIaoZEmWDAPBA/VqlzIrUaiJTBXMUWPEi5NoPWiKkywnXIIrLhBtSoeCyJNnZA+njlF29s+FhCCSE7qOmkjbCaecPk5/rzvn9PZw1BBr9MdxjtofEOybwI1gk8CQc0nu3wjGEfq6RQZkLkI/oO8tWlSbt71qVTho8xBtrGN46aWp+4wzYj7ZWL8ZD/Qxruu5v48NhpTrOn29zdf1aCOZOAsWxPSGGIAtg0MMwCIYFWqzGoWayBSBexUj2wRMhfoFpJ057GPkCwQBISIwhCAn+Bw0jhA8MgqIs9fYFhGZPIgh+jrBEgMh/E2gRuoxAyftHmGvE4M+OHUItXqRgSiUgHPOwExpi8hchf532GGp57TTamXz2Uh7ZNFsrsMTEVRUT+a6Tv+qE9MMEGm5L7bbx44FsNl/3neINc4lRajRz019nPUo1ESmiLGgqfGEjpAi7XEKUqEiUMsn9VFO6gRxjOwVGPkrm4i0DQY/GAwJR60ujgisxpxthBp9st3kgC3EWt53BG/1oLONY/kiMx/6BddC+ggb93lsIiItQx/nuj6Co1agv2dBGFMPJrjffVJvP309ziMN13XeaTRf09v8jlIxFGoiUwUndFysxtEuTuikSDAK3m7KCZ3AjRN6uy8YIvJxGPwYGKj18yLUEFHz59dSHxmcaQiu2gb9m/epi7S2B4gi8nHo482ZMlzXcejIZGl3P2R/nD/o617X5yQKNZHphJMsJ9ypCNxEpBLgW4/S1w2qRGY9MUjCNd3+LlOA0aLIFEGgFu5WgyjrYPSdlAkKEIjIjCeCtBKo1YO16OeDg+GyRbEREZkVxABM02BrFPfAaWP+mtMLpM0o1ESmiBBpTYUEYgIwJbxJnRCRmQ+BG/NH6nNICOSiaA9pz2wUGVGsicwKOrmul0qrBQZkWAR71y7ni0nbUaiJTBExN4VyuuSVF+rVmj4yb61d5H3HBYO1lBCCBIdlpJ8RQC4sDaOAItIG6FuUz879fayIz+hoGqmPsNMPY72ldsPoPRVdcei5z3uU0X76OoKx/lIRaRP5eh5FQ+jvdUq5/Lj+tttRY9+cS+jrrInKOaXxuk58wd8yazFqE5kiInijcEjzCZ2T7lSMsLNPihrs2lWrNlk/oRM4hrtXgkgRaR8NQi2CptzHIljLW6ypNkVCLQZ8qD6Ha0eQmN8jiphwvqG/18WaiLQR+nm+rnM7Bv2dwZIpuK7HPnPMgFvH+m28D+nWcV0vQs3r+qzGX1dkqpg3L3UtXlxLfywQXO3YEUIqHLB2jr4hAtk/bloO3kK4cTJn7RVKhR9ySK10v4i0D4Imgrfcz6KiKwMi9GtGvxkwee+92rzUNhPO+c6dtcW2C7w3i2Cz/AdBnAGcSFuJQRmW2Gms3Jz793C+rkdf57rbxut6nEvo46yZxvkE147rOhUmua43DQbL7MOzuMgUwYm8c8mS2gmVgCkHdKQqDW/fHvnsY+lKbYIT+EgJDhllx1FDmCHUFi0aCyJFpH2Ec4VQO+SQWEuJ++Gi5b4e6y29886UzEmNPv722/E+Bc45XUuXRmoWQk1HTaS9jPUxRFK9j8WaqQzA1q/rMQjbJriOx7mE/r5rV23/xBMs/8F1PW8fGQyWWYdCTWSK6GSEfdmy2ugbC9/mkzqj4Ai14Ry8ceKNk26biBF29vvee3FC7yAVKgeNcSJn48LiyJtIe6kLNURaB/2dgZmSCpX74vDrr0efbBvsOwtBgsKhLVtq55E6OGldRx8d/V1E2k8MwB5xRFzXw9Hq6akJtbfeqom1fO1t5xx0smQiXsj9vThq4dpzTWfwlb7uAOysRqEmMlXUHbVO0h85qXZ3x0l35O230/Cbb8ZJvXE0fLKQvz782mu1Efy8X0b1GWnrXLq0loJJOpSpjyLthdTH3K8I3LqPOSYGaID+R58ceuWV6PPhcLcjJQoBuHt3BIaIwHDrcM7qwVtnFmq45yLSfuKaSqZMvqaGg841FaG2c2ftup77ZTsddMRZXNcRgXv21AZgc18nrojYgkFghdqsRqEmMkXEyFs+kYdQ4sSeT6aRX/7ee2lk+/Y0lE++kcrQDnIAOJIvEoPPPBMXipJ+weh+51FHRRsQjpGqISJthz7edeKJtUIDCCdSonJfH3r++TSybVvb1k8cG+x5440I4MI9z8EiqVhxrlmxolZtVkTaD+557uOR/sh1PQs3BmFwzbkGD736aq3oRzvguv7OO2mI6zrnEAZpuK7n9+w68sjUhbOXr/FRUERmLQo1kSkiRtlJRUIorVwZOeVR8COLNYKswXXr4sRORafJjLSTdjGKm7Z5cxp+7rmao8b+CN4WL07dp5ySOvNJ3SpwIlMHRTy6cj+PtKj6HDHSEnG9Yst9vjFNcaJEymMWfzHKzpwYzh+MsC9blro51yxfXnPPRaTtxHU0X8tDKJ1wQq2vl+s6A7Bc17durfXL/PhEYX8xx5VY4dln0zADsFzX8/tzruk+6aQYhPW6PvtRqIlMFZxQmXh87LGp5+STa8ETJ9p88uZEPvjooxG8hdCaxEh75LDv2BEpVoMbNkShkqj2RvCWg8aeM8+MUXYRmToYZe/OfZ2+FilJjHIzb3TbtjT08stp6KWXJu+gM8L+9ttp4Kmn0vCrr0aKFQFdYoSdlEdSL5cuVaiJTBVc13HVskjqPvXUmAMOVGckm2WA6zopyfm6PJnreqzJhpuW+/lQFmrcpyz/2ADs6adHbMEC+zK7UaiJTCVZMHXl4ImTavfKlTESFiPtFBlAWK1fH6NlEwrgEH3kxm/enPrvvruWHvH++yH8CNy6Tzgh3DRO5s5ZEZlaokQ/I92nnZZ6Vq+O+WLhbOdgDZHWv2ZN9Hn6esxXGydRiIhzxrp1afCRR6KQCJBSTQpUz3nnpZ4cOEYFOIM3kSmlc8WK1HPGGanruOPGBmZiPhnCasOG6KdR3Xm85HNGFCfZti3OGQNPPBHO+Qjz2fN7dOf34xwT7j3va1+f9SjURKaSfBIlRaJ71aqYv8J9hBqltYeywEJcDT31VJyUYwIyKRQEd59EOZkz4rZpU+q/9940+NxztRH2vA/SMRBpPfmETjqUc1ZEppgsmBBniCVc7Ji/QvCW+yMj7IMPPxyONy46ayId8Hw1+jqj6zt3xv8P5vMFAzwUF+D8Qt8mvbrn7LNT10knhXBTqIlMLd2kGudrbDfXdeaFMleNwZR8LR/I/TOctS1b4lp/wGur8RrmoZHe/NJLaeCBB9IQfZ2BXK7r8+bF+/Uw8It7jptnX5/1dP1Opn5fRNoNgRSLU3Iy5QRMKhSBWhZZVG9CWMU8E07QpFRQfIRAi9TF/RAi7c0308D996eB++5LQ08+GSlRvAdVoEjBmvepT6We88+vpT2ShuUJXWRKoYeFOMv9OQZfcM8I1HK/jBHxfJ+gC3FFeuKBuF9RqCCfM0h37P/JT9IgI+ylYFA+V+De9V5ySeq99NIQbAo1kamHlMNOBl3ztZhteOvWnw+2kvbI9Zjrer6WR0YLjvsnXdeZl5bjgYEHH6wNvj7+eMx7i3ihPi+u7/rro6/j6Omezw0UaiJTDSdnxBoBFEEX5Xs5keegLTbWRqmf7EO85ec6GIHL9wNuCcp4zfvvx//HnJd169JeTuZPP52GXn99rKhA9/HHp95zz01911yTuk8+OSY+f9IFQkTaQA6aYq3CHMDhmjEwE4tS5z6dWDKD4gBUhCO4wiXLW0fu2+Gi08+5pe/z2nxuIEiLVKrcxxmhH8wBHEWD4v8I3JYvT32XXRaBG05eBIQGbiJTTlxTGVxlEJSBGa7r9Pn6Fmsnck3O1+3o09wv13X6aON1nfPCjh1j0yEYfB1ApDHXLZ9DYgrFypXh1Md1ffXq1EWWDOcZmfUo1ESmg3yijYWnEWuZCMKYY0Jglk/WVHQaee21NEgp7507a48T9HEi5gTPyZ9S3y+8ECfw/ttvT3vzNkSVR0bXEXl535355D0vn8gZdesmf37JktrFxOBNZOrJ/WyUvs7oOX0vB2OlsECU5899mRHz4RdfjMGWIuIYGWeQhtezBiIpzfzfwMMPp/477kgD99wT/T7WXuR8kM8PUaTorLOir/ddcEHqZAFeAzeRaYPrKhksnfPmRZ+M1Eeu63URFsVAcj8e2rixVuE5P86VOOIA+jEDOVRsRqA9+WTam/t6/49+VEt33L49zgXEAOy/78or0/ybbkrdWax1L19e6+te1+cEHaMHNCFGRNpBuGGIrQceSP333RfBWJTdHR6Okzcn/a7jjw8njDLbXQRfBH8EcDmgi1G3N95IwznIi1QLBBojezkw5H8QZwg1CgtESX6rv4lMPzlIG9m9OwoFDaxZEylMjJSHe45gy32aOWxRaOiEE1InBX/oq2Ugh4EZAjjctBzExWK3+X8JBmNtxty3ey+8MFIe6eucMyL441wgItMKc8oGN22Keah77767tnQGqc84aAyU1qcjxHU99136fmTZ5P48wnX97bfj9QzehGPOdZ0dc10nHjj99NR31VWp5+KLI/2RubAyd1CoiUwndLcsuqgINbB2beq/887Un4O4sfQIRsgYpSPgQqC16p71fcRtBjFG9ae+W29NC774xbG1nGJfInJQiL6bBRcO2t4f/CDt+f73Q3jFXFKo9/XS3/fZ18sG+bVdq1ZFumPfjTemviuuqM19qQs8ETkI0D/zNRnnbOChh9LefF1nnhmCK9IbG/t5/V8+RunnXNszFA5B0PVde22a/+UvRxERRB7/b4bM3EKhJnIQiFTHrVsjdZHFa2N75ZVwySJnHdG2P7q7Yz4KC25SUTKqQK1eHeWCGW3jJC8iB5dIU8z9eYhUx9zXB3MgN7xpU7jqrH0Yy3Ls7xJMQNbVFc466zbRv2OpD9Kac9/HkXPBW5FqwLSFWCM1X8+pwjzMwvT16zoOewzG7gfmuzHwSoXoyJChanPu61FF9rDDzJCZoyjURA4WueuRzkROO6mQ5Kiz/kqkODESR7pjfXRtDNIo2ObPj9TI3osvjhSongsuqAk0qkCJSLXgMtvfH0KNIkD9ub9H+jJird7XPyLYEF646vT1efNiMWsGY/quu662hlKp5CoilYNrONMc4rpO2jPXdeae53NAXNNbXNdjHjvX9cWLI8WxXNe7li6NdVFl7qJQEzmYMOF49+5w2FgnaThvFA2hYlRUjWIUDupBW4yqMbq+cGHqwFE74ojUkU/ksfClc1REqsvwcDhoBGwING6j2lu+jSU6cN9Ik8pEcRH6OPPR2HJfj36/fHntfg7odNFEqkk46VmURebMO+9E/+a6Xq7t4aTzurpjTqExruEUA2PAlakLpD3GXDZSmxFyMmdRqIlUBbriyEiMxkUZfk7oH35Ye65BqIUoW1Bfg0lhJjIzycEca6sxQBOj7flv1kwD+nYEbQzMsOGeGayJzDzydT2KgbEUT76uh1gjawbqQi3EGcKMwRmmLfC4AzFSR6EmUiU4qQ8P19ZTw22r57QzeZiOWgK2GGFTpInMXOoDMzhtI1mk5Ytxfqh2OR5bo4l+zmbgJjJjoV/HNZ3rudd1GScKNRERkYNEpD+ythoFB0iBzMEb6x9GoRDmnS5cWH+liIjMNRRqIiIiB4lY6H7jxtR/zz2xFlNnV1fqYj3E66+P6m8UEhERkbmJQk1EROQg0X/77WnvD38YYm3kzTfDUeukyuPq1WnezTenvizYRERkbmIyrMg0QinuqOj49tsRlEXlNyYZ14sITAiKEJA+RXUp9plvo6rUZPYpIlPP6GissdZ/992xztrwG2/Ech0s08FjrMEkIiJzF4WayDQysn17GrjrrrTnL/8y7fof/yPt/Zu/SQOPPhqVoCbKcBZn/ffdl3Z/61uxzz3f+U6s3xKV5ESkklBQgDLeIx9+WKvwmu8XRvv7a4M5peqriIjMSRRqItMAQRiCioUv9959d9r705+m/jvuSHvvvDNE1fCrr4Yr9rGFMPfH0FCIsaFNm0KoDeR9sc9+bu+/P0bqQ6zVK0yJSHWgymP0TRzxLMw+0k+pDLd7d20xbBERmbMo1ESmAdIbh9atC0HVn4XZwDPPpOHNm8NN67/33jTw1FPx93hSIEf37IniAwMPPxyFCAaefrq2z7yv/jVr0sDatWnohRc+MlIvIjMDp4+LiIhCTWQ6GBhIw9u3p5GtW2OB28S8NBa7ZWHrHTtibtkwpbnH4X4hwEbffru233yLIze2T+arbdsWj+uoicw8XDVNREQUaiLTAYtdUvCDIh/NI+VZSIXIQryNJ/Ux/1/sb/fulvscnsg+RaQauMC1iMicR6EmMk2QytQq9CopTjw33tAs5rnsA57b13uKSMXZT98WEZG5gUJNZKZjQCciIiIy61CoicxkSI8yRUpk9mG/FhGZ8yjUREREREREKoZCTWQmQ9qjqY8isw/7tYjInEehJiIiIiIiUjEUaiIzmf3NUXOOi8jMxf4rIjLnUaiJzGT2lx5l6pTIzMX+KyIy51GoiUwTUzY+bkAnIiIiMutQqInMZPaX+igiMxf7tYjInEehJjIb0FUTERERmVUo1ESmm3aKKvaVN2WayOxi1MEXEZE5j0JNZJqYyrDLJCmR2YV9WkREFGoi0007556UOWqt9ukcF5GZi/1XRGTOo1ATmcnsLz3K1CmRmYv9V0RkzqNQE5npGNCJiIiIzDoUaiIzmX2lPYrIzMZ+LSIy51GoiYiIiIiIVAyFmshMhrRHUx9FZh/2axGROY9CTUREREREpGIo1ERmMvubo+YcF5GZi/1XRGTOo1ATmcnsLz3K1CmRmYv9V0RkzqNQE5kmpmx83IBOREREZNahUBOZyewv9VFEZi72axGROY9CTWQ2oKsmIiIiMqtQqIlMN+0UVewrb8o0kdnFqIMvIiJzHoWayDQxlWGXSVIiswv7tIiIKNREppt2zj0pc9Ra7dM5LiIzF/uviMicR6EmMpPZX3qUqVMiMxf7r4jInEehJjLTMaATERERmXUo1ERmMvtKexSRmY39WkRkzqNQExERERERqRgKNZGZDGmPpj6KzD7s1yIicx6FmoiIiIiISMVQqInMZPY3R805LiIzF/uviMicR6EmMpPZX3qUqVMiMxf7r4jInEehJjJNTNn4uAGdiIiIyKxDoSYyk9lf6qOIzFzs1yIicx6FmshsQFdNREREZFahUBOZbtopqthX3pRpIrOLUQdfRETmPAo1kWliKsMuk6REZhf2aRERUaiJTDftnHtS5qi12qdzXERmLvZfEZE5j0JNZCazv/QoU6dEZi72XxGROY9CTWSmY0AnIiIiMutQqInMZPaV9igiMxv7tYjInEehJiIiIiIiUjEUaiIzGdIeTX0UmX3Yr0VE5jwKNRERkWmmyLDhvA02b1mkcTuSNxERmbso1ERmMvubo+YcF5FKg1gbylt/FmYf2eqPDeVNRETmLgo1kWmAcIvRcYKyGC1v2HiMUXWeH09YFvvk/5v2F/usb+Pdp4hML3tGRtI7+9j21F8jIiJzE4WayDQwmkXTcN4G8sZo+d7GLT+GuJpImlNJm2L0/SP75PH8GM+LSDVhEGV37qdvZ1H2sS0/vidvIiIyd1GoiUwDiDBGx99vEZTtzI8RrCHixhOWsU8E2q68j3ea9rszbx/kx3jeUE+kurQSamOOWn5ORETmLgo1kWkAUYVzhngiAGsMyhBVH+bHccYmItTYZ+P+2HiPXflxhZpINaFfsiHGijBr3hRqIiJzG4WayDQQjloOut4nABseTjsatp15Q1SN21HLrw/xt6995sfHu08RmT5IiW6Z+pj7Lxvz10REZO6iUBOZBoqjhlBrDspw1CaS+shrme+GyGP0vXGfpEKa+ihSbeib9P1mJy36cN54TkRE5i4KNZFpAPcrHLV6UNYoqpijVlIfx0Nj6uPH9pk3HDWEnKGeSPUo/ZLzQmPfZStzTk19FBGZ2yjURKaBkvr4HkFYQ0AWQVnePsxbOGrjCMzGhFp9H8371FETqTb0TQZp6K+NW+nDlucXEZnbKNREpoEi1FpWfcwbwdpAfs14RFUItbyR+thqn2PFRPImItWDnrnPqo/5cR01EZG5jUJNZBpAVI0V/mgKzMaqPuZtPGEZry2pj6RPNu6TQI/34nneW0SqBf2XrVXqY9kUaiIicxuFmsg00OioldSmsk3YUcv/gxBjLlrj/so+w1HLrzPUE6kuDOCQEt1q4zkREZm7KNREpoFSTITgK0pvc5u3HXmbqKM25tLlLcrz1/fHFo5aftw5aiLVhb5JH6UabKuNeasiIjJ3UaiJTAOIKoIu5qMgoEogRnoifyO4hvI2Hng14g4ByD5iX/UNN4198ryIVBfODcP72ExbFhGZ2yjURKaBEFV5QzzhniGkyoZ4Y1R9qP66A4XX8j+t9snfIf7qrxMRERGRmYVCTUREREREpGIo1ERERERERCqGQk1ERERERKRiKNREREREREQqhkJNRERERESkYijUREREREREKoZCTUREREREpGIo1ERERERERCqGQk1ERERERKRiKNREREREREQqhkJNRERERESkYijUREREREREKoZCTUREREREpGIo1ERERERERCqGQk1ERERERKRiKNREREREREQqhkJNRERERESkYijUREREREREKoZCTUREREREpGIo1ERERERERCqGQk1ERERERKRiKNREREREREQqhkJNRERERESkYijUREREREREKoZCTUREREREpGIo1ERERERERCqGQk1ERERERKRiKNREREREREQqhkJNRERERESkYijUREREREREKoZCTUREREREpGIo1ERERERERCqGQk1ERERERKRiKNREREREREQqhkJNRERERESkYijUREREREREKoZCTUREREREpGIo1ERERERERCqGQk1ERERERKRiKNREREREREQqhkJNRERERESkYijUREREREREKoZCTUREREREpGIo1EQqzOjoaBocHEwDAwNpaGgojYyM1J8RERERkdmMQk2kwiDQtm/fnrZt25bef//9+FtEREREZj8KNZGKsWvXrrRly5b05JNPpnvuuSfdcccd6ac//Wlas2ZN2rhxo4JNZBaAWz48PBy3++OTnhcRkdmLQk2kYuCePfzww+lP//RP07//9/8+/T//z/+T/vN//s/pD/7gD9Ltt9+eNm/enD788MP6q0VkJkIaM2nNiLVmEGdsvOZAxJyIiMxOFGoiBxmCMByyN998Mz3xxBPp7rvvTj/84Q/T/fffn9avX59eeuml9OKLL6Z169alu+66K/3VX/1VvIbndu7cGXPXRGRm0N/fn95444301FNPhVtO394XmzZtitc8/fTTMYDD/4qIyNyh63cy9fsiMkV88MEH6Zlnnomg7PXXX4+R9MLChQvTCSeckDo6OtKrr74aIgznjPRH0iAZVUeMcZ8Ab8OGDWnv3r1pz5496d13340A7uWXX/5IOiT7POmkk9Ipp5ySTj/99NTX11d/RkQOJpwLnn/++fTAAw/EgAwDMAy4tAI3jQEczgHz589PixcvTvPmzas/KyIisx2Fmsg0QHD23HPPhTv22muvfUSodXV1xUbRkGeffTZe884778RrWqU88Tj727p1a/wPtwRzjSlUCLVTTz01nXbaabEp1EQOHu+9996Yi3bffffFQMzatWtjzunbb7+9T6eMARrmpNLP+X8EHX0fOGfYr0VEZjcKNZFpAPcLgYab9sorr4T7VUQYtwRqOGMvvPBCiDQCtFYijZF1/pfgjtcTtBHIMWetvJ4AjpH3c845J61evTqdeOKJqbe3N54TkamHvkhfpV/TN3HKccJx0e69995Ia8ZV27FjR7jj+4LnOB/Q19lw0NlnZ2dnbEWocR9w5UVEZPagUBOZBgjcCKYQVYyiI9zK3DKewyUjKBvPfDP+j9cTuJX/I1A75JBDQpx95jOfSRdccEE64ogjQryJyPSAu02qMgLtsccei+qtd955Z3r00Udj3hniiwEXxNyBQF+nn5cBGgoKsQ/OI/Rt0iG7u7vHBJuIiMwOFGoiUwgBFgIMgUbaEm4ac9UI4sqcsiK4mqu/MVq+YMGCEF4EYkVsleCu1f8h1Eh7XLFiRTrvvPPS0UcfHf9LAEcgJyJTB30R14s0RQQZIo1lNR555JEoCFIEVnNac+m3bKW/Ng7aFCcdB500Spw4bnkv9sX7svF/uOc6ayIiswOFmsgUQjBGUEWxj8cffzzWRqOgCOlQBFj7gkDr8MMPT8uXLw+xddhhh0UQRjDGyPq+4P8I1Aj2EHr8TRGCIvpEZGqgryOmSHFkeQ0cNAoDkeaIs8ZgTbNAKzCIctRRR8VG2jJ9HVHW6rUIuN27d8e8Nc4rzE8t89zo+8uWLdNBFxGZJXTkC8HHrwQiMmEIpAjYEGgEUxQRYT4KARxz0JirRqBVHLUCwRUBG6mKRx55ZFq1alU6/vjj4z4BHqP0OHIEZ+yX0XTeq7ELI8wQZYi84447LgqKME+NWypAIvwIBHt6eiIYFJHJwaALbjl9EseM9EZcc8QZhX7eeuutj7jeBQZOymAMAo1+yi3uGX2dwkKkOSLEcM9Ic2yGcwbnBwZzOFecffbZ6eKLL46/2S/7d4BGRGTmolATaTOkOhJYkerEyDppTwRuBF37W6ia0XBSnygCcskll0TAReB17LHHhqgj8MOVY3/sl7luvFerILBAoMb/n3/++bE/Nsr18z6INRGZHIgqBmFIc6RfcsuAyidBejIDKBdeeOFY32SZDvozrjv9nI398TeCb38w8MKSHGVf7Jf98z4iIjIzMfVRpE3gkuGYsWg1ld1K2hPl9klNQlS1Kh5AaiIBFnPKrrnmmnTDDTfELY4ao+KMiOO0kc6IG8bIOelNOG/MX8NF471b7ZtxGEQe7huj/QR7OH3MkeM5/t80KZEDh35Gf6KCKwMn9HUWpcZJY/CE/tUqPRkhdeihh8bASenrn/rUp2JQ5owzzoi+XuanMYhS3DZeT7+nrwLvv6+0aUQeKZb08zIfrqzFSD8v6dAiIjIzUKiJTAICJoIy5pMwsk6wRglu1koqThppUbymUUghvAiaFi1aFOlOjH5fccUVEbxdeuml6dxzz01Lly4NEVdSInHBCNwQakuWLIngjecRXMWpIwjj72KUE7iRMkXwSGBJ4IZoLGlUvH+B/zUdUuTj0J/ov6UwEI7Z+vXrYyCGvs4trhdpio0irfQpBBgibeXKlenMM89MV155Zbr66qvjFteLcwCvKa+nXzMYQ1rjMcccE//LgA1taBRq9O9G4cV7079pB0KNttLXy37LMh1lcKbxf0VEpHqY+igyCcq8FOagEbghzgjiSH1kJBunqxUEYQRgZQ5ZSXtCgCGeEGX7gi7bWP2NUXwEInPhqDRX5q81Q1DGqDxBHyKPOWu8L6P53GdeC4+LyEfBlUbw4I7T10lrJt2xiDP6IuKpOQ25DMjgmLPw/FlnnRX9nf6GCKNIEOKJ17WiDAQhuJjvxnszd40BIPo97Wmu/Arsj/2yf96H96Ofk1bNOYf20K59va+IiFQDHTWRcVBG1RFCBE4ETMxLWbt2bYi0devWpS1btnysqiOj2aXIB3NGCNgQSZdddllszEVjtB0RVUa99wWCq7hxpD8irtj4m5H4EnzxujICXyDgREAy6s5nYEP0ISjL6DxCkPYy6u6Iu8xl6C844gzGMAhCX6fcPvPGEEw8jkhrLupD6iJ9ksGYk08+OVxyHLSLLrooHDVccZ7/pKI+9EHOB/Tt0s+Lm17mmHIuoJ/ShtLXi+tGXy/9nM/BLZ+JtnIL7Kc4bCIiUi101ETGAaPbzP9gJJ1RdeaoMCcNZ4sgaF/FPQi2CLAYyWZUm+IebIx28zhpTxMRRnRfAjLet6Q7lTYhGkl3JJBsbhPvg6DjfRF7iEfSL1kgG9FIxUhSLw3gZC5Dn2Yw5qmnnooN1xxXi/MAW7NAK+Bk4ZwxIEMaM30eR4v+Vhy0/Qm0VhTxhcCiv9MulvvgPFTahfPWDO9THDbevzhrtIu+zt+0V0REqoeOmsgnQDBGYIRTRnohztmDDz4YG6PqZY0kXtMYtJXRcEbVSXtiNP3yyy+PuWgESCeeeGKMjDP3hGBqIu4V/8P7MKpOEIYjR9CF+OI+I/E8B83lvQn8StCHq8aG04aw4z6BKJ8Hl473mUj7RGYa9GUqtJaU4p/97GfpoYceCjHE0hoMytBvGp1qoK8xh5Q0QwY9rr/++nDLEUX0ddKdOR9MZEAG+B8EF/2Z1Gj6JecP+nqZz8rGuaSIOqAPM1BDm3HO6e8IUD4HG+cFNv6H9yjnCxEROfjoqIl8AgQxCBcEWim3z+g1blVjemMzBGUEVKVcdpkPxlw0nptKSL2kAiWj7bSXDZet1XyWRhCNtA8noCwRgMtG8FZSrURmM8wxLQMyZdvXWmiN4EJTqbWxv+NU02+mapCDyzfCi0JG5dzExlqLDCztiyL6aF/p52y0n88hIiLVQEdNZB8w6ozYYT4KpfYZWWcuGg4a1RObHbQCjhYpjoyqX3vttVGCGxeNxxj9xvkab9rTeCEQQwwy4k7gxUg/I/q4bIzo45btS2TyOK4aaZQEqKVYAoFqSd0SmS2U4x1xU/r6nXfeGSnE9H/6equ+gtDBRWO+GYMZ9HWW1kDw4KDT1xngmMq+Tj9nQwzSt0uRIhw22sZ7l8GZVucqHmceG84a/R1HnUEpHufzsU31uUpERPaNjppIAwRkJR2QkXWCNeamMN+LYgIUEGkFgRIChsAMYcQ6SWUeCEEbwdPBhDl1pG7xWXDZmN9CelcRbARzrSBli/bzOcpGKXE+J5+XQE5kpsFlj1Q/+jkiDfeJKo70d/oHKc2ltH0jRRiVNGMcKVxyhBr9nXlpDI7sr2rrVFIKBZW+zufBHWSwBQG2r8ElnHQKHVHohD7O52FhfPo6n5PPWz67iIhMHwo1kTp0BVKISGlkfkpJG0TQUDGNIKg5cAOCFwK2Um6fgA03jXL3jKozss3ckYMJbSfwpHQ/jiDOQSnxzWMEd60g4KT9jNQjQPlcpEXyOfl8PC4y02BwgvlaHP8INPoCgoa/6ev0FV7TnO6IG01fZh4aQoa+gFDjPkWBEDUM2hysAQwGXBhoQnzSp/lsiE6EW/l8PN982S/zaWk/bhyDM3wm5tJyS39HrPE6ERGZPkx9lDkNgRiuEulNpP4UcUahEAoJEMAhZJjz1eg6EbDgKjF6jkAjoCnFQkh94m/EWwncDjYEYayhRnsJxGgXG0FnSWVEcOIyEMSVQI5gFZFH8ErgRwDLyDyCledK4QK+D+474i5VBkep9HVEC4vTszFwgZBhkIbjnb7eKGYQKThOxx57bIg0UplZrJo+j4tG+iMDGvT1g5kqyHvTBtpS+nkp509fp6+WdEzuFyHKZ+Uzc57j+0HolXL+fGeAwAP+VyddRGR60FGTOQ2j6gQmjDwj0sr6SIgzRAlBCgFNMwQ9zEVjtLk4aARsuEw8TmBXReFSAjLEKfNSCEz53CXlixRJAlVEWCN8DsQYn4vAj5QoPjcpUqRKsVYUgWwRfSJVhNTl0tdLGjApzvQHhEizQCsw6IKrxAAMxztLa5AWTH8oKcBV7Ov045LKTd/m/FZSuZl/xxzUZvgcfB4+F5+Pz8nn5XPz+XHbWFZERESmHh01mXMwioxAQ6QgyoqDxsaoOqPtjCgTvDUGbQgvBBqj6gg0RtPLyDoijdRARq6rKtKgCK4ShDHyjrCk2Aij7yVNk9eVkt0F7pegr6RSIvYaXTZgv7xHFT+/zC04ZunLCDQqtVJm/6677gq3vJTbxzlC0DQe6/Rf+gICDWFCZcTrrrtuzC2nMioDFvSjqh7rjX2dOWhs9HGcNlKySWsufbWIugLfBX/Tp+nvfIcMaCHsSol/RC3fE/u3r4uITA06ajLnQIARcCDQKGnNxugyQdv+YJSZIKeUsi7V3ajmONNBvBLIkurJ91K+m1Zz8hohyMNNY55OKfPNLWmWPCdyMEFMUM0RF63xuG7lGjdCX2fgBRetHNPcFrd8JkN6I+K0lPMv5z8KqjTPyWuEz83nL+c+vhPOf3xP9nURkalBR03mDIgzKjcSmDCq/tOf/jRG1hFozMUoczCaYfQZMUZwwiK2t9xySwQppAQh3JjzMdNhRJzglPTFlStXxrw7PjcOIUFYmcvXCp7DUaMQC84F3zPfJ4Ew82VmemArMwuOU45HxAdChL5+zz33RHrvSy+9FMdmqxRHnCEGGBh4IJUZB624aKwvVhw0XKSZDO2nr/NZcdJJY6YoEA4ij/P94ag1OozA90VfR+jhpNPXqSaJo873Wb4bRZuISPvQUZNZSwQWWSwgwPr37k3PPf98evKpp2JjjgYOEuk8zRTRggBjo3gA1d1KyX3SHBFosxlEV5nH8+STT4YjgaAliOP7JGBrdeog6OP7YT4L31VJE0OslWp4pklJuykigpQ83CIqtZby9GXuJX291WAMwoLjk0EKBEspT8/xi0DjsXYOxtBWRBC39AXEzcHqEzjmiC0GsPieyhy2UjiI/s732gzfF+dAvp8yR5fvje+K75HnFWwiIpNHoSazlsEcZLz71ltp8yuvpBc3bkyPPPFEeihv23JgsiMHbYy6twrcGBnGTaKSG6lPCDQ2JtATiDDPg9fMZgjgmJdCwEtK1BP5eyOQo1IeIo6gd18BHN9PGakvAS/fI3P7+P4M4KTd4OjglDWX20eAcByT6khfb3aJEEik83F8kr7LOmIMNPA3ggPXib7ezmOWttIe2lJE4sFy5enDxYHkeyrfHXN3y/fHc83Qbr4Xvh++P1Ig+d74/vge+f543EEZEZHJYeqjzCpGchA0nAOyXTt2pLdffz29vG5devaRR9LjDz6Ynnz88Sgg8BajxR9++BGhQeBBsMQoMQINJ4iUJwqFlLXDEB+kB80FoYH7RRBWXAaCLrZSzp8AjK3M8ynjPQShpEYRNJdCIwSAOB1FFPPa4qzN9DQyObiUcvKlMNCaNWvS2rVrwxlCtFEYiOIXzamOFNYoS2sgMK666qpYWoMCQQgN5l1RbKNd5fY5/ukLpAuSfomjT9sQbLwHgxsHAz5b6euc++jjpZw/jwF9lXMe3x/fI5T7pWouYo5b3Ew+E/A8YpR+znuIiMj40VGTWcVgDtz6szB4PQdCrzz9dHruySfTphywvbRlS9qag4k3CZhy8LC7aWS9VERDoOGe4QQxKsx8LQI2RNzBTFE6WBBosTHqjviilDkBMQ4bKVIIX9y3ZmeyiLDisPE9EhCXMt+MvBMI8rzIROF4JIWZY5GN4xIXuKToFmHRDEKspO1xTCLQqPDI8YioaLewQKCROowrXTYGfTjX3HTTTenaa6+tv/LgwsAL3xt9GuecOX58pwhLBCbishXlO+P7w0lncKukipM6zvctIiLjR0dNZj5ZSAxlEbY3BxHvbtiQ3nz88fTqgw+mVx99NG3JIu2tHCSFq5ODkEFGgvO/DOdbRigIlggiEBE4aFdffXW67LLLovw+qXo4SnNVpEERXLhouGkIWr4T3EVG3xGxCC5e0xwYMwZE4EfQzMg7jgKFRrhlBB43hNfw/TriLgcCxxPHD+m4pOmxWPW99947tv4hQoLneV1jmiOuEH0dB42+jXtGX0eg4ZbjonM8cxy2wzHHrW+c/0XRovvvvz8KGSEoKXTCPDDOS/QhHKwidA4mJaWx9HW+M9pGKjj3eY7vkn7LZyzfMbd853xmNlw13DX6O/c5B/A85xP+n/OFiIh8MjpqMrPh8M0BQ4i0LNC25W3LE0+k1158MUaEd+bn381BxM68vZvvc8v2Qd6oYXj0ypVjpaYJ2phrQTAnnwwFGko5fwJRCjeQ7vhJpxSqZRIs872XDeE3F4WwjA/EPWmOODyltDzCh4GAZle3EUQHi9Hj5Jb+juOD+JgKcYQwQYgxz4t2spX+0Tzn67Of/Wz60pe+FOmXuE9Vg+8WNx1nrXwWRPH27dtDlO0Lvle+X77n0s/5/jm/8nuIiMgno6MmM5MsBkbefDMNZbEwmAOgXffem96966703vr1adeWLWlPDoYGBgcTs9DweIqLxvjv4iOPTMdRgjsHa9d/6lPptttui2CCUXXcIkaN5ZNh9J1AjJQxUhsZdceV4PtDrO0riGP0nVF2UtQIugloGX0n0Gak3SBOGikLLiN6ytIazEVD+JBOiIOGu9M8QMBxiNvL4AsigVL711xzTYg0KpHiFPGadrk7JUWYFEFEDU4fywLg+uGqIdJ4vnFuLLD0B2mYtIk+VDWKC4bzR0ElBlXYSGnGBeT34btvdDCBxxqdRdw1xF1xPEumwlyY8ysiMlEUajJzIBAYGkqj+cI/ysX++efTwFNPpYGHHkp7cgD3wWOPpQ/feCPtzSKAoJ9wiG2EQCwHFJ3z56d5WUicQIWyCy5Il151Vbrq2mvTFVdcESKNwEORduAwYk6wi1NR0kRLGiRBGwEaQR4BW2MQTbBK4E36GqlqjNYj3AjqCNoQary+pF3qtM1NCOZxcwjwEWSINAQaGy4agojjqFmkIR44hiiOwQACwgy3ilRH5p7iWpVUw3aINNJ9i5hEkJQ0R9qJ+8Q8TgYjmkUaxzp9qFSbRKhRyKNq8B1xXqR/lzXXEJT0dT4DvxGUfl4EG/f5bvheGJQpYq309eJksg/6uIJNROTjmPooM4bRHBCMUBb+1VfT4AsvpMF169LQxo1pJF/8B3KwvzuLt/dyYBCpjvmwjnTHvO3OAcFAFmjzshhbdPLJ6fjzzkvHnn56WpqDjiV1F8ggYeJwCkEYl0AV8UVqGuuvUXlvfwuKEyzz/RP8EQSW4g4UckE8E7gy8i5zC44pgnuOH9LsEDvcUjyE4wxxgPBpdfnC9cGhQgAx95QCQbhWHGcIOARCO8U/IuzVfE6iqAnz5nD6GpcFoK2t2smxzQAHaY9f/OIXQ1QiIKsMn4MBGFJQ+XykPyOa+W1wPBHPiLFm+L753vn++R34Pfhd+H34nRDPuHQiIvJRdNSk2mThNZIDg5EcDA3ngH8wBwSDTzyRBh55JA3l4G345ZfT6M6d4bJ15iCCsVy2YZyYHBj05GBoUQ74j8jBwInMQbviinTqueeGq3ZEDgwW1h0gmTgEYSU1iiCspEASdBKcMRpfhDAj7AR7JXBl9J1AlnSoUs6fNMhSzr84EOyf9/G3mr1wTCBsED6IfQQA6YM4aaQSItqonohQaCxaw3GBu1OED2If9+zSSy+NeafMh8T1RSQwMDBZkUY7i4PGPFhECksCPPTQQ7EhKhmcQMzgChaKWKFvMCiBQMHtYwkQKqHSvqoPGPEZ+A7p63zfuGz0cz4TW3HA6a/Q+Dtxn9+O/s13Rzl/BnDo8+V8UF7fjt9JRGQ2oKMm1SUfmuGi5QA+BFoOgIaeeSYNvfpqGskB2ygj6gRCHMK8Nv/Lhznwfz/ffz+Lg71Ll6buHKQtOOusdNjZZ6fFJ52UDl+5MnVTZTA/31EPKqR9cDpBXOF2EJRR3Y6RdgLtUpacYgqNASzwOxDk4Z5RcY40MFw1UtWYP8joO4FgSZeS2QdBOo4MzhTHCc4UqYMcLxxPjcK9EUQB7iuuDCKNY4Y5aRwvRZwV4dAOaAOCEXcPMcmxTbojThIChLY2CpQCIgznmLY2LguAuMRNKiJnJsHn5Hcp69nxe1GBE0cdt405qPv6zRjAoT8j9vi9yuL4/I70f7McREQUalJRRt59N1IahzdvTkMvvxwiDfeMv3ludFdtUdVmBg89NA1kgdZ/1FFpJAdE83KAP//kk9OCHAzNX7Ikzc/Bm0wPuGUEb6RD4jDgPBDEkSaGE9GqAh4QrDJKT1DL0gk4DwS1BG+kh/H4wVogWNoLooYgH5HDMYFA4zhB4COEOG5aiR6CfEQYx0Kp5kgaHUE+VUU5bnhNu4RPESSlnYhJBiBIdURc0k4GJpoHIBAbCEXaSdEdBh8obkJ7Sf9DtPE5Znp6L2KM74e+zfeB+8l3w29Z+nqr74ffh++H74Hfjd+P35ElE8p8OL4ffksRkbmIQk2qRz4kB/OFfvDJJ9PQU0+lQVy0HLgh0PYLrkwWZd1ZnHWce27cLshBUXcWaHLwoXgIDgTuAxtBOQHuJ52CCNgIbHEfGHkvom2muQ/ycUh9I5Av7hnHBSKoVAbcFwh15qJxLHBMsCGAEPhTIXoQGbhlzSXqSyrmvqAtpAniCpPmSDsRIbhoCJDZCGmhpK8i1Ehb5btivipijdTWfYEYw11jYKb8pvy+/M4OzIjIXEWhJpVgdGAgUhyHt21LwzmgJ8VxMAf1uGoUEAkXrZ+Vz5ro6UmdWYh1rViRunLw0716dU2oLV+eOpYtizlqnTN8tHq2UOYfEZiTEoW7xnweRuEp24371ipNqsyHwZEgwL3wwgvHFilGxDEnzjSpmQGXG5wXRA+/O0U3EDyIM+7jvpalGhrLvSPKSZcjYOd3p1gIc88I6hFopA4WkdbOY4FjlsEE0vhoH+sG0l6OV9qJG9jK8eOY5VjFJaKtpO5yzCI6qEbJnLp2pmNWCfow4pXvh+8J57H8xnyP/O446c19nd+N34/fke8J97H8xnyH/O78/jhwIiJzBYWaHDRGuVDnbZR1eHLgNpQDoaF8MR/AQduwIe7jrjXTQSDGfI5581LHYYelrhwM9eQLes+ZZ6bufFHvzoFbvurXXieVA6eEAiJlzhouBcEcQRyBMSPyBOmNgTqUQI6gt8zxIU2KgI7Al/kuvMaCI9UE8UUAjyBH/CDUcVqYz4Tb2qpaIJS5TMw5Q/zgrJZ5i6TCIuDbCccnbeU4xDHDFaKdHKuk9THI0AoEBBttpU0MKFAkhGO1VDGdizAwgzjj++N7xDXl96avl7mHrUCs8fvy/fF7l/l8Za6q6ZAiMhdQqMlBY+SDD9Lou++m4Rz8kOoYLtrLL6eR7dtDuI28/379lR+lY+HC1Jkv1t1ZoHXnAKjnrLNCrHUedVTqWrw4deSgnTTI2KRyIMAYTcdVIR2KIA6hRhBXBBsj7gTKjeCqIMII1HDRCNoYcSeI45ZR91JAQqpHcdBIicNJJXAniOc4QMARtLeCYP3kk0+O35gUWH7vErBTeIagvZ2wLABCEgeIdiLUEGe0EwetrBvWDK4e7UKU4Z4hLBBnOEQsDD9Xj0t+W74zvj++RwZm+F7p6y/n8z2irRX8rvy+RaAjevn9cdg4HjguRERmOwo1mT7yoRYuGo5JFmHDOUij5P7Qs8/G4tVDOUAfzYH7CIFQo5tSF10sWJ0jntSFIMsX7h7SHHPw1p0v2p3LlqXO/BxOm8wccC+Yp0Q5dgLj4rLxNwEzwR0BfPNpirQxgt8SGDPqzkYRCdIhmeuC+6a7dvAgJbAsvcDvyO/KXLSSAocYajVnid+WAJ3fl98R0UOQjlArxUJwUNsFgwYcY7SFY7EItCImKIzBZ2iGYwtXh3YiJkohjCImOC553LTcn8MADL99KTbCMUFaJN873z+irlX6M98x81JLyitineOC46OIYL9nEZmNKNRk+sjiizTHIQRaDoBYsJo0x5HXX08jb75ZS4EkFZI5H1mYjflhOSDqyMEbjhnCDActXDRKOK9YUUuBZL6HF+oZB6cfAjPSnwiWS3l2Rt0pPEIgh+vWHLzhrhGYkWqGIMO5IFAmHbKkxZE6xfMWHTk44D7hohGQk95Iyhu/K+INt7R5HlqhzO9i7hnimxRCftMSkLdbgNMW0i5x+zjeSkom8ynLQEEr8UA7mDuJeCjtRFBy3CEgcIQUDx+l9PUiivme+b753hFvOKyItWb4vfm++f0R6RwPOJZ87wg3jheddBGZjSjUZOrJhxgLVke5/XwhHnzhhbH10CgcMvr++2k0B3UFDskIrnHRKAaydGkIsu4cEFEopDsLtM6jj/55mqPMGihAQNBc0uQI7inVzlwhAmeebwWBMUUacNQQbATNBNDHHHNMlPgmoJapB9GDQKOIBL9hoyvF36S5Ic6aLzsE4bhozO0qSzIQgCPWcFL4HXHa2iXQcPsQYLQT97YxJZNlAWgnn6W58mQZHKCdtIkUPNqKu0M7i2Bw/tT+KYKN75nvm2OE759b0iP5XYqYb4Tfn9+A75nBGY4Pvn82jht+F44jjicRkdmAQk2mnnxRpsQ+Dhol92Ph6uefDwdtvxAU4aCdeWbqOe+81INIy/dx0GT2gygjVQ6xxjwhgmgC/k86ZSHacDbKwsfcJ5DTWZt6ENOlAEcpY08gzm/Zyj0r8JvhRJWy7JSyJ8Vxqip6ljlTje3k2EK0tariWEAA4OyVNnJbxORsreI41SDaSHMmJbL8FvwuHEutUk4LHBccHxwnjcdNcTRFRGYDCjWZEkZzIDSSgzMctKHXX09DTz+dBp97LlIcKcNPEZFIcWyiY/78qOTYjWO2cmXqJs0xB0LMS2MeWseSJbU0R5n14HhQrr2U8yd9jnRInBkeI3WqecQdCKYJ4IrrgVAjVYoRd/7GXXPEvT1w+cB1KkVhEDvFHSHw5vcj2Oa3bLzUlMIw/E78LsznQvAwvwuXimCbUuy4I+0U2FScRIzRNpxajifajINT5km1EpQUBGFh7VJunxRb2ks7S7GQdqZjziU4LnBhEc4cL2UZBH4X7jOXEdHWHKpwXHB8lDX1OG44fvhdcNVx3Di++F0cpBGRmYpCTdrHcH1+GXM63norDVHN8dln09D69XE7nINtXsNctUaijH7eYq4ZaY45cKNQSMxFO+OM1JUvuB2kEk3ByLpUH8QY81YQAMxlKVXjilNDihSj8s0BNg4HgozAjTlrBNekqBHQIdaYQ9TOdLq5BJcNxBe/CwF2SVPl9yHIJqWtVZoqAXMpt89cI0QPTghimiAb0UYKa7ugnY3l9pkDiUuLQKOdtBuR1gzt5NgobUWg0cZStIa0TAYCpP2Q+kzf5vfheMJdQ1Tz+3HM8Vu2Cls4bqgESR/nN+K4QrAx5xFBx2+pYBORmYZCTdpDPoxGWcSUwg8ItOefjxRHCoXgqkUpfqo5crg1HnL5wtlJuf0cOHeddFKsgYZIQ5x1H3ts6li0KHUwSZxg2ovsnAQBhhCjYhzBPyW9GW0niKNiHPdxbZqLEBCUkR6F20EqFCPsCIMiCgjicEMI5GR8kB7I70AAXYqFlAIc5bdo5XYifhBjJ+W+jtgpRThwPnBG2j2/i+MG9xVXhuMEgUZqHc5NcdAQAM1w3ODSEPiXqqK0E3FGWzmmEHDSfhBjJTUV0cYAQHE+OeZw1/ldm+G44fjhOGJeKqnPDNBwnHG8kZ46FWm0IiJTiUJNJk5ddI2SLpSDMwqDDL/ySm0OWr6o4qiNkOKYn/8YdYEWC1bn4Kc7B9FRyTEHRVFun0Ih+YIr0giijfQ15kHhhiAQcEgI3ko5f4K8ZhBtiDUCbQQaARzpkIg3Utp4jiDPEfd9U5xNhBipjggzvn+cTgQbQXSr+V1lEWhK1eN6IHpwPZg3yG+Bw8lr2gVtoK20E+FI+xD0jYVNEAPNDixBPO0g0KedCDSCfNrKLX/jzLSzrbJ/+B05tqgEW35DjjnOASWltrngC/AbcVxxfPHb0d8ZoMFJLym1/o4iMhNQqMmEiTXRclDE+meDGzZEwZChfItYG8kX0nwVrb2mKSAKZyxvCDJSGykQEmuiIdBIe+rrG0uHFGmGQJzgjCCNFDsCOEbc2XDZcE9aUQJx0iERZ6REEryVDdHmfJZ9g5vJ/C6C5eJMIXpwOouD1upygkBjbTtcTL5nyqrz3RdxzO/Rzu+c+U4ItHJcUP4dgUaKI21tJdKAttBW1kIrDhpikmOF4B6xSTs9PqYPjid+L5xPxBm/Y0mx5TgscyCb4TfiuOI35TjjeCvl/DkO+U35rUVEqo5CTcbNaA6SRykUki+Sw9u2hTijomM4alu3RhERRNrHYD7Q4sWpkwney5aFOOvNgVvXMcfEGmmINCs6yngg8CYAx1HD0UE8lAAO14f0tlZpUsyPIj2K1DZSogjiCOBw3Eo5/7meJlWCZAJhvmPmdyF+cDfYEMSkpjXPDyRIJg2N75j0QdLOCJQRPbgbpD7yHfOads0PpA1lWQDahQtTHBj+5nGc1mbHj/fHXSlpjrQVB41jAeHO43wO3ZeDC78vx2L5fUm3ZWOggPlsPM7v35xuy+/LccbxxnHH8cdxyPHIvEN+X9JYeY0CXESqiEJNxgWHC6mMQ8/VFqwefOqpWBMNR22/MBK9cGHqOfXUKLffTbn9c86J+yKTheOSIK2U8kewlcpx+3J6CgThzGdBrFGAgFF3XJW5XhmypJlSzbGxjH1Z025fEBzjVrDWVSlhz8bfy5cvr7+qffDbEsST+kr7Slup7IgDuC8IzMtctNJGNtLlEO9SXTgGOS4b+ztzEfdVtbPA8cdx2Ph7I9A5Xts1aCAi0k4UanJARKGQnTvTyJYtaejll2sOWr4NB23HjpqL1oLOQw6JuWZd+eLYdeKJNZF20kk1F23ZsigiItIOGHXHSSNgI4gjTYrUN5wgHDecoeaCI0CAxog76XkEbYy6UyGSEXdG4UuK3lyAywGBblmIGKHL94gzxXfK94tz0aoAB7D8AU5U49ygRmcK96qd4KTQVn5j2klFUJxV2sl8RQL3VvB7k/6GICtpccVh4ffGZZHqgjta3HSOU/o5Li9OKo4bQq4VHH/F6eW45Pjk92f+IX9zTOisiUiVmD1CjY+RA7Uyb2qMrq6Y7zTK7SRHzNh3Rw5iogR9GbXL+4x1vUiTateIXN5/pBeSPpi3eD8+VyO8F+/d20u5q9TBPI/cjlEea8eFhu+Tz1pvB5Ubh3OghkAbevbZcNBYEy3hVjSOYOKc0bbcFtrUuWJFiLTec85J3atXR7pjZ75Isl5a274vkQZIb0OUISyYy0LwTuEL3BVS9RAZvKZ55B13BUFGwIarRrGRUnCEwI45Srhvs3Hkne8CVwohixAj8MWtKMVCCH5biZ6SWob7yPfDHDRcCgJgUswQP+0UPbST34628js2zk/EQSVYR6A1Qzsby+0jIklxpL20lVRHBJrMPOjrJdWV/k5xIY7bUs6f+aytXDaOS45PjlOOgXLcIuY4RtqZmisiMlFmjVALQZFP2FFlMG8h2vLjnfniS2XBuJ1kKlNUN8xBAO+Ro5nag5SWxxnCOZrkqHv8FPmCEu+BMHrllSjUMfL221HevpEQQfn9WHOMUvZdlB4+4ohIL2yLAOL72707HLNYDy0LM+aisXj1yLZt4bCFkGwWkAjifJHrzoFt18knR7n97nwhjDYyDy1fHGMeGsLWkUuZAuhHBGelxDcOS6kQiTOES8T8NYK4xtNfSYUrBQhw06gcV6oUMuqOE8Pzs23UHXGGsC0V9hC3iB++P5yLVvO7gO+izO3i+6EAB24kqWQU4GDpAwRSuyD4Li5KaScinN+TNE3a2qoKIEKS3w7RTTtpIyINAU6FR9rrPLSZCb83xy/zUSl4wzGBWKOf0/dxXFs56RyXHJ8cp/z+HBMcvxwfHM8c13PFSReR6jJ7hFo+EQ/li/dwDjSG8jZKak4OprpXraoJhnzi7cwn48lQRAvvgcMEFMHoPe+8sVS+CZF/Asrbj+agiOIcUZQjCyJSDHm/0RyAtBJquFLdjUItt6ErBx44Vl3MBUGwjUO0hTOWNwQpxUKG+LxZKLJg9VAOdKOaY25jrIfWTP6uQ4QtXhzvHRUdzz47vv9O2ka5/SxmRaYbAnhS4RBrCDWCOFLleIzgjuC+FQRvBPek8TFnjXlsBHCkSLL+GgHeTKY4aHwHpIuWSnoUaUCwIdxagdOA68D3Q6oYbhQb3xFBLi5FOykOGqKReWgE4LgnxUEjGGceYnPRGEQ3bUV0MzeJNfSKe0K6GyIcAadAmx0QyuCc0bc5LjhGysZxw3HOcdRccKRQBhs4RjieGZyhr3Occ7xzLImITDezRqghIAYeeij133dfGrj77hA+iIe+669PvVdfnfouuyx15aBiMrA+WLzHXXelwRzUAGt/zfvFX4zqhYiTccPXnwMMhBD73Jv3PZwDkRBEWWziWpH6mH+o+j/U4C9SDCP1EdE2b16kGVLuvu+qq1LvddelTpyrcQQh4Urmi1isgUaxEARavuAhfEMocoGri7lCHD75e6YtPaefXktvZB5avt+Tg6EQZ7QPB60dTp/IOCGAL+X8cV5w1kq6XHHYWkGgz6g7wTyuSynbTjokt6TPzWRIA8VtQKDhSpHqSIojrgTO1b4CWr4LqmOW7wIXgrleLARNyli7i7AgpBHb/F60E6FNoRDEJU5fKRbTfCnDDUFQI8xoJ0Ib0V2cEtqJM+qcpNkDxwDHA8cFAzGINo4XjhuO8zI40wqEGMcFFV9LJdjS1zneOe5FRKabrt/J1O/PbHJggfsUwiIHYqzjhcsWRSyOOy5154vzpB010hFZMywHd7hqOEuUm0eYhIuVA5UDhqAiCx7cM+Z9DTzwQBp48MFakY7Nm38u1LJI6yR1CMGVt476hjgK9wsh9+GHNReMOSQ4c/lzR3pmJuaC5YAzhNInMPr22/Ed9t9/fxrM7eG7HM6BG6mXYyKtIRgKcZgvXrFYdQ5ie6+8MvVeemmIxXD5li2L18R7GwzJQaLMT0JEEIiR7kQAT/BV1sdixJyAHfemODMEfaUsOMKF4A/BwOg882LKY7wOV6adKX5TQZmHhkBD6BDAPpjPOWvXro1Alseo5ojL1uhO8f3x+QhUcR1IEbvsssvSFVdcEeIHpwrHqp1pjrQVB40UR5yzhx56KK1Zsyaq+yGsy2+AAG8WaPympK3iiDDv6Oqrr06X5vMSwhoHEIeNoFyRNvvg9yx9nT7NPDT6OlspEsOxzDHTfOw09vXGVEo25mdybij7p0947IjIdDC7hFoWFVGJMAccY6mP9bRHxMSkhRppifk9Yt5YvaoU864oM8/tuIQaIitfKAZygLT3hz8Ml64/ByOkP+YrQk3YcDHIIqczB0CRVphvYyNvHvHFRQbxxAb5M1OBkXlkw889F5+3KwejiLUDmZ/Hdzfw8MOp/yc/Sf333JNGtm8PEZivZvVXNJDbx7y/nhNPTH0XXhjOZWw5IIo10XJ7ddCkahBkEbThquCQITAI4Ai6CNBwb1o5SQRpCIey4DPzpBBtCIqSBlgcmqpCYIq4QZA98MAD6Wc/+1m6/fbbY04PzgPBaaNAK/CdIcIQaZdffnm64YYb0i233BKOAw5VCX7b9dn5TmkH3zUu3z35XPSTfE6izaSxlRS2ZoHG+7NReRKX77rrrot2ItRwRXBKCOCr/BtJe+A3RozTLxHt9Hc2jlVEFv2cvsBx1nwc0dd5nuOParEMFvA3j1MxshzvOO4iIlONQm0ctE2oEYjkfUUa5b33psF8GxUU622mZD1phKRszv+FX0h9OeDou+aa1HfFFakvB0psvfXb7jPPDNcwxBopQIz6cT8HZfkqlEZwFXMgGsVOGO3eT5Ay9OqrUdExUh1pTzP5fzvyRQrx15vft/eSS6JdPeefH2mOLGQdDtp+3kOkCpSgnmCOAB53rcw9Q3iVAA5x0wqCNgQDgo0UPO7jrhEEslVpPgufpZQwv//++9Ndd92V7s3nHZwp2t/soBUIREsJ8yuvvDIE2vXXXx9zePi+2l0ohDZQVp35Rbh8d955Zwg0UlVJ0SRYbvV70E7ag2jE6bvpppvSbbfdFsVCyvIKBNYyd6Gv06/p6xwTpOniEHMM8xyOWbNgAx5jUID+XarGkj7NoAYU4SciMlUo1MZBO4QaJf6j8MmmTWngjjvCwaKaYlRQJKUiB4oUPwkRlIOieTng6M1CiDlwpFiSYhgb9886K0Qa/5OvJrU0yLxvRBq3VMHEEaO4B5UvmS8WpfPz99IKPhvz46JoSL4gBbw2/09Umcz/T8GSnhwQ9V50UaQ59l58cXzHzI+Lao772LdIlSA4I8AiUMNVo/ofG2lziCyEGEEat4DL0wiijICNFLyShkdA1yjUynsA96cTRA/tIQAlnfGxxx4LR4r0QdIIy3wdXMRGkYbowXXCOSCYJc0RF+2qq64KEUSqI98TKaTtEGl8r2VOESlmOGakN953332xsZhxWci4UaTxvSK+yjw0xCMu2jXXXBMbbWZhY35PRZpwDJS+jrOGYCuDMvRzji+OKfopfxfRRv9nIIO+zmABfYnjlMd4LUKNY5jXl74vItJOFGrjoC2OWg6eYj2yHDiR7jjy+uvRVoqC4Ejhns371KfCqaLtXTnQaOmE8Tcb/5cvOFR/RIxRNj9EW77w5AhszFljH4isKOyxj4sJi1Yzt4/qmeXz8X+0jXl+fM5w8q68MvXkoCgEWn7vSKv0AiUzFAIuBAqBHCKEeUxsBHIILgRPmYtWArgCQRpBGyPtuEGIClIi+Z+SMngwArgyvwuBRorjj370oxBpVEgk2EQcNX8WIFWMQBZBhnt26623RupgmYfW7vROnAkEI64ZwoxUTNw+Kk8igPluW7UTgYaQZB4aIvJT+Zx57bXXxt+kPvL8dItjmRlwXCDQqOhKhdLipHPMIMzoG/TfZjgOGdhAtNGPSl/nGOb8Qd9gkENEpJ0o1MbBZIUaaYms8Tbw+ONp6JFH0uCTT4brRTspq08Rjnk33BBuWogg2psvADzfkvx4CDyCwaVLa2mHvEcOKpmrFgtlM98mb4gpCnwwvy2cr1YQFCHyEHtZ3HWSMpk/U/exx6aec8+tpVrmz0paZjh5zO1htFqRJjOcEmghVNhIiyJljgAOwcXzxZlpLEJQHCEcNTYCN0QSqVK8DreKjeCwuGxTAe0huKQNCEYWqcaZwj0jjRAHDeGGc9Ao0mgPnxtngPRBytYz94ziGzhoVL1jblo75+ARDBPcIm5ZBoCUTNpJYROKmvBYKWrSKNL4DQimEYy0iZRM2khaJs4fqY88V9LZRFrBsYGg4phH7HNs089xkRFwjU4xx19x07lP3ykudennpOQykFOcaV7HwAzHq8ehiEwWhdo4mLSjltvEQtb9P/1pGshBVIgpTu75hE56Y9/VV6feHHjQ1ii7f6An+fy6KNWfLzKkOY5w0chBWY6Iau5a/juEWg7EcOiYA9eSfIHhdTEP7eijQ6CxDlo4aVdcEVUdu485ppZGSdDqRUhmIQRqBHG4aqyrRPBPqhSPI75IfWpMFywUAYJQQmzgFCHcCO4QaYg/grepgOCQ90KMIXqYh8b8rlIohGCyBJyNEFAiSJm3c8kll4y5aGXhX4JYPne7Ak7aSVCLW0bVSdyzO+64I9pMdUcCYAQnr2uE90co8lsgykhvvPnmmyPFkUIhuCME2QbHcqBwnHD8I+xx1XBimZNZ0mUZKOBYxEVrBc/Tx0mJpN8h3Hh9cdY4Hj0WRWSyKNTGwaSEWg48mPcVc9PWrKktyp1P9IgrhBNrn1EshBRDhBJtHxf59VEGP+8v7doV5f3j9t13ayX+84UD562DgHPlytr+m94jxF5dqLF4N6mS3SeeGItp8/3FXDdcAd5nvO0TmSEQvCFOCLhwcAi4GHFHJCBq+JsNED9lHhviAgGHMEOMEOAx4k4wh7jjbx4H3mOyc6d4L4QjoofFvKmQiCvFhoOGQCvzaRpFWvl8pHniQpHmWOahFQetFFpop/ApKWOkOSLMEGmINdrOd7SvKny0pRQ1wekjxRHXDyGJC8hvwufhcxkYy3jgeOEYL+IKkcbxxDHHIEWZswrNgq246YgzXDaO3+K0MTDCc8B+eR+PTRGZCAq1cTBZoYbLNbR+fZThZ/20fKZPXVk4Ic6Yl4abFuX3EUITgaAqXxQo+w/DuY2sycZ75ygmjfJ+uZ3dZ5xRu2jkxz4CI+d14RiOWm5XVxZ1/E+U2xeZYxD8E7DhriFqGHUnkCO4wz1DBLE1g9ggWMNdQ4hQMa44cYg8RNBkUvTYPyKNNlCAg2qOVElkPhrih4WraVez88f7FRFKAQ7WQrvxxhtjw1FjoV/a1c4CHEV44TKSjonb99Of/jTmzPHdEOCWoLaREtwiHHH4qDqJi4ZQY000xLNzgqRdIMhw0ilCQz+gr3OMlb7OQEPzIAIUJ505a/Q7+jruNv2TgZ7ipDuQICITQaE2DiYs1Di5M/q9bl0azEEUi2WH45XBsYoKiuedV3PTchBFuycFI/x5HxQtoZ0INIggLQuvnlNPrYm6NgZjIrOZIhoI5kiDJNWOgI5AjmCMAA5RVNy1RniOxxlpZ15WEW0Ed0AQhzA60CAOV45UK+Zz4UohzijEwfpoBJPNDloBgYgzRdl6UgcpwMFaYyW9szho7QIHguAVIUnFSQqFkOZIoRAELC5Es5AERCSpaIgxhCTijJL7Z555ZhQ6weVAbIpMFfRFjkP6On2G/s7GscdzuGj76usINJx01mAr5fwZjKBP0gfbOQgiIrMfhdo4mLBQyydoXK7Bhx+Oao+4aVFGv7MzSu3H3K9TTkld+UJAmydLBJX5IkM7h/PFgu8mXz1CwEX1xvxesQh23kTkk6FPIWIQZQRsCBtcNgI3XB0EB4EYWxFmBf5GtBCwlTktBG4ILkbZSyoi71Fum2F/7AOXjv8v5fYRarhUpDoyis9rGkVacc9oJ+0t5fZxpUqxEEb8+VztEGl8D8XpY402FgenxD6LViMmaSvfQbNI470RwRR0ICUTkXbxxRdHO6k6iduHeFOkyXTA8cjABcVGcNcQbPSTksbY3M/KfW4ZKCEFEneNPsl9+jrPIdRKP2M/9H0Rkf2hUBsHExVqUe0xn7xZM23wqafSaD555yglxFTP2WdHuXsKfbDOWTvgAkD6JN8FxUtw72JdNYQaBULyd9KZAx7TGUUmBsEWQVdx1pgrVQK5MqLeCoI1gjwCONwm5pcRyBHcIUBIs4z+m7dGeA0uGqIHB41CIYgeHsOd4z1bgeNHoRDmdFEo5JZbbol5XifncwDtLfNv2gVCks+E24cww0FjzhwuGu4CTkQryrptuH2l3D5uGuX2+W75rlt9LyLTAYMd9Bf6Oq4u/QohxwBKGURpBf2S/omLXlIiGcQogzMMkIiI7A+F2jiYsFBDJDEPY+3aSH+MNc4IOvKJPhazzgFJx+GH77ts/njJFwEKg/B90M6RN9+svWcOEqNACN9FbmsslC0i4wahVpwqgjbmrXHLRmoTLhrPIyyK2wbcErwhaBBzbARybGWeFre8jv/jdQg6nCmEGaX2KcRBQQ6cNZ5vFGkEgIgvBB8OFOmCzO/CRUOgUSGRQJPn2yHS+Jy0E4cMB405Z7h7iDPaSul9xCRuYqNI43vhO0Sg4U4y/4+20U62UtSE5xRpcrChrzB/DWeNjf7D3wzMlH7E8Um/LX0d6Mv0Dfo3Ig0nvbjp9Fv+hz5UnHWPcRFpRqE2DiYs1PKJeuTtt9NADrCGNmyItsX6Z/mE35MDkt4cQHUuWNC+OWP1k/8o7c0ijfTH0TInjhL9ua2U2aeyo4hMjiI4yrwqHCDcoeKuIaZaOUkEdCVFcOPGjXGL68ToPP2X55nnQoojhUJwpxA+r776avxfY0BYYJQe8YhjhuDBRWOOFymPCB+Cy/HMh/skaAOfjTQvqk6S4shcNMQka7kRoPI8n6cRglLagUOBkCTFkXlouGiIy+JOljQxkYMNfYbjFheMPk6xEdIiGaThWOU4LwKsuW+WfkLaLwMvVD9lkAYnnX7APhnY8XgXkWZmt1DLdC1eHCmGzM9CLCG0JrohsoZyQBUphaQvsv8DEGojOVDj9cxP4/9pS2duE4tUR+rjBRcwZDfxao8tIAzDSRvJwV8sBZADJsBJYy5cd77A0GYRmRwEcGUuGAEXQRvOGmKD0ffyGCBYigPGfdwoRt0J2BBoBG+INYTP888/HxUcSXekIAcCjYIkzcVCeH+CPeagsWB1cdCY20VJ+xNPPHGsHQSC7RBpvD/CkiUAEI+ISUQabhpFTfgMiEk+X6NII9AlXZQAFweNxaoRkzhouGrMT0NM8n3yWpEqQd+hD+Gi0ac5VhFqpdAIf+MAA8d/47FPn6HvI9hKOX+EG32FdGFuEXrl2OdWRKQjn0g+Xm92BjKaA5y9992X+n/2s9T/k5/E+mH5rJo6SfXDPVqxInVOcg5YCD1cqs2bY7Fq6Dn//LTg//q/Uk8WWz05SGoF/zOUA5rdf/Znqf/226OwCO5e10knpfm/8AtpwVe+UhNq7XLUgItCDqAGHnww7f72t9NQDvqgO7exNwdy8774xZgbJyLth9NqSVskZRG3CcGF2CIoK69pBQFa2RA6xWFrRRnlJzik4AYFOJiPhiu1isXq23lOqUNbCDhZTJuiJnw+xBrpma3K7BeKoESgIcxoJ2u4MS+tHWmYIgcLjnsGVli0nf7ARn9vHJRpBaKPAR3SkXHj6cO4y7h1uPIiIrPeUUOwJEag33kn3KXhHDhNdBvJARZiLeZ7DdWquh2Io4aI5L0pzU/aJG2ikAfzxXrPOitctbYvIp0vDHxm2j2YA6giLMNRY420M86IddJEpP0gStgQIIy4lyqRBF9l/bQyF61VEMfjbAg1blvBPBmcKcQOZfZvvfXWKMSBQGOEv8ztahe4AAhP5sdRKOTHP/5x3BKgIj6bHYQCn5dUMcQjDlpZC42/CUh5XvdMZjoMQuCkU7yHNGj6ellzkYIjOGmtoH/jkjOHjcEdXHP+D/EmIjL7hVoOhhBWIZayyJrURvXE3bvHRBocUOrjzp01ofbkk9E2oOoii0l3r14dJfpzpBKPt40i1LZuTUPPPJNG3norHlaoiUwPBGiIJQI2hBNCDXGFMCE4a06BLPA3WxFrjRAMlpQrRBrOFPO6ED6kO67O5xLSHNsl0kpqJiKNqnW4Zsw/I82RRbZJdSxpjo0iraSHMXcPMVbcAgQlYg0XjWCWz6FIk5kOxzCpxbhjCDUGZhrTjenrjUt2NPZrHiflkcqupEMi1phjStqyiMjsF2pTzAEJtSzwcLQGc1BD+yDK4/O/p52WerJoajsEevnEz5ptQ+vWKdREDiIEawgsRBsCC+HGRiBH0MbctEax1gqCQQJB5pwhem644YYot0+hEAI7RuHbmepIuwgaqS7JXDnWbKNQCGldFAohsETENbtoCETEKEIMIclcOQqFUHWScvvF7ePztNPxE6kK9EP6Kk4yC2bjtNHX6SulnH9zvwH6BOcB5pmSGiwiMuurPnYuX5668omy+9RTU8/pp9eqQE5wQ+TEItH5RDpaT2M4EKFGaX5EE6X5R155JURUJ+k++fU9zCPJ7aKtsbULhZpIZSAAw2HCQSKAo/AAI+4EcIiW4qAxst4KgjxEHkIHkYYrxXw05nshiHDq2iHSSjsY2d+6dWukNbImGu4Zc26Yi4az1kqkIbpoB8EphUHKmmi0F8FWBCpFVxRpMpuhL+ImM3hCv6VfsDFYw6ANaZD0s+KqF3iOvkH/ZmBDRGRWFxNhLbHeq69Ovfmk13PRRak7BzSTYXDDhjTw6KNp4N570+Azz8RjB1RMJAc2gxs3pj1//udp709/ylB1VHzszsHM/M9/Ps3/+38/dVDhqZ1VnrgI5CCLJQH2/MVfxDw1sJiIyMGFUy4BGsEaI+svvPBCuFTM+fppPj+0mpdGOhXpg8xDI8WR+SsEgaWkd7tED+9N23DMEGUUDKFAAm1EnNHmVu3j/QkwaSPiEZeP1C2qUBKolnayicwV6Cds9HOWqmhctJ5F4CnT3wjijgGcf/kv/2X6jd/4jfqjIjKXmdWTA0KBMlcjn/io/IizNpktKkfm4ChHHbH/AyYLsE7Kc/fWKzvmgAYhlSOicOfCoZsKvUwRlfffjyqTY/DeuQ3tXApARA4cRE1x1xAxuE84T2eccUaMureqgEj6FCmECKBSLIT0QipDtkOkIcAoFII4Y722H/zgB+l73/teOGkElBQLYZ4aIq5RpNFWHD3E2ac+9an0uc99Ln3hC19I11xzTRQLKfPQeJ0iTeYaDF7QR8vC7qeeemq4y7jMzFltpjhx7UxhFpGZjbO4pwFEESmTHYi1ElhlYTaaA55RhFq+3+4kIIQf67fF+mkNQg3nLtph0CRy0OFcgFijciOCjdF03KdmWKz6xhtvDDHH61uJuYnAeYKNYiC4ZsxD+8u//Mv0zW9+M/31X/91LCuAgGuuWEe72RCLzJkjVesrX/lK+upXv5p+6Zd+KdK2cP3K+nEicx36NesE4jJfdtllUWSnGQQaAxutzgEiMjdRqE0HOajqOOSQ1LFgQU0kdXaGy0W65iiVJKmY1lARqh0g/Kh2SQro6MDP1zaiDWNz7USkMuA4IcAYhZ8OSMXatGlTpGF9+9vfTn/xF3+Rvv/978faaGWtt1YQSJKKicP3pS99Kf3yL/9y+vznPx/irJVLICIHBn0fsTZd5wARqT6eDSbL6GitXH9DOlAzpDt2UDykLtZGcbNIIaLICBUhcb6aRqwnBW3Cras7apH6iIvHKHhuR9fy5Qo1kYqBUJuOII3URVIYEWOsiXbXXXeFQGOO3AMPPJA2btwYazoVcM5oG+4Y8+JIwyTVkVL7n/nMZ9Jtt90Wjhrz0yiUIiITo/Q1hZqIFDwbTBIEFuukpX1UawvqQq0jBzmdS5akzt7ecNBwvIZZ62z79rYuJxD7Zn4aJb/ffjvWkguRRjuyWKQSpkJNZG5CGuOOHTtiTTTcNNZEw0XjMQRc83xZgkaqTlK1kblnzEH72te+lj772c+Gi0Y6FyKOIFNERETah0JtsuBcIYr244jFHLW+vqj02JWDmihGwv9lARUl9F9+OVIgwwlrA4i+4Rx0IQBZv433iblpuHqLF6fOZctSp0JNZE6CGGN9tJdeeimqTVKCH3eNpQEa13JDoLF8AHPQSql9qk5ef/31UXmS+XKkOlL8gIIJIiIi0l4UapMliyuKguwX0hhyIMPcsM5jjqm5WSU98a23otQ/goq/2yLWchDGkgAjW7akkTffrKVVMvcFRy+LRbbkJH+ROQlijHLhFAmhoiNz1VpBChYuGgLty1/+chQL+eIXvxgV61grDZdNREREpg6FWpv4pKQf1nTDTeumzH8WTB1UbevoSCPvvJOGnn++JqzKfLKJgsjLQdjwtm1p8Kmn4jbSHrMAjCIiOehisevORYtqywSIyJyDinLMJcMtay4FjvjCJWMZgFtuuSX9wi/8QpTcZw4aDhrLAvA/01n0REREZK7ilXa6yKKMlMPuk06qOVq4ajnQYR7Z0KZNafiVV2rCajJz1XDostAbyqJv4JFHanPf6uX/Ow89NBbY7jr22BBtOHwiMvdAjFEanMqNlNCniiOii+3QfJ5gnTYKhVBqn405aRdeeGEIOFw2ERERmR4UatMFQi0HQZ1HHZW6TzstdZ9wQhQZicIfu3enwfXr0+DatWkki6twwSaQAklhksEnngg3DfGHCIyUy8MPDyev97zzUleLtVtEZO7B2mw33XRTOGdUbsQ9Yw00CoV8+tOfDnHGIr1lzTQRERGZXhRq0whOVqQ/nnFG6l61qlauPwdAzCEb3Lgx9T/0UNyOvPVWbV7ZJ819KwwPR4n/kddfTwMPP5yGnn46DeX7VJUkxbIri8Ouk09OPaefXitmIiJzHsrs45wh1hBmVHGk3D4FQ1iQ99RTT02HHXaYIk1EROQgoVCbZhBrvWeemXrOPTfmi1GJEfeMYiJDzzyT9v7wh2nvz34WaZAje/bU/2s/5P9lweyhDRvSwAMPpP677gqx14Ejh4tHRbZzzkk9552XOljo2iIiIpLBLaOa47XXXhvi7IYbboi/j8jnCcrti4iIyMFFoTbd9PSkzizQuk8/PfVccEHqqqdApv7+EGekLvbfd18auOeeNPjoo1FohHRIxBhl93Ha4va999Lw1q1p8Nln08DatWng3ntT/4MPpiEcOaq4IdKWLEldJ50UorD71FOjiIhz00QEmKuGWGOuGmmQVHhkTTQet9y+yM9hSYtdu3bFMhabN29Ob731VvqQa/IEpiiIiIwHhdp009UVLlfPKaekeZ/+dOrNYo2/EVCsdza0ZUsauP/+9OH//J9p9//+3+GwUb5/mDL7776bRt9/P26HXn01RN2e73437fqjP0q7/+qvooAIKZCRMpnfp/vkk1Pv5Zen3vPPjzlxVnoUEREZH4gyRNqTTz6ZHnrooVjWYjvrlB7o9AQRkQmiUJtmYr4HC2AfdljqWbUq9Vx2WZr3mc+knjPOqJXNz68Zee+9mGM2tH59GlizJu35/vfTnm9+M+3+8z9Pu//sz9Lu/+//S3u+/e209+/+Lg3gouG65YsIrhtQMASB1nfttakv30YBEVKZLKctIiJyQJTF4deuXZv+LF97v/Od76S/+qu/St/4xjfSj370oxBs77zzTv3VIiLtx8j9IMFcsc4VK0JIzf/a11LPhRdGqmJHX1+t4iNl9rNYI51xz7e+lXb9wR+kD/7zf04f/O7vpg/+3/83ffhHfxRuGq5aLGpNpUgEYG9vlOGff9ttad7NN6feK66I5QBYx01EREQOjP7+/hBid9xxR/q93/u9EGvf/OY30//4H/8jffvb306PPvpoOG0iIlOF0ftBpuOQQ8LxmpeF1YKvfz3N+/KXUx/iatmyAyv80dGROubPj9RGHLSFv/ZraX7eR88ll8RSADwfm4iIiBww7733Xtq0aVOkOe7duzcNsy5pnXfffTccNeariYhMFbNGqI2yYCuiZ/nyKKBB+XvmaHUffXTqPOywWsGOSdKJC7Z4cepeubK2/7x1HXdczQljAesJgBjrOuKI1JuF1fzPfS7Nu/XW1HPVVan3nHPCGUOAsUh1lNhfseLnWxZ3vHfXiSfGumwUJum77ro0/wtfiNtIpcxtVaSJiIiMH+ambdmyJe3cuTPSIBvnpFFc5LXXXgsxJyIyVXSMzpayRZxE3303jbzzTpS6ZyFpRAppf7EdfvikS9OPfvBBGs4n7NG3304j778fj3UuXJg62H8WRbzHhKHMfv4MFAvhc4zm9xnOF4B4z/x+PN6RLxKj9QsFZf3jMy1aFEKUxbQ78t+R5phFo4VDRGYWf/zHf5z+4A/+IIK/t3Ofb+RXf/VX0z/+x/84qjNSmVFEpp6NGzemBx54INIcf/jDH9YfrXHyySeniy++OP3yL/9y+vznP19/9JOhauT69eujv3/rW9+qP1rjqKOOivULv/71r6evfvWr9UdFZC4ze1IfKXu/bFm4S71XXlkrpHHNNannzDPDgWrH+mGIou7jjks9559f23/eei66KHWfeOLkRBqQwtjbmzqPOCKcOvbbd9VVtfe57rrUd/31qbd+yzaPjb/zxudlnbRoB4JNkSYiIjKlWJ5fRKYa56hVFVIWs3DryMKrB3HIumurV4fwZCOts3P58pqj19VVe72IiIiIiMwKFGoVhkqNHSw8i2AjnXHBgrEtUR0S50yRJiIiIiIy61CoiYiIiIiIVAyFmoiIiIiISMVQqImIiIiIiFQMhZqIiIiIiEjFUKiJiIiIiIhUDIWaiIiIiIhIxVCoiYiIiIiIVAyFmoiIiIiISMVQqImIiIiIiFQMhZqIiIiIiEjFUKiJiIiIiIhUDIWaiIiIiIhIxVCoiYiIiIiIVAyFmoiIiIiISMVQqImIiIiIiFQMhZqIiIiIiEjFUKiJiIiIiIhUDIWaiIiIiIhIxVCoiYiIiIiIVAyFmoiIiIiISMVQqImIiIiIiFQMhZqIiIiIiEjFUKiJiIiIiIhUDIWaiIiIiIhIxVCoiYiIiIiIVAyFmoiIiIiISMVQqImIiIiIiFQMhZqIiIiIiEjFUKiJiIiIiIhUDIWaiIiIiIhIxVCoiYiIiIiIVAyFmoiIiIiISMVQqImIiIiIiFQMhZqIiIiIiEjFUKiJiIiIiIhUDIWaiIiIiIhIxVCoiYiIiIiIVAyFmoiIiIiISMVQqImIiIiIiFQMhZqIiIiIiEjFUKiJiIiIiIhUDIWaiIiIiIhIxVCoiYiIiIiIVAyFmoiIiIiISMVQqImIiIiIiFQMhZqIiIiIiEjFUKiJiIiIiIhUDIWaiIiIiIhIxVCoiYiIiIiIVAyFmoiIiIiISMVQqImIiIiIiFQMhZqIiIiIiEjFUKiJiIiIiIhUDIWaiIiIiIhIxVCoiYiIiIiIVAyFmoiIiIiISMVQqImIiIiIiFQMhZqIiIiIiEjFUKiJiIiIiIhUDIWaiIiIiIhIxVCoiYiIiIiIVAyFmoiIiIiISMVQqImIiIiIiFQMhZqIiIiIiEjFUKiJiIiIiIhUDIWaiIiIiIhIxVCoiYiIiIiIVAyFmoiIiIiISMVQqImIiIiIiFQMhZqIiIiIiEjFUKiJiIiIiIhUDIWaiIiIiIhIxVCoiYiIiIiIVAyFmoiIiIiISMVQqImIiIiIiFQMhZqIiIiIiEjFUKiJiIiIiIhUDIWaiIiIiIhIxVCoiYiIiIiIVAyFmoiIiIiISMVQqImIiIiIiFQMhZqIiIiIiEjFUKiJiIiIiIhUDIWaiIiIiIhIxVCoiYiIiIiIVAyFmoiIiIiISMVQqImIiIiIiFQMhZqIiIiIiEjFUKiJiIiIiIhUDIWaiIiIiIhIxVCoiYiIiIiIVAyFmoiIiIiISMVQqImIiIiIiFQMhZqIiIiIiEjFUKiJiIiIiIhUDIWaiIiIiIhIxVCoiYiIiIiIVAyFmoiIiIiISMVQqImIiIiIiFQMhZqIiIiIiEjFUKiJiIiIjJOOjo76PRGRqUGhJiIiItIEQqyzs1NBJiIHDYWaiIiISBPz5s1Ly5cvT4cddljq7e0N0VaYP39+Ouqoo9KiRYvqj4iItB+FmoiIiEgThx9+eDrttNPS0UcfnQ455JDU09NTfyalJUuWpDPPPDOEnIjIVKFQExEREWkCR23p0qXp6quvTv/gH/yD9KUvfSn9wi/8QvrqV7+aPvvZz6bzzz9foSYiU4pCTURERKQJHLRDDz00XX/99ek3f/M30z/8h/8w/cqv/Er6J//kn6Rf+qVfSueee25atmxZ/dUiIu1HoSYiIiKyD3DWSHU8/fTT03nnnZdOOumk+LtxzpqIyFTgWUZEZA7S39+f3nvvvfTWW2+l7du3pzfffDO9++678fjw8HD9VSKCs8YctZUrV4ZIW7FiRRQRsRqkiEw1CjURkTnItm3b0uOPP57uvPPO9P3vfz/dfvvt6dFHH43Hd+/eXX+ViIiIHCwUaiIic5DXX3893XfffSHUfvzjH6cf/ehH6ac//Wk89tRTT6VXX301vf/++2lkZCSNjo7W/0tERESmC4WaiMgc5KWXXgoX7Y477ojbH/zgB+mv/uqv0l/8xV/E/bVr16atW7emwcFBhZqIiMhBQKEmIjKH2Lt3b8xLw1FDrHH/gw8+CPcMYbZ+/fp07733pr/5m79J3/ve98JlW7duXcxjc+6aiIjI9KFQExGZQ+zZsyfmoSHKEF/8Xfjwww9DwD344IPhrv2f//N/0ne/+91w115++eUQeYg1HDZdNhERkalFoSYiMofo6uqKcuPHHntsOuecc6LMeCsQZK+99tqYaPvGN76RvvOd76QHHnggxByiTkRERKYOhZqIyByiu7s7LVy4MJ1wwgnpwgsvjNvFixenvr6+j6wLRRER0iKff/75dP/994/NY7vnnnvSk08+GcVG3nnnnXDkTIkUERFpPwo1EZE5BIIMF+3MM89MN954Y7rhhhvSpZdemo466qhw2prXhkKwsbbali1bwk2jlD8FR5i/xt+bN28Od43XiYiISPtQqImIVACEznSUwi+pj8ccc0w6//zz03XXXZduvvnmdPXVV6fzzjsvHLbDDjus/uoU7cEx27VrV3rjjTfShg0b0kMPPZR+9rOfpZ/85CdReOSJJ55Ir7zySiyY7dw1kYlR+pp9SEQKCjURkQqASJvOUviIsRNPPDFdc8016Rd/8RfTV7/61fT5z38+XXLJJenoo4+uv+rj4J4h2Ji79rd/+7fpL//yL+O2zF2j/QaaIuOnnANMJRaRQtfvZOr3RUTkIEFlRdwpnKuBgYH6ozWOPPLIdOihh4YTtmDBgtTT0xPO2GRgPhrz1Xp7eyMdkv0uXbo0RBoijnlsbKRCNgaPiLASUJISuXv37rRz584Qb++99160HzHH69g37yEy16FPM6dz48aN6dFHHx2b59lI6YsXX3xxuuCCC+qPishcRqEmIlIBcKRIJ6QE/tDQUP3RGggzAr1DDjkkBFsRa4io5jllEwExhTgjHfKMM85Iy5cvjwIjiEHaU8Rj83sh3liDraREvvnmmxGM0n6CziIuC+1oq8hMogxs0IdID37ssceiIM8LL7wQAxyN0A/pc5dffnmINRERhZqISAVAqBHAIYiaU58QPrhVBHasfcZ9XocYIrBrl2tVhB8ikIIjK1asCPGGaEMcEnDSNt67FTzHPDXWaKP4CO3FXWOfOHiNok1ktoPb/Pbbb8ci8qQKMxDDLX/zOI50I/Rj+t6VV14ZBX5ERBRqIiIV4OGHH44gDhHU7KjhaiGAcKsomY+LxeuKQEMEsU02HRIQVYiyI444Ipw10i5x2+bPnx9CjedpX3EKGqFUP23EWUNQvv/++2MLahcBCLSVv9lEZhP0C/pmcZpffPHFKL6zZs2a6N/PPfdcLDhPn26GtMdFixZFYR8dNREBhZqISAUggGPNMoQNI/GtQCARAOJYsRHw4a7xOOKKIK9d4of9IATZL4KN8v0skn344YdHQEkwSjsRawSnjfAYn2PHjh3RRkr4464RnCLWEH2ISgSbyGyBfoCrTN986qmnYv3BO++8M27XrVsXAxj0meaBmAIu9sknnxyOGovRi4go1EREKgCpUIgbgj02hEwJ/ArcJ10Kp4oN8cNW5oUhkEpaImmRkxVtCCn2gwDEVSOQRKhRdITHEV3F1eN9i2CjHRQbYV4O7aR9JXWT9vMcG+1rtXabyEyC453jGxf5pZdeGpuHRtGQp59+Or388svhhHPsN/ZnjnsGLehbONeIs2uvvTYWol+5cmX9VSIyl1GoiYhUAIQPwRpuFQKJgA7xgwtVBFAjCB2CQ0ri48Yh9Mo6ZuyjFANpFwgyBBtVIU855ZRw2RBsiDUCUN6/MQgt8BguAs4aaWC4CjhttJ92Llu2rK3tFJluOJYRY1RyvOuuu9Ltt9+e7rjjjjje6Rf76sMc9wx+HH/88bGG4S233JL+/t//+7FsRkkTFpG5jUJNRKQCELRR1RHHCjHEiDrFPBBHCBoET6PDVu4XMceGUGPkHucKd47H2C/CrzhfE4XRf/aFoMQFY6OtiEuCzcZy/sVRA9pZ/kbQlXbiPuC0UWyEjdeU/YtUHfoX/QwHjTRHltYgxRGxhkDj+C4OWqNIo9/goJ100knhoF111VWxliHFQ84999x43D4gIoWOfAL5+DCPiIgcNBBfiJlNmzZF+hTb448/HsEfjyNqWp26GYVH7K1atSqKEVx00UXp/PPPj8qNiKlSxKNdFAFW0r0eeeSRaCd/45yVdja3lTbQlhNOOCHayMa6UTh1zIUr7WxnW0UmSzmW2XCFX3vttTjeSx9FoOEel8GURsoxTz9kIIb0Ro57bumvDMjooolIMzpqIiIVg6AOd4lCHjhWpBkS3DUW8ihz0prhMVwrnDXEEpXnEHeM7uOqEQyy73aJIPbDPkm1pK0UHCEYpe1AO9maxRoQ0NI22kkKJw5Fs7umWJMqwPGLi8axSmEQltOgUAiVHJmHRmovx26zSOP4xUUjxffMM8+MNdJuvPHGKBhSBlEQafRNj3URaUahJiJSMYr4wR1D/DAXjNuSBomLVYQPtyU4LPcJGBFqjPrjwlHUA/FGMNjoVrUjHZL9URCBNhKM4oiVRblpT2P7EGyNwSjiEXFGOxGUFB6h7VDa19jOxv8VmS7oO8wH5RilMiviDKFWyu0zyFAqoDaCQKMvkMKMW3zFFVeMbatXrw5HmXRhRZqI7AuFmohIxSGQK4U8jjvuuHDYcLAQc7hrBJGtKKKN0X7StHADEEYIPdwq9tFOcMEQbazBhrOGaEPA8RgijXYW8dYIAW4pSEIwzIZ4w8FgnwS7CEI2kenmlVdeSU888UTMQ2PR6vvuuy9t2LBh7Bht5WwDfZV5aKyLhot2/fXXh6tG/0WgcWyLiOwPhZqISMVBqJXRedIfuUVklVRIRuNLmiDirASO3EcAsfYaIqmxpD8CD3geeI/JCiH+vziBFExgo52INdrJ86W9jamb3PI3opI20lZSIik2gptRPgeU1E2RqYKBDI5DBjio5ohzhkhjHuYzzzwTj5U+1CjSODbpm7jfVG6kQAgijbloCDbWSCt9wWNYRA4EhZqIyAwCQYUAwl077bTTIt0QwUbgh5ghBauIsEYQOwSfJX2ruGsIJAJHxBW37YL2sE/SvmgntzhtCErek7YU8dUI7eQz0D6KqZC6WdagIhDmsyJaRaYKBgwQYwgzyuz/6Ec/Cift1Vdf/cggRzO4ZLhozD3DQbv11lvjFoHGsV8GKUREDhSFmojIDIJAD7GG4GEeGBvFOxipL2XyCQgRPKQYIoqgzBXDLSil+3GtSDdkQxwhhkqKIaJoMtBOxBr7QVixIbIQlmyIOFIieR1tawx+cSloJ+1hw2ErxVEIost8IP63neJS5i4cU/QDBgeo5IiDtnbt2kh5RLSR5sgxSR9qhGMY15jKjVQuxUFjDhr3eYw0R45R+qwiTUTGi0JNRGQGUoQQ7hrzwdhKBTmEFo5VETvNIIxIh8RdoxDC5s2b42+CUAQUIpAAFNoVXCIgcdUooMCGaON9ihgrRUSaKe4awTKORqlgyf8i/v7/9u7tR7Ky7N94/w6MMeqRhsQDhYDDDJtho3GEAxhEHPTEP9YjjBAhgAm7OAjDfkZFicZ4ZkzUo9/7WS93v2VZqNA1M6u7ryupVHdV9apnrVoz/Vz9vZ972d+hiXB8Wgi/856IOb+UOUrPnn766UXYnHea8Wzj35h/f/444pqHDz300LIG7YknnlgujUHS/Nv0us7LiPisJGoREScAk8Zp5EGI3Ewip5GHFG0XpE26Zj2YMsM//OEPy9fTyGNSr31MNmc7UjaTWGkDwZQGEjnPSdYmDdzGfhBK6Rq5lICYRHu9be5jnV2cDgia894fK1yw+oUXXjj4+c9/vojalStXln8L/kiwnaBN2uzf1/nz55c2+wTNhautQ/O4c7kELSL2QaIWEXHMGfkxQSQ/SgvdS62URhIcN+KFzcnnSJxEwU16pdRQwuX1tjtlhvuYfJroKgUjkdPOn7RJ8mx7xkbUjG2Y8kiJGlEjlL4mbp6b5MK9ceKoY42Th3PF+W6tmXNIcxCSRtCUOlq/Sd6mic3gXPJvybmqWYjujSRNmaNro2m3748OXpOkRcS+SNQiIk4YJorEhwRpZECIiBFBIj/KIsnXNiamUgRpwrVr1xZxm86LtjlNS/aFbSlflKjdeuutywTYWE12jcVkenOyPBi78keipnTTeAmmsRO1GaevIzZRDnz16tVl7dlzzz23lDk+++yzy2MSWuf6rn8b/mChk+P9999/cPHixaXEUaOQO++88/Cc3ee/jYgIJGoREScME0ZSZv0WCSJtGh5IA6aU0Rov6YLbyJAJqtRKOSFBc0+WCNGUTproYjO5+qzYxiSBxme8hNLNxNc4iZzXGdskbMbsa2Im/ZOqGaebx0bk3DsW3iNOL84F54kETbMQ6dmLL764dHVU5mgdmnPIub0paf4NabfvDx7WnEnOJGgXLlxYyh79EcTzXpekRcT1IFGLiDjBkB0CZLJ5++23L239JU4kS3pgEut+F0RNWiVtUA5G2IiciSmRmoYj+4CMTenmmTNnljbn1tt5DyKpFHNXw5EpZZP+ffDBB8vaNaWRhG2SRbc4vRB4F61++eWXl3b7Tz311MEvfvGLw+Y0myW2m/jDhvNQcxAJ2pNPPrmUO/p35A8gR/1DRUTEfyJRi4g4wRC1SZVID8Ga1IoIkRjiNcnaZqmhdGE6R866HkkbKSJxpM32J13z9VGYhG3a+UsrjFFJpHEav30xVuNyj0nbjNNNaacyNpIpKTF2z9u+JPGo44x147wg6oT9vffeO3j11VeXdvtETeOQzeuhbZ7vzgvnmHPOHwtcqFq7fR0dXRtN6aPnnJslaBFxI0jUIiJOASahZIr8TCt/aYG0zaRTWiVZGwEaCQIRImZSNTfphO+9lviNWHmPfUmQCTNB0/pciZl0w3t4T+M0Ed8c4+A5E3Rr1yRsU7Y5Akj4CBsStpPH/HFhElbJmW6O2u2/8cYby7m769yZPxL4A4bETInjY489dnDp0qVlXZpz0Lnj30rnTUTcKBK1iIhTiIkpGVLCpRxSyaG0gHhJGSRRuzARllpJJKz5kVrNBbNNYOe6ZvuazBrnCKYxKuHUvMH7eG4m3ca1icekaARUoxFjdW+/7B9p8/MlIycDnylBk5Zdvnz54Pnnn1+ahRC1d955Z5F3Er+ZoMF56hzQzIaQSdAImnudHP2xYNrtR0TcaBK1iIhTiIknKSNnrv3kXkMPk1LSQ4AkDCayvp8EwkTXhHdKC91LrSRsXmubs+bHBJgMHQU/r1zRujqi5ib1GFEzOfc+xmhsM84RNU0kTNJJGrlUFul1tuln/Ow+xhk3B5+lc9U56Hx0kWqNQjQMUfJI0nz2/riwKWk+c+eqpJb4K210LTRJmjVp2u/7d+GPGUlaRNwsErWIiFPOTFqlB9qNjwyZpI60Wc+zjeeUFRIhDUdMiImbx4gP6bP+bV/YpiTM2G677bZlIm2s3gfSMhPybUib8ZvMf/jhh8s4//jHPy5yCWmd7cbxw2fo3NPBUav9Z555ZlmPpsTRekrnw8j7JsoYrTkjaI8//vjSKMSFqzfXoSXvEXGzSdQiIk45JqSESko17fzJkLRhyr7InAmv2yQTI0Amy5vt/KVYviZyk65J246aTNiGlI9Ubrbz9zXZMkbPz1ilbfC1cRDISf+MdxI24/Rar3EspG2xXnyOzrGPPvro4O233z68WPUrr7xy8NZbby3lj0pefaY++4F8OU+sz7zrrruWJiFu3/3udw/uvffeRdKc+z7/JC0i1kCiFhER/wQ5k1ZpNqKZB2EzeTVBJmYStl14XFplouxmMu31JNDNJHifmHhLP0yw3UimsRMu5ZkkbBeeI2ou6u0aWtPFkuBJEZVZxnrxefncCJoETbt9JY/OuU+6mDucH9aikbNJ0XR21DzEZ56cRcTaSNQiIuKfmGSKCBEfk1iTXDeJxLTzn8RiUotJ0JSbkbZpk29i7WvS5rWTeknIjoKJtW0ZD8GaJFA55HSJlOIZlxRwJvDGYJzGQ9qMlbhZ42SchNS+2b5xusXNw2fnM1Guas3ZSy+9dPDCCy8s7fZ1clTO6o8CzrtNSfO5OQf80UFJr7Vn1qERNY1DlM9KY507SVpErJFELSIi/oUpVSQ/ukJq6S9hI2qTrkmhRoBG1uAx8mNirTxtO13bLKc8qqzBNmxXUwjjlJAQNiWSM5btZhIDISOTxqmd+5RwmribwLsZq/fYx1jjv8c55dya5jUkjaBpt2892ptvvrlchsHzm4IG55Zzwh8Zzp49u1yoWor2/e9//1DSnB9HLceNiLieJGoREfEfGRkiQMohSZGyQ9IFjTy2J8sw2SZo1oaRIY1H3KwhguRrn2mGcUrZCKZW/tI1TVJmDZv3Nc7tsRrnSJ1kTQnnJGzSt0ldStduDD4f543y1F/+8pdLu/1nn3126eioeQhx2yVo8PkrhX3ggQeWNvuahFy8eHG5iLXzlqD1OUbEcSBRi4iI/4jkgawof9SMQckYaSNqBEbCNpPfSUJAfkyo57pr7ie18jo/P0mX7RxV2vy8xI8AKnkzXkKp8Yh9kKzNe2wKm7EQMmI23SuVbBJQj9um1xBB+9lE//og4XQuOU9cXF2DEHLmemjWoWke4vzZLnOc81OC5nNX5ihF027fOjTNQpwLSiH77CLiuJCoRUTEp4KsmPBKJyQXxM0kmHSZPJtEk7NtiI7nSJCkRMI2jTwmsZN27AvbJFikUhMJ45SwSdc8Rwgm2duGMCjX/P3vf78Iw6Rr9s8Y990YJf4XgqYE1fozjUJ++tOfLk1DrEOTyvpcduEzdi4SNOWNP/rRj5b1aEoc/UHBeeAzj4g4TiRqERHxqRgBImYmwdIrSQYBIjCek1p5HTnbXBtmok2OpjW+yTchImuem5TLz8/asM+Kn1UGN0mL8ZnQu/ne9qUr7rEpAVI0smlsUjXjNGb3njNGr59jcZRxnmacH5OgWW+mOQgxI2ouWC1BI/RKUjc/H8fb5+qztC5RYqbNvtuFCxeW75XoOkf7fCLiuJKoRUTEZ8Lkl1CZMFsHZsIs1SBu0jHpmUk44TEh38bj1quZiFt3RIo8ZmItsZNcTZniPjAmyZ+mKLoAkkxiSbq8L1n09TbWSim3IxLvvvvu8jV5s//Gue91dqcJEu8ceP/995fyxqeffnpptz/dHKdEdhuC7bPUOObhhx9eUrQf/vCHy7o0jyl17TOJiONOohYREUfChHja5BMfyZV1YURIckVmSA1pw0y83UuniJDEhPwoiyRCkiui5zW2O1J4FPy89IwIkkBpy6xhk8wQTvsxidlImzEQCuO0D27GqGxTEuR7z9m292gN1L9n0kplpRIzF6u2Dk3b/StXriyPOxfm8x8cV+eCEtZz584tydmsQ5OgKW917jnfkrSIOAkkahERsReICgGai2Vr60/WJl0jN9icfGMajmjiIbWSsBE2P0OqSNQIEGFzOwq2RchImkm/Cb61a8ZOzqbT42ap3WCs5MwYXXbAmJVyGtOUfU6p3VHHedLwuTu+xJaIS810c9Rq373vNZzxuW8mm46jz56AScrOnz9/2G7/0UcfXVI0aa7np4w1IuIkkKhFRMTeMbkmaBI1IqTxyDTyIEom67tEyGReOjWNPJTFkaHNRh5EaF8YJ2mTrhFLYySayhlN+gmk8WzLpe9J22Y7f9eNM277Zd9t174mbP8LodUo5LXXXlta7bsemnLH3/zmN4v8bgvaQIDvuOOOg29961tLm31ljgTNY9JQSWgJWkScRBK1iIjYOxIQE2iJmrTD/Vx3jQCRH5NyE+xJWuDehF3iotuiCbwSQ5P8EaD5GRy1zNC2iB+BnHb+ZE1yI6EZSRvZImfwmNTNGiqiJgEka0r2yB1Jm5/xHqc16XH8fHY+T0KmvJGcKXV0fTRr/sjttqT5TEj5iL5ujtaiuS6advt33333YVltkhYRJ5VELSIirjsEiwSRNhNv5YzTyIOASaZ2YaI/HQE1l1A+SY5gMm8b+8Q2pWk6BhonuSQEhNBYJHu7IG2eI5fGSdrICbGz77Z5GiGxUjTr0H72s58tjUJcD01aOiWmu3DcNaZ56KGHDhuFEDTt9n0eRDgi4qSTqEVExHXHxFpCQlhImns3oiUVkT5JRoib2yRmJvIkTupCfEzu3SRXk3aRISLl54+arki+JIHGRgg27wnXlEpixgpjkAoZm7G6N143j8N4/fyM9STiOEyzFcJ6+fLlJUUjakoeNQ8hsT7TTUlzTJwHZJ4k33///UurfaI2CdrXvva15XxJ0iLitJCoRUTEDWFkjAgpL5x2/tNxUbKmTI7QTInhQMg8rgxSI49f//rXiwyY8JMrErjvZhKEwNg0HNHO3zo7JZH2g4x80jo7AkLWjFNpnzH73j4Y41zb6yTiM1IGSsg0CNFu3+3NN99cUjRloSPhmzgejvXZs2eXC1U/8cQTBz/4wQ8O7rvvviXZ9Pketcw1IuK4kahFRMQNY2SNBM06JOvDiJvkys1jI0OTWMEEnwSRAYImVZsW+ZIrj3n9rFs6amplDMTPOInktPN3s+bOOO0HWZtkD/O1x4mJG6mcSw8Yp33ws8Z43Nev+Ux8VhI0QiY9sw7NhavfeeedpRxUuap93pQ0+y6l1CH0nnvuWRI03Rzd7rrrrkXknRuzLjEi4rSRqEVExE1hkjAXy3aRYvdSKxNzkkPCNssgBxJEfjyvQYVui7pDesw2iZT0xY1suR0FkjDpGqmQsCnDI27GpszReLfTtRE2EildkyiNtHiOhIwEHnWMNwP74POZUkdrz6RozzzzzCJpr7/++vIZEbRN4bavU+qopPTBBx9cUjRr0dzr7kjcPV+KFhGnmUQtIiJWARmSqFmjRISmkQf5MtknYruQ6JAlMjTSRo48TvqI0L4YybBWiljqFOkmYSNd1qNJzHZB2jxnfJpsuGaYfSMlZPC4SQk5e++99w5eeeWVpdU+QXv55ZeX68ttrs3bxrH65je/uaw9+973vndw6dKlpaOjRiEkm6AdR3GNiNg3iVpERNx0TMxN0ImZ65lJ1kzap3nElBJOCdwkNFIdQmANGPGR4CgxnFI7IuTnvd57+PmjSICfJWQjapvXh5t1dm4jXcY9EEdr8IiacbqX0hFT++62Zhxrx3Ta7ZM0YiY9m3b7V69ePWz0MjhmhFkC6fM9c+bMYbt9CRph89hmw5aIiEjUIiJihUypIWlTFulrcgQipNyOOGzjuZG2a9euLakPcQBpIwv7XO9kmxqMKIckG1JAYzV+Yua9N8v+BgJHJokLQSGlfm7NGLPEkqBZg6ZJiHb7V65cWS6fYH82xXQgrWTW8SFnShyffPLJw0YhJNdxjIiIfyZRi4iI1WHibv0aCSIxJvOkhqxJnsiWGxnCSBtRIHEEaSSNuJEIpZOzrsr2ZxtHgYQYj/EZp/GOfE1TlEn05r1hnJLAua6ctW8kb204vo6n9M96QKmZFE3DEF9rFiLBVNK5KWmOr3RM4qik8YEHHji4cOHCImrf/va3l2YhnvN5JmkREbtJ1CIiYrUQIaWGJIbUKBP0NQkiBiTM/QjbQIqkazpCauIh8SEbhIKcTYpDovaF7RI0KaDLDli75n3I2nR63F63de7cuYPz588frs9aGySNiL3xxhuH7fafe+65pbuj1NI+7UoMp4z13nvvPWy3f/HixeX6aD5HZaI+28ocIyI+mUQtIiJWi4k8ASJV0yGRDCmlUypIBpQzmvRLzDaFjaz5nkxMykbWrK9ys9aKZNguYTuqNPh547At4zSuKYUkYR6b9EhDDdcMe+yxxw4eeeSRpXkK+VwDxFcC6Vp1BE16Zg2aC1cre1T+6HkiPEkm7L+ETEJI0LTbJ2lSNPtKYImr4+21Rz3eEREnnf/3P//J/muRf0RExMohEkrvXnvtteWm++Cf/vSnfykz3IZI6DqoBE8jC40tNAYhWNcj5SE2OiFqumGcxkwwtaG3Vuvxxx//+JU3F8fLjfC6jIDjOcfWej/J5C6mhJSEShEdT8fV8bUuTVlnRER8ehK1iIg4lkjIlDbqoEjaiMXbb7+9rKVSlic924XURyo366dIhRJETUs0BZHW7RNljxIoLflJm3tS6H28J3FcA8amRJSUOY6ui0YwHUeXP5BA7oLkTrmntWeOp+Pq+DrO0wQmIiI+HYlaREQcewibdVNK9X71q18dvPXWWwfvv//+IklTErkrYZNskQuleroQulempwzROitCJS3aF8ZhTMYivdNwQyngzcAYlIU6PsbkmDl2jqFOju++++4iaNs4Ho6L4+M4kdx77rnn8Pjdfffdi6BFRMTRSNQiIuLYY72UhE26Jhl6/fXXD7sSSth0gNx1AWbCIfGxZkzCpdnFgw8+uMibhMgaM0KyL/zKtQbMvRLLKRu8GVi3J92ToDlOErTLly8vzUOs4ZMCbjdpgeMxaaTj5Hg5bo6f4+h4Oq4REXE0ErWIiDgxSIikQ0ohJWrSIWV8ZITASd5I3WYreUxCRD6sq5IMkRBr2TT60BBE8nXcW8nbd8LqOFiH5hhJ0iRovia1XrMtaNPMxXFwPO64447l+OhY6Xg5bpNARkTEfkjUIiLixOBXmhvZkBgRD50KpUUSNomRcj7lfptMF8IRNpcBICAaYkiMXAdMmeRaOjN+VqSOEjPHwfHQKOTq1auLtDkmjhu2pwb2m6RN4jiNQhynEbQ5hhERsR8StYiIOJFYg+U6a5ph6FgoWSMn5E3TDGV/nt9GKeJcwNo1v6zBIigaf0iOdDY8Tmuw/JpXyqjBiqSRmFmLZg2a40LclDnumg6QU/ur4Yn9dxwcD8dlLkR+s0o3IyJOOolaREScCqRG081QkjTSNmvGdjUbAVG58847l3b6Ohq6Wb8268vWKir2x01KRs6m3b79971LGexic7/I2VzGwP47Do5HRERcfxK1iIg4FVi7Zm2WJO2jjz5apMUaNrJG4iRv22vXoOxv2vlrQ09arM0ia9r5a0+vg+OasB8SNMnhXLiaqFmnp+GK8k+lodvYD/tjv+yf/XRdNOvS7L+EzYW7IyLi+pOoRUTEqYLEkBQNNAiMDpGSNqWA1nB5blc7f+uvNNTQaMRNGaC29EoBlQASGE03bpa02a9Zm6ekU5MQ+6fM0b76ftagbWK8xm389mPa7ds/ouZr+936s4iIG0uiFhERpwq/9kjYNNaQrmlPrxSSsGk+QnQkcNsoB/zyl7982P2Q1CgJ1AFRWaD29F/84hc/fvWNZfaHcJIyJY72S4mjNWqe3/Ur33jtj+vHuQaaZiH2a7pd2t+1lndGRJxkErWIiDi1SJg00iBrH3zwwZJAuf32t79dyiFdf003xO10TQKlJFKJoFb1kicpm3JBjTYIjoTqeqZrfn1POmicyhytPXPhbwma/VH+6Pntkk7jMj5iOWWOxm8/7I8STwJ33C9HEBFxnEnUIiLi1OJXIAlT6kjarFcjOJvt/CVSntv8dTmt6Of6YuSM4EjXJFJu1nppXX+9SgaN569//esiY8bqZt3drLkz5k8q4TQu43PZAWN2M377MdeLK0WLiLi5JGoREREfo+RR+aC29S4ATdjc+56weW4X1nZJ0YiOi2QTNdcZ+8Y3vrF0SfzqV7/68Sv3g8YnZEzyp1STUErTjFOZo5RwF8ZhPMZlfMZpvJMC2o+IiFgHiVpERMQOdIhUBjnt/DXlsOZLQjW3XeiMaK2XtGoumK0hx7S8/6xJ1eb7aoBiTJvj0slxF5vvaxzGY1zGZ5zGGxER6yNRi4iI2MHf//73Ze2Xdv7SK3IkudLu3po26ZrXbKN0UDp1yy23LOWFxMjNxbIlV9rcKz38NFhnJtH78MMPl9LGKc2clE+K9o9//OPjV/8f3sf7eV/r0IxDN0epmvEZp/FGRMT6SNQiIiL+DdZ5ETLdFDXqIGyadSg1JEm6Q3rNroYd1nrppjjt7t3rDqkEUTOSz33uc5/YcGTWzdm+UkcdKb2/BM29kkzp2vavcduzXdv3Pt5v3l/DEN8b1/VsdBIREUcnUYuIiPg3+DVJiKz7soZNqkWSpGuETdmhREtjj02m4YjuiS6YPevXlBwSJy39dV3U/n4X3oug2T4xk6Bdu3ZtSfeUOXq/Xb/Cbc92bd/7eL9Zh2YN2pe+9KXDsUVExHpJ1CIiIv5LCBuBUg6pOyRRI2yaeiiHVCq5S6CsDyNQyg11V5yESznk17/+9UWsJGB+zs9bH2ebUjsJmuui+frPf/7zIoyb2x/pImBKGTUKsd1J8Lyf9yVpyVlExPEhUYuIiPgUkLUpS5RuKYkka9aNuZe47SpJJGvKDa0Js0Zs0rVZwybxUj5J0Da3Z03cXCLA87a9ie0qZbQGbbY3KZqLVk95pddFRMTxIVGLiIj4jEi3pFzSNIL16quvLikbgZtGH9tr16Acci42LQGTfLnINAnTYl+CRvhsV1mldWrbkK9pt0/ybMP10G699dZlu7bvfSIi4niSqEVEROwBXRelYNPOX2t/wqURySRsu37lSsPI1Ve+8pXleXJH+nYJ3pQ5Ssd0dDx//vxS4jjt9n0tQYuIiONPohYREbEHyJh0zfo1qZgujRqAWFsmHbPubFcyRrqsLyNefiX/7W9/W9apbZc4wuskZcTO2jMJ2rlz55YETRt+sleJY0TEySBRi4iI2CPWr7numeudTbMRDUF8T+LI2qw3+2+YdW2ajVhzdvvtty/J2X333be029eMhOTVbj8i4mSRqEVEROwRv1ZJGFn7y1/+spQxaqvv+mvKIbXb13afsP2nX8HSMevMXDhbcqbUUYmjxiHWpekk+YUvfGF5XR0dIyJOFolaRETEdUQ7fyWR2vlPOaSvlUcqhyRzu3DtNWWOmo1Mh0iy5muPa7cfEREnl0QtIiLiOmKtmYRNuSNhI2sajrz00ktLaSRp20Y6dvbs2aXE8Tvf+c6hpLlOWu32IyJOB4laRETEDUKjEG37pWnWrD3//PMHL7744mG6Bg1BrDt79NFHDx555JGlcYjW/Vrxf/7zn19eExERJ59ELSIi4gbjV6+k7amnnjr4yU9+sqRr1rHhzJkzBw8//PDBj3/844NLly4tj0VExOkjUYuIiLgJ+PX7u9/9bmk2ohvkrFWzNu2WW245uO2225aGIRERcTpJ1CIiIiIiIlZGK5EjIiIiIiJWRqIWERERERGxMhK1iIiIiIiIlZGoRURERERErIxELSIiIiIiYmUkahERERERESsjUYuIiIiIiFgZiVpERERERMTKSNQiIiIiIiJWRqIWERERERGxMhK1iIiIiIiIlZGoRURERERErIxELSIiIiIiYmUkahERERERESsjUYuIiIiIiFgZiVpERERERMTKSNQiIiIiIiJWRqIWERERERGxMhK1iIiIiIiIlZGoRURERERErIxELSIiIiIiYmUkahERERERESsjUYuIiIiIiFgZiVpERERERMTKSNQiIiIiIiJWRqIWERERERGxMhK1iIiIiIiIlZGoRURERERErIxELSIiIiIiYmUkahERERERESsjUYuIiIiIiFgZiVpERERERMTKSNQiIiIiIiJWRqIWERERERGxMhK1iIiIiIiIlZGoRURERERErIqDg/8PAR96e/dBJjgAAAAASUVORK5CYII=;" vertex="1" parent="1">
          <mxGeometry x="306" y="562" width="48" height="40.53" as="geometry" />
        </mxCell>
        <mxCell id="-l2Gk0cze2jdlK-yijKB-290" value="" style="endArrow=classic;html=1;rounded=0;dashed=1;" edge="1" parent="1">
          <mxGeometry width="471" height="646.83" relative="1" as="geometry">
            <mxPoint x="330" y="603" as="sourcePoint" />
            <mxPoint x="470" y="631.27" as="targetPoint" />
            <Array as="points">
              <mxPoint x="330" y="631" />
            </Array>
          </mxGeometry>
        </mxCell>
        <mxCell id="-l2Gk0cze2jdlK-yijKB-400" value="Target&lt;div&gt;Molecule&amp;nbsp;&lt;/div&gt;" style="text;html=1;align=center;verticalAlign=middle;whiteSpace=wrap;rounded=0;fontSize=10;" vertex="1" parent="-l2Gk0cze2jdlK-yijKB-290">
          <mxGeometry x="406" y="615.83" width="71" height="31" as="geometry" />
        </mxCell>
        <mxCell id="-l2Gk0cze2jdlK-yijKB-293" value="" style="endArrow=none;html=1;rounded=0;dashed=1;startFill=0;" edge="1" parent="1">
          <mxGeometry width="50" height="50" relative="1" as="geometry">
            <mxPoint x="690" y="631.5" as="sourcePoint" />
            <mxPoint x="690" y="577" as="targetPoint" />
          </mxGeometry>
        </mxCell>
        <mxCell id="-l2Gk0cze2jdlK-yijKB-295" value="" style="endArrow=none;html=1;rounded=0;dashed=1;startFill=1;endFill=1;startArrow=blockThin;" edge="1" parent="1">
          <mxGeometry width="50" height="50" relative="1" as="geometry">
            <mxPoint x="710" y="577" as="sourcePoint" />
            <mxPoint x="690.55" y="577" as="targetPoint" />
          </mxGeometry>
        </mxCell>
        <mxCell id="-l2Gk0cze2jdlK-yijKB-296" value="" style="endArrow=none;html=1;rounded=0;dashed=1;startFill=0;" edge="1" parent="1">
          <mxGeometry width="50" height="50" relative="1" as="geometry">
            <mxPoint x="690" y="494.58" as="sourcePoint" />
            <mxPoint x="670.55" y="494.58" as="targetPoint" />
          </mxGeometry>
        </mxCell>
        <mxCell id="-l2Gk0cze2jdlK-yijKB-297" value="" style="endArrow=none;html=1;rounded=0;dashed=1;startFill=0;" edge="1" parent="1">
          <mxGeometry width="50" height="50" relative="1" as="geometry">
            <mxPoint x="690.0400000000001" y="517.24" as="sourcePoint" />
            <mxPoint x="670.59" y="517.24" as="targetPoint" />
          </mxGeometry>
        </mxCell>
        <mxCell id="-l2Gk0cze2jdlK-yijKB-298" value="" style="endArrow=none;html=1;rounded=0;dashed=1;startFill=0;" edge="1" parent="1">
          <mxGeometry width="50" height="50" relative="1" as="geometry">
            <mxPoint x="690.08" y="557.41" as="sourcePoint" />
            <mxPoint x="670.63" y="557.41" as="targetPoint" />
          </mxGeometry>
        </mxCell>
        <mxCell id="-l2Gk0cze2jdlK-yijKB-299" value="" style="endArrow=none;html=1;rounded=0;dashed=1;startFill=0;" edge="1" parent="1">
          <mxGeometry width="50" height="50" relative="1" as="geometry">
            <mxPoint x="690.08" y="631.2" as="sourcePoint" />
            <mxPoint x="670.63" y="631.2" as="targetPoint" />
          </mxGeometry>
        </mxCell>
        <mxCell id="-l2Gk0cze2jdlK-yijKB-300" value="Reconstruct&amp;nbsp;&lt;span style=&quot;background-color: transparent; color: light-dark(rgb(0, 0, 0), rgb(255, 255, 255));&quot;&gt;as&lt;/span&gt;&lt;div&gt;a single 3D graph&lt;/div&gt;" style="rounded=0;whiteSpace=wrap;html=1;" vertex="1" parent="1">
          <mxGeometry x="714" y="532" width="96" height="60" as="geometry" />
        </mxCell>
        <mxCell id="-l2Gk0cze2jdlK-yijKB-302" value="&lt;font style=&quot;font-size: 15px;&quot;&gt;Adapter&lt;/font&gt;&lt;div&gt;&lt;font style=&quot;font-size: 15px;&quot;&gt;Module&lt;/font&gt;&lt;/div&gt;" style="rounded=1;whiteSpace=wrap;html=1;fillColor=#EDEDED;" vertex="1" parent="1">
          <mxGeometry x="848" y="512" width="72" height="100" as="geometry" />
        </mxCell>
        <mxCell id="-l2Gk0cze2jdlK-yijKB-303" value="" style="endArrow=none;html=1;rounded=0;dashed=1;startFill=1;startArrow=blockThin;" edge="1" parent="1">
          <mxGeometry width="50" height="50" relative="1" as="geometry">
            <mxPoint x="710" y="547" as="sourcePoint" />
            <mxPoint x="690.55" y="547" as="targetPoint" />
          </mxGeometry>
        </mxCell>
        <mxCell id="-l2Gk0cze2jdlK-yijKB-304" value="" style="endArrow=none;html=1;rounded=0;dashed=1;startFill=0;" edge="1" parent="1">
          <mxGeometry width="50" height="50" relative="1" as="geometry">
            <mxPoint x="690" y="557.5" as="sourcePoint" />
            <mxPoint x="690" y="495" as="targetPoint" />
          </mxGeometry>
        </mxCell>
        <mxCell id="-l2Gk0cze2jdlK-yijKB-309" value="" style="verticalLabelPosition=bottom;verticalAlign=top;html=1;shape=mxgraph.basic.polygon;polyCoords=[[0.25,0],[0.75,0],[1,0.25],[1,0.75],[0.75,1],[0.25,1],[0,0.75],[0,0.25]];polyline=0;rotation=0;fillColor=#FF0000;strokeColor=#FF0000;" vertex="1" parent="1">
          <mxGeometry x="685" y="542" width="10" height="10" as="geometry" />
        </mxCell>
        <mxCell id="-l2Gk0cze2jdlK-yijKB-313" value="STOP" style="text;html=1;align=center;verticalAlign=middle;whiteSpace=wrap;rounded=0;fontSize=4;" vertex="1" parent="1">
          <mxGeometry x="683.94" y="545.5" width="12.12" height="3" as="geometry" />
        </mxCell>
        <mxCell id="-l2Gk0cze2jdlK-yijKB-314" value="" style="endArrow=none;html=1;rounded=0;dashed=1;startFill=1;endFill=1;startArrow=blockThin;" edge="1" parent="1">
          <mxGeometry width="50" height="50" relative="1" as="geometry">
            <mxPoint x="846" y="562" as="sourcePoint" />
            <mxPoint x="813.55" y="562" as="targetPoint" />
          </mxGeometry>
        </mxCell>
        <mxCell id="-l2Gk0cze2jdlK-yijKB-149" value="" style="endArrow=classic;html=1;rounded=0;dashed=1;" edge="1" parent="1">
          <mxGeometry width="50" height="50" relative="1" as="geometry">
            <mxPoint x="923" y="562" as="sourcePoint" />
            <mxPoint x="944" y="562" as="targetPoint" />
          </mxGeometry>
        </mxCell>
        <mxCell id="-l2Gk0cze2jdlK-yijKB-332" value="&lt;font&gt;Single repr : x&lt;/font&gt;" style="text;html=1;align=center;verticalAlign=middle;whiteSpace=wrap;rounded=0;fontSize=8;" vertex="1" parent="1">
          <mxGeometry x="944" y="525" width="60" height="10" as="geometry" />
        </mxCell>
        <mxCell id="-l2Gk0cze2jdlK-yijKB-333" value="" style="group;strokeColor=default;strokeWidth=0.3;" vertex="1" connectable="0" parent="1">
          <mxGeometry x="950" y="535" width="50" height="10" as="geometry" />
        </mxCell>
        <mxCell id="-l2Gk0cze2jdlK-yijKB-334" value="" style="rounded=0;whiteSpace=wrap;html=1;strokeWidth=0.1;fillColor=#FEC2B4;strokeColor=none;container=0;" vertex="1" parent="-l2Gk0cze2jdlK-yijKB-333">
          <mxGeometry x="10" width="10" height="10" as="geometry" />
        </mxCell>
        <mxCell id="-l2Gk0cze2jdlK-yijKB-335" value="" style="rounded=0;whiteSpace=wrap;html=1;strokeWidth=0.1;fillColor=#FF9980;strokeColor=none;container=0;" vertex="1" parent="-l2Gk0cze2jdlK-yijKB-333">
          <mxGeometry width="10" height="10" as="geometry" />
        </mxCell>
        <mxCell id="-l2Gk0cze2jdlK-yijKB-336" value="" style="rounded=0;whiteSpace=wrap;html=1;strokeWidth=0.1;fillColor=#FEA690;strokeColor=none;container=0;" vertex="1" parent="-l2Gk0cze2jdlK-yijKB-333">
          <mxGeometry x="40" width="10" height="10" as="geometry" />
        </mxCell>
        <mxCell id="-l2Gk0cze2jdlK-yijKB-337" value="" style="rounded=0;whiteSpace=wrap;html=1;strokeWidth=0.1;fillColor=#FEA690;strokeColor=none;container=0;" vertex="1" parent="-l2Gk0cze2jdlK-yijKB-333">
          <mxGeometry x="20" width="10" height="10" as="geometry" />
        </mxCell>
        <mxCell id="-l2Gk0cze2jdlK-yijKB-338" value="" style="rounded=0;whiteSpace=wrap;html=1;strokeWidth=0.1;fillColor=#FF7857;strokeColor=none;container=0;" vertex="1" parent="-l2Gk0cze2jdlK-yijKB-333">
          <mxGeometry x="30" width="10" height="10" as="geometry" />
        </mxCell>
        <mxCell id="-l2Gk0cze2jdlK-yijKB-340" value="&lt;font&gt;Target molecule&#39;s&lt;/font&gt;" style="text;html=1;align=center;verticalAlign=middle;whiteSpace=wrap;rounded=0;fontSize=8;" vertex="1" parent="1">
          <mxGeometry x="940" y="515" width="70" height="10" as="geometry" />
        </mxCell>
        <mxCell id="-l2Gk0cze2jdlK-yijKB-162" value="Target - Context&amp;nbsp;&lt;div&gt;atom distance&lt;span style=&quot;background-color: transparent; color: light-dark(rgb(0, 0, 0), rgb(255, 255, 255));&quot;&gt;&amp;nbsp;&lt;/span&gt;&lt;/div&gt;" style="text;html=1;align=center;verticalAlign=middle;whiteSpace=wrap;rounded=0;fontSize=10;" vertex="1" parent="1">
          <mxGeometry x="1032" y="551" width="76" height="22" as="geometry" />
        </mxCell>
        <mxCell id="-l2Gk0cze2jdlK-yijKB-370" value="&lt;font&gt;Pair repr : z&lt;/font&gt;" style="text;html=1;align=center;verticalAlign=middle;whiteSpace=wrap;rounded=0;fontSize=8;" vertex="1" parent="1">
          <mxGeometry x="950" y="550" width="50" height="10" as="geometry" />
        </mxCell>
        <mxCell id="-l2Gk0cze2jdlK-yijKB-371" value="" style="group;strokeColor=default;strokeWidth=0.3;" vertex="1" connectable="0" parent="1">
          <mxGeometry x="950" y="560" width="50" height="50" as="geometry" />
        </mxCell>
        <mxCell id="-l2Gk0cze2jdlK-yijKB-372" value="" style="rounded=0;whiteSpace=wrap;html=1;strokeWidth=0.1;fillColor=#57A0FF;strokeColor=none;container=0;" vertex="1" parent="-l2Gk0cze2jdlK-yijKB-371">
          <mxGeometry y="10" width="10" height="10" as="geometry" />
        </mxCell>
        <mxCell id="-l2Gk0cze2jdlK-yijKB-373" value="" style="rounded=0;whiteSpace=wrap;html=1;strokeWidth=0.1;fillColor=#7AB4FF;strokeColor=none;container=0;" vertex="1" parent="-l2Gk0cze2jdlK-yijKB-371">
          <mxGeometry x="30" y="30" width="10" height="10" as="geometry" />
        </mxCell>
        <mxCell id="-l2Gk0cze2jdlK-yijKB-374" value="" style="rounded=0;whiteSpace=wrap;html=1;strokeWidth=0.1;fillColor=#99C5FF;strokeColor=none;container=0;" vertex="1" parent="-l2Gk0cze2jdlK-yijKB-371">
          <mxGeometry x="40" y="30" width="10" height="10" as="geometry" />
        </mxCell>
        <mxCell id="-l2Gk0cze2jdlK-yijKB-375" value="" style="rounded=0;whiteSpace=wrap;html=1;strokeWidth=0.1;fillColor=#B3D4FF;strokeColor=none;container=0;" vertex="1" parent="-l2Gk0cze2jdlK-yijKB-371">
          <mxGeometry x="30" y="40" width="10" height="10" as="geometry" />
        </mxCell>
        <mxCell id="-l2Gk0cze2jdlK-yijKB-376" value="" style="rounded=0;whiteSpace=wrap;html=1;strokeWidth=0.1;fillColor=#CCE2FF;strokeColor=none;container=0;" vertex="1" parent="-l2Gk0cze2jdlK-yijKB-371">
          <mxGeometry x="40" y="40" width="10" height="10" as="geometry" />
        </mxCell>
        <mxCell id="-l2Gk0cze2jdlK-yijKB-377" value="" style="rounded=0;whiteSpace=wrap;html=1;strokeWidth=0.1;fillColor=#7AB4FF;strokeColor=none;container=0;" vertex="1" parent="-l2Gk0cze2jdlK-yijKB-371">
          <mxGeometry x="20" y="40" width="10" height="10" as="geometry" />
        </mxCell>
        <mxCell id="-l2Gk0cze2jdlK-yijKB-378" value="" style="rounded=0;whiteSpace=wrap;html=1;strokeWidth=0.1;fillColor=#99C5FF;strokeColor=none;container=0;" vertex="1" parent="-l2Gk0cze2jdlK-yijKB-371">
          <mxGeometry x="10" y="30" width="10" height="10" as="geometry" />
        </mxCell>
        <mxCell id="-l2Gk0cze2jdlK-yijKB-379" value="" style="rounded=0;whiteSpace=wrap;html=1;strokeWidth=0.1;fillColor=#CCE2FF;strokeColor=none;container=0;" vertex="1" parent="-l2Gk0cze2jdlK-yijKB-371">
          <mxGeometry x="20" y="10" width="10" height="10" as="geometry" />
        </mxCell>
        <mxCell id="-l2Gk0cze2jdlK-yijKB-380" value="" style="rounded=0;whiteSpace=wrap;html=1;strokeWidth=0.1;fillColor=#99C5FF;strokeColor=none;container=0;" vertex="1" parent="-l2Gk0cze2jdlK-yijKB-371">
          <mxGeometry x="30" y="10" width="10" height="10" as="geometry" />
        </mxCell>
        <mxCell id="-l2Gk0cze2jdlK-yijKB-381" value="" style="rounded=0;whiteSpace=wrap;html=1;strokeWidth=0.1;fillColor=#B3D4FF;strokeColor=none;container=0;" vertex="1" parent="-l2Gk0cze2jdlK-yijKB-371">
          <mxGeometry x="10" y="10" width="10" height="10" as="geometry" />
        </mxCell>
        <mxCell id="-l2Gk0cze2jdlK-yijKB-382" value="" style="rounded=0;whiteSpace=wrap;html=1;strokeWidth=0.1;fillColor=#7AB4FF;strokeColor=none;container=0;" vertex="1" parent="-l2Gk0cze2jdlK-yijKB-371">
          <mxGeometry x="40" y="10" width="10" height="10" as="geometry" />
        </mxCell>
        <mxCell id="-l2Gk0cze2jdlK-yijKB-383" value="" style="rounded=0;whiteSpace=wrap;html=1;strokeWidth=0.1;fillColor=#CCE2FF;strokeColor=none;container=0;" vertex="1" parent="-l2Gk0cze2jdlK-yijKB-371">
          <mxGeometry x="10" width="10" height="10" as="geometry" />
        </mxCell>
        <mxCell id="-l2Gk0cze2jdlK-yijKB-384" value="" style="rounded=0;whiteSpace=wrap;html=1;strokeWidth=0.1;fillColor=#99C5FF;strokeColor=none;container=0;" vertex="1" parent="-l2Gk0cze2jdlK-yijKB-371">
          <mxGeometry width="10" height="10" as="geometry" />
        </mxCell>
        <mxCell id="-l2Gk0cze2jdlK-yijKB-385" value="" style="rounded=0;whiteSpace=wrap;html=1;strokeWidth=0.1;fillColor=#B3D4FF;strokeColor=none;container=0;" vertex="1" parent="-l2Gk0cze2jdlK-yijKB-371">
          <mxGeometry x="40" width="10" height="10" as="geometry" />
        </mxCell>
        <mxCell id="-l2Gk0cze2jdlK-yijKB-386" value="" style="rounded=0;whiteSpace=wrap;html=1;strokeWidth=0.1;fillColor=#7AB4FF;strokeColor=none;container=0;" vertex="1" parent="-l2Gk0cze2jdlK-yijKB-371">
          <mxGeometry x="20" width="10" height="10" as="geometry" />
        </mxCell>
        <mxCell id="-l2Gk0cze2jdlK-yijKB-387" value="" style="rounded=0;whiteSpace=wrap;html=1;strokeWidth=0.1;fillColor=#57A0FF;strokeColor=none;container=0;" vertex="1" parent="-l2Gk0cze2jdlK-yijKB-371">
          <mxGeometry x="30" width="10" height="10" as="geometry" />
        </mxCell>
        <mxCell id="-l2Gk0cze2jdlK-yijKB-388" value="" style="rounded=0;whiteSpace=wrap;html=1;strokeWidth=0.1;fillColor=#99C5FF;strokeColor=none;container=0;" vertex="1" parent="-l2Gk0cze2jdlK-yijKB-371">
          <mxGeometry x="20" y="20" width="10" height="10" as="geometry" />
        </mxCell>
        <mxCell id="-l2Gk0cze2jdlK-yijKB-389" value="" style="rounded=0;whiteSpace=wrap;html=1;strokeWidth=0.1;fillColor=#B3D4FF;strokeColor=none;container=0;" vertex="1" parent="-l2Gk0cze2jdlK-yijKB-371">
          <mxGeometry x="40" y="20" width="10" height="10" as="geometry" />
        </mxCell>
        <mxCell id="-l2Gk0cze2jdlK-yijKB-390" value="" style="rounded=0;whiteSpace=wrap;html=1;strokeWidth=0.1;fillColor=#57A0FF;strokeColor=none;container=0;" vertex="1" parent="-l2Gk0cze2jdlK-yijKB-371">
          <mxGeometry x="30" y="20" width="10" height="10" as="geometry" />
        </mxCell>
        <mxCell id="-l2Gk0cze2jdlK-yijKB-391" value="" style="rounded=0;whiteSpace=wrap;html=1;strokeWidth=0.1;fillColor=#57A0FF;strokeColor=none;container=0;" vertex="1" parent="-l2Gk0cze2jdlK-yijKB-371">
          <mxGeometry x="10" y="20" width="10" height="10" as="geometry" />
        </mxCell>
        <mxCell id="-l2Gk0cze2jdlK-yijKB-392" value="" style="rounded=0;whiteSpace=wrap;html=1;strokeWidth=0.1;fillColor=#7AB4FF;strokeColor=none;container=0;" vertex="1" parent="-l2Gk0cze2jdlK-yijKB-371">
          <mxGeometry y="20" width="10" height="10" as="geometry" />
        </mxCell>
        <mxCell id="-l2Gk0cze2jdlK-yijKB-393" value="" style="rounded=0;whiteSpace=wrap;html=1;strokeWidth=0.1;fillColor=#CCE2FF;strokeColor=none;container=0;" vertex="1" parent="-l2Gk0cze2jdlK-yijKB-371">
          <mxGeometry x="20" y="30" width="10" height="10" as="geometry" />
        </mxCell>
        <mxCell id="-l2Gk0cze2jdlK-yijKB-394" value="" style="rounded=0;whiteSpace=wrap;html=1;strokeWidth=0.1;fillColor=#57A0FF;strokeColor=none;container=0;" vertex="1" parent="-l2Gk0cze2jdlK-yijKB-371">
          <mxGeometry y="30" width="10" height="10" as="geometry" />
        </mxCell>
        <mxCell id="-l2Gk0cze2jdlK-yijKB-395" value="" style="rounded=0;whiteSpace=wrap;html=1;strokeWidth=0.1;fillColor=#CCE2FF;strokeColor=none;container=0;" vertex="1" parent="-l2Gk0cze2jdlK-yijKB-371">
          <mxGeometry x="10" y="40" width="10" height="10" as="geometry" />
        </mxCell>
        <mxCell id="-l2Gk0cze2jdlK-yijKB-396" value="" style="rounded=0;whiteSpace=wrap;html=1;strokeWidth=0.1;fillColor=#B3D4FF;strokeColor=none;container=0;" vertex="1" parent="-l2Gk0cze2jdlK-yijKB-371">
          <mxGeometry y="40" width="10" height="10" as="geometry" />
        </mxCell>
        <mxCell id="-l2Gk0cze2jdlK-yijKB-397" value="Masked atom type&lt;div&gt;Masked bond type&lt;/div&gt;" style="text;html=1;align=left;verticalAlign=middle;whiteSpace=wrap;rounded=0;fontSize=10;" vertex="1" parent="1">
          <mxGeometry x="1030" y="523" width="101" height="22" as="geometry" />
        </mxCell>
        <mxCell id="-l2Gk0cze2jdlK-yijKB-398" value="Contextual&lt;br&gt;Molecule&amp;nbsp;" style="text;html=1;align=center;verticalAlign=middle;whiteSpace=wrap;rounded=0;fontSize=10;" vertex="1" parent="1">
          <mxGeometry x="406" y="524" width="71" height="31" as="geometry" />
        </mxCell>
        <mxCell id="-l2Gk0cze2jdlK-yijKB-401" value="Atom coordinate" style="text;html=1;align=left;verticalAlign=middle;whiteSpace=wrap;rounded=0;fontSize=10;" vertex="1" parent="1">
          <mxGeometry x="1032" y="578" width="77" height="22" as="geometry" />
        </mxCell>
        <mxCell id="-l2Gk0cze2jdlK-yijKB-157" value="" style="endArrow=none;html=1;rounded=0;dashed=1;startFill=0;" edge="1" parent="1">
          <mxGeometry width="50" height="50" relative="1" as="geometry">
            <mxPoint x="1030" y="534" as="sourcePoint" />
            <mxPoint x="1014" y="534" as="targetPoint" />
          </mxGeometry>
        </mxCell>
        <mxCell id="-l2Gk0cze2jdlK-yijKB-158" value="" style="endArrow=none;html=1;rounded=0;dashed=1;startFill=0;" edge="1" parent="1">
          <mxGeometry width="50" height="50" relative="1" as="geometry">
            <mxPoint x="1030" y="589" as="sourcePoint" />
            <mxPoint x="1014" y="589" as="targetPoint" />
          </mxGeometry>
        </mxCell>
        <mxCell id="-l2Gk0cze2jdlK-yijKB-159" value="" style="endArrow=none;html=1;rounded=0;dashed=1;startFill=0;" edge="1" parent="1">
          <mxGeometry width="50" height="50" relative="1" as="geometry">
            <mxPoint x="1014" y="590" as="sourcePoint" />
            <mxPoint x="1014" y="534" as="targetPoint" />
          </mxGeometry>
        </mxCell>
        <mxCell id="-l2Gk0cze2jdlK-yijKB-160" value="" style="endArrow=none;html=1;rounded=0;dashed=1;startFill=0;" edge="1" parent="1">
          <mxGeometry width="50" height="50" relative="1" as="geometry">
            <mxPoint x="1014" y="562" as="sourcePoint" />
            <mxPoint x="1006" y="562" as="targetPoint" />
          </mxGeometry>
        </mxCell>
        <mxCell id="-l2Gk0cze2jdlK-yijKB-161" value="" style="endArrow=none;html=1;rounded=0;dashed=1;startFill=0;" edge="1" parent="1">
          <mxGeometry width="50" height="50" relative="1" as="geometry">
            <mxPoint x="1030" y="562" as="sourcePoint" />
            <mxPoint x="1014" y="562" as="targetPoint" />
          </mxGeometry>
        </mxCell>
        <mxCell id="-l2Gk0cze2jdlK-yijKB-402" value="Training tasks" style="text;html=1;align=center;verticalAlign=middle;whiteSpace=wrap;rounded=0;fontSize=11;fontStyle=1" vertex="1" parent="1">
          <mxGeometry x="1012.96" y="506" width="115.07" height="10" as="geometry" />
        </mxCell>
      </root>
    </mxGraphModel>
  </diagram>
</mxfile>
